<svg width="326" height="270" viewBox="0 0 326 270" fill="none" xmlns="http://www.w3.org/2000/svg">
<path fill-rule="evenodd" clip-rule="evenodd" d="M189.158 27.8215C220.906 30.7988 249.291 54.872 261.928 84.16C273.411 110.775 257.135 138.975 249.142 166.843C241.883 192.147 239.691 220.938 218.297 236.267C196.074 252.189 167.024 248.606 139.92 245.097C108.785 241.066 73.6646 239.886 54.4446 215.053C34.1883 188.881 30.7037 150.822 43.2395 120.182C54.5718 92.4847 88.4059 86.2598 113.686 70.2582C139.039 54.2112 159.292 25.0207 189.158 27.8215Z" fill="#FAC63E"/>
<path fill-rule="evenodd" clip-rule="evenodd" d="M35.6626 51.1583C37.0099 51.6927 38.4606 51.8413 39.894 51.9459C41.0184 52.0277 41.901 52.4776 42.9603 52.503C45.9104 52.5733 48.8729 52.7055 51.8086 53.1453C54.757 53.5875 57.4728 53.0102 59.8009 55.2211C60.6296 56.0078 61.6685 56.9122 61.1704 58.182C60.9421 58.7636 60.6201 59.1807 60.4305 59.8049C60.2157 60.5106 59.9491 61.1772 59.639 61.8489C59.0438 63.1377 56.0634 67.937 58.482 68.5241C61.1041 69.1604 64.6601 68.4166 67.1859 67.6887C68.6597 67.2638 70.1101 66.766 71.5626 66.2755C72.7124 65.8872 74.223 65.6671 75.2826 65.0587C75.9853 64.6552 76.1309 63.9664 76.5955 63.312C77.4403 62.1214 78.2298 61.1075 79.3217 60.1169C81.5867 58.0625 84.4183 56.6674 87.2108 55.4411C87.391 55.3616 87.7201 55.1761 87.9147 55.158C88.1248 55.1384 88.3563 55.3544 88.492 55.3282C88.8644 55.2559 88.9942 55.0223 89.4017 54.7913C89.9494 54.4811 92.1812 53.449 92.5715 54.2604C92.2063 53.1943 91.9397 53.502 90.951 53.6566C90.5158 53.7252 90.2243 53.5262 89.8332 53.546C89.4726 53.5642 89.3247 53.769 89.0235 53.8243C88.4718 53.9254 87.9579 53.8494 87.382 53.845C87.2272 53.5043 87.0076 53.5069 86.7234 53.8525C86.5646 53.9038 86.4057 53.9551 86.2469 54.0066C85.6733 54.1636 85.0602 54.1337 84.4731 54.1798C83.5911 54.2495 81.2927 55.3228 80.8502 54.2365C80.3784 53.0765 81.8118 52.7873 82.0507 51.9779C82.2839 51.1837 81.1918 50.7176 80.7536 50.238C80.2544 49.6927 79.9495 49.214 79.3638 48.7335C79.0205 48.4515 78.5708 48.1885 78.3163 47.8129C78.0823 47.4672 78.0926 46.9084 77.7888 46.6203C77.4268 46.2769 77.3712 46.5146 77.042 46.3487C76.3966 46.0229 76.6817 46.0393 76.2998 45.594C75.9735 45.2132 75.7325 45.2247 75.3054 44.9329C74.6802 44.5057 74.4603 43.6709 73.8526 43.2117C73.4082 42.8756 72.7002 42.8762 72.3103 42.527C72.0805 42.3214 72.1514 41.9881 71.9528 41.7939C71.5715 41.4209 71.3104 41.5724 70.8345 41.4494C70.0317 41.242 69.772 40.7993 69.1811 40.2865C68.6413 39.8185 68.2985 39.8205 67.6226 39.6263C66.6997 39.3613 66.1033 38.6671 65.2703 38.2592C64.486 37.8755 63.6761 37.6065 62.8825 37.1977C62.3095 36.9025 61.7575 36.7193 61.2346 36.418C61.058 36.3163 61.0427 35.9438 60.8147 35.8934C60.553 35.8352 60.3437 36.2693 60.0653 36.2921C59.4819 36.3399 58.8178 35.6941 58.4347 35.3202C58.2681 35.1577 58.043 34.7184 57.8285 34.6277C57.3803 34.4376 57.1131 34.8141 56.7136 34.6654C56.153 34.4569 56.3758 33.8462 56.0322 33.5095C55.7319 33.2156 55.094 33.2355 54.5605 33.3286C52.4114 33.7025 55.7561 35.2176 56.385 35.5241C57.4429 36.0403 65.1403 39.7954 63.3394 41.6681C62.3867 42.6587 60.0607 41.9138 59.025 41.6528C57.2091 41.1951 55.3165 40.3139 53.4542 40.1117C53.2239 40.0866 52.537 40.2511 52.3497 40.1794C51.9265 40.0178 52.032 39.6946 51.6882 39.5246C51.1702 39.2694 50.1124 39.2818 49.5866 39.3391C49.1756 39.3841 48.7256 39.6289 48.3077 39.5958C47.8471 39.5592 47.4023 39.2919 46.9458 39.2058C46.1643 39.0589 45.3555 39.1309 44.566 39.1536C43.4312 39.1867 41.1622 39.3579 42.8113 40.8627C44.1458 42.0806 46.4546 42.6077 48.1382 43.1392C50.6286 43.9247 53.0752 44.6394 55.5336 45.5343C57.2088 46.1439 60.7821 47.2146 58.7878 49.4994C58.5909 49.3139 58.3941 49.1287 58.1978 48.9432C57.9649 49.178 57.7248 49.6348 57.3521 49.6481C57.0422 49.659 57.1561 49.3266 56.8632 49.2226C55.9417 48.8965 54.6792 48.9213 53.7079 48.8599C51.2745 48.7061 48.8502 48.3844 46.4137 48.2847C44.119 48.1908 41.8001 48.3129 39.5504 48.7931C38.9716 48.9167 33.5764 50.3308 35.6626 51.1583ZM55.5607 74.653C55.4384 75.673 55.8918 76.498 56.0178 77.4832C56.17 78.6743 56.0585 79.7234 56.3969 80.9076C57.0546 83.2094 57.5221 85.5643 58.228 87.8526C59.4744 91.8931 61.4866 95.4616 63.5559 99.1276C64.6114 100.997 66.201 102.54 67.6538 104.104C69.1422 105.706 70.3318 107.283 72.1114 108.599C75.6677 111.228 79.5053 113.567 83.7153 114.987C88.1222 116.474 92.7565 116.925 97.3854 116.736C99.4397 116.652 101.617 116.859 103.639 116.528C105.788 116.175 108.118 115.742 110.23 115.221C114.109 114.266 117.845 112.644 121.633 111.195C125.863 109.577 129.671 107.512 133.528 105.178C134.548 104.561 135.627 104.273 136.584 103.525C137.39 102.896 138.184 102.294 139.033 101.719C140.006 101.059 140.939 100.338 141.933 99.7113C142.528 99.3365 143.364 98.9698 143.676 98.2914C144.106 97.3584 143.588 96.1866 143.321 95.2815C142.972 94.1034 142.602 92.9399 142.183 91.7851C141.474 89.8298 139.67 86.8136 140.662 84.7462C142.754 86.0398 143.677 88.5822 144.571 90.7438C145.639 93.3259 146.385 95.902 146.546 98.7025C146.869 104.336 145.925 110.266 143.877 115.519C143.572 116.299 143.038 117.145 143.431 117.979C143.843 118.855 144.962 119.595 145.822 119.973C148.542 121.171 151.273 121.52 154.114 122.182C154.888 122.363 155.735 122.904 156.461 122.972C156.951 123.018 157.356 122.858 157.917 122.862C158.48 122.866 158.921 123.181 159.425 123.214C159.866 123.244 160.256 122.987 160.676 123.011C161.616 123.066 161.789 124.672 162.254 123.258C162.339 123.316 162.805 123.844 162.864 123.844C162.996 123.844 163.231 123.451 163.357 123.381C163.604 123.244 163.929 123.236 164.206 123.201C164.815 123.122 165.472 123.114 166.071 123.253C167.184 123.512 168.302 123.403 169.254 123.384C169.47 123.38 169.623 123.554 169.892 123.544C170.015 123.539 170.191 123.322 170.321 123.289C171.073 123.095 171.854 123.24 172.62 123.198C174.419 123.098 176.157 123.051 177.914 122.654C181.515 121.84 185.187 121.677 188.802 120.933C190.644 120.554 192.444 120.347 194.257 119.847C194.895 119.671 195.548 119.589 196.113 119.349C196.652 119.12 196.44 118.815 197.277 119.427C197.653 118.508 197.698 118.601 198.605 118.297C198.956 118.179 199.763 117.887 200.025 117.655C200.051 117.632 200.609 116.232 200.658 116.06C200.89 115.224 200.696 114.268 200.599 113.426C200.38 111.529 200.063 109.646 200.044 107.734C200.036 106.89 199.883 106.866 199.62 106.23C199.539 106.033 199.3 106.049 199.28 105.749C199.253 105.349 199.663 105.071 199.619 104.603C199.56 103.975 198.928 103.338 198.706 102.753C198.439 102.048 198.443 101.302 198.283 100.572C198.071 99.6015 197.659 98.6901 197.452 97.7153C197.275 96.8895 197.259 96.2327 196.818 95.5244C196.377 94.8172 196.507 94.2396 196.156 93.5353C195.834 92.8895 195.426 92.6576 195.205 91.8776C194.671 89.9908 193.859 88.1225 192.71 86.5229C191.698 90.5341 190.622 94.6781 187.806 97.8487C186.646 99.1542 185.148 100.471 183.399 100.869C181.422 101.319 179.84 100.155 178.552 98.7757C175.484 95.4895 174.213 91.8217 174.028 87.3661C173.982 86.2588 173.988 85.1495 174.003 84.0413C174.01 83.5482 174.263 82.2824 173.925 81.8679C173.554 81.4134 172.494 81.6974 171.943 81.3975C171.265 81.0285 170.52 80.0414 170.822 79.2273C169.015 80.044 167.288 81.1187 165.278 81.3463C164.483 81.4364 163.635 81.2993 162.924 81.2613C162.945 81.2624 162.373 81.3788 162.339 81.3866C162.198 81.2241 162.045 81.1847 161.881 81.2682C161.735 81.2835 161.628 81.3618 161.561 81.5033C158.697 81.7887 155.813 80.3764 153.361 78.8802C151.929 78.006 150.356 76.7117 149.954 75.0099C149.81 74.4027 149.934 73.8306 149.305 73.5207C148.794 73.2686 147.807 73.6321 147.268 73.6716C145.371 73.8104 143.501 73.6307 141.649 74.195C140.519 74.5392 138.546 76.9523 137.758 75.2548C137.416 75.5751 137.601 76.1454 137.237 76.4571C136.92 76.7287 135.853 76.92 135.415 77.1525C134.735 77.5122 134.336 77.991 133.741 78.4234C133.01 78.9548 132.245 78.9957 131.537 79.6194C129.087 81.7792 126.215 83.3436 123.479 85.1348C120.232 87.2598 117.358 89.7644 113.874 91.4976C110.311 93.2698 106.863 94.7504 102.969 95.6724C101.203 96.0907 99.3915 96.4398 97.5782 96.5689C96.723 96.6293 95.907 96.5988 95.0821 96.8549C94.5811 97.0104 94.4191 97.0882 93.9268 97.1026C93.64 97.111 93.2249 96.9456 92.8715 96.952C92.146 96.9652 91.7754 96.9353 91.1205 97.1749C90.3797 97.4457 89.7637 97.6087 88.9201 97.6321C87.9496 97.6591 87.3783 97.2873 86.4965 97.058C85.786 96.873 85.1461 96.9612 84.5103 96.5772C81.6841 94.8711 79.4131 92.2656 77.9309 89.3075C76.2292 85.9128 74.9182 81.7746 74.6516 77.9703C74.4989 75.7926 74.9802 73.669 75.8135 71.6699C76.0487 71.1059 77.4597 68.7038 77.025 68.2674C76.5318 67.7717 74.9183 68.908 74.4634 69.1549C73.0202 69.9375 70.4136 70.1884 69.4019 71.5051C69.1445 71.0117 67.7117 71.7431 67.2519 71.949C66.8717 72.1193 66.764 72.4272 66.2858 72.4641C65.835 72.4986 65.3697 72.14 64.9555 72.0257C65.2582 72.8685 64.2404 72.908 63.5429 72.9526C63.0408 72.9849 62.5009 72.906 62.0535 72.8743C61.1975 72.8135 61.1836 72.6216 60.4016 72.1838C60.4322 72.5044 60.3973 72.8175 60.2976 73.1234C59.7952 72.3972 58.8362 72.9016 58.1574 72.5825C58.648 71.8393 56.5528 71.6359 56.0648 71.792C54.8366 72.1858 55.6693 73.7494 55.5607 74.653ZM151.74 125.73C150.93 125.489 150.114 125.268 149.302 125.038C149.917 125.602 150.557 126.619 151.436 126.778C152.497 126.969 152.915 126.079 151.74 125.73ZM191.754 126.134C190.389 126.297 188.903 126.172 187.707 126.976C188.29 127.645 188.669 128.346 189.641 127.962C190.458 127.64 191.13 126.721 191.754 126.134ZM146.168 162.775C147.063 161.973 146.946 161.614 146.525 160.576C146.344 160.129 146.057 158.742 145.378 159.148C145.136 159.292 144.844 160.805 144.801 161.111C144.704 161.796 145.129 163.704 146.168 162.775ZM141.114 158.118C141.431 156.957 141.42 155.693 141.731 154.504C142.059 153.248 142.463 151.988 142.579 150.69C137.845 151.525 135.157 156.214 133.106 160.127C132.016 162.205 130.948 164.505 130.537 166.829C130.136 169.094 130.832 170.814 131.64 172.833C132.052 173.863 132.733 174.221 133.528 174.902C134.233 175.505 134.497 176.523 135.231 177.065C135.773 177.465 136.478 177.673 137.045 178.078C137.605 178.477 138.165 178.873 138.744 179.246C139.405 179.672 141.386 181.226 142.278 180.895C142.946 180.646 142.648 179.831 142.48 179.319C142.126 178.241 141.877 177.203 141.658 176.079C141.074 173.079 140.757 170.099 140.606 167.048C140.458 164.069 140.32 161.026 141.114 158.118ZM145.074 171.646C145.003 171.793 144.707 173.053 145.367 172.794C145.825 172.614 145.141 171.877 145.074 171.646ZM142.285 121.654C141.726 121.423 141.502 122.105 141.011 122.125C140.359 122.152 140.222 121.429 139.538 121.407C137.865 121.355 135.441 122.968 134.081 123.81C134.747 124.651 135.021 125.51 134.69 126.545C134.398 127.456 133.284 128.475 133.325 129.441C133.366 130.41 134.573 131.033 134.949 131.895C135.294 132.686 135.426 134.269 134.359 134.618C132.523 135.218 132.104 131.787 130.712 131.76C130.118 131.749 129.345 132.865 128.917 133.212C127.96 133.99 126.879 134.559 125.765 135.076C125.013 135.424 123.967 136.111 123.409 135.174C122.962 134.423 123.327 133.234 123.762 132.588C124.26 131.847 128.724 128.456 128.442 128.157C128.292 127.998 127.18 128.437 127.023 128.571C126.667 128.871 126.536 129.361 126.179 129.681C125.635 130.17 124.931 130.364 124.258 130.59C122.853 131.061 121.963 132.719 120.601 133.491C119.816 133.936 119.336 134.791 118.671 135.453C117.801 136.32 116.915 137.228 117.046 138.504C117.136 139.389 117.268 141.449 117.769 142.195C118.313 143.005 119.218 142.694 120.045 142.886C120.975 143.101 121.719 143.825 121.534 144.859C121.342 145.935 120.48 146.012 119.579 146.039C117.04 146.115 117.975 147.724 117.09 149.492C116.609 150.452 115.806 150.828 115.254 149.705C114.809 148.801 115.604 147.376 115.121 146.604C114.533 145.664 111.387 145.92 110.731 146.65C110.234 147.204 109.97 147.966 109.475 148.546C108.722 149.425 108.413 150.659 107.961 151.737C107.481 152.883 107.063 154.045 106.696 155.231C106.438 156.065 105.881 157.385 107.215 156.673C108.146 156.176 108.842 155.054 110.023 155.019C111.191 154.984 111.856 156.194 111.515 157.247C111.185 158.265 109.679 158.714 109.505 159.747C109.314 160.877 111.253 162.029 111.841 162.86C113.197 164.773 112.063 166.926 109.841 165.302C109.053 164.727 108.228 163.566 107.34 163.202C105.934 162.627 105.943 164.759 105.269 165.544C104.907 165.966 104.776 165.537 104.991 166.168C105.07 166.4 105.471 166.473 105.516 166.762C105.549 166.974 105.359 167.086 105.352 167.25C105.33 167.806 105.329 167.888 105.454 168.492C105.592 169.162 105.542 169.995 105.584 170.675C105.68 172.231 105.7 173.717 105.864 175.272C105.955 176.138 106.145 177.901 105.121 178.323C105.486 178.893 105.971 180.478 106.687 180.359C106.629 180.734 106.662 181.214 106.297 181.459C106.209 181.23 106.122 181.001 106.035 180.772C105.834 181.295 106.011 181.356 106.022 181.712C106.008 181.271 106.426 182.327 106.2 182.196C106.392 182.357 106.645 182.448 106.934 182.656C107.338 182.946 107.551 183.346 107.864 183.738C108.431 184.447 108.398 185.162 108.894 185.902C109.599 186.95 110.502 187.984 111.244 189.032C111.848 189.884 112.999 190.376 113.483 191.293C113.791 191.876 113.913 192.554 114.438 192.963C115.19 193.551 116.196 194.104 117.012 194.71C117.526 195.091 117.917 195.62 118.429 195.99C118.689 196.178 119.471 196.367 119.472 196.749C120.455 196.474 121.152 195.472 121.925 194.861C122.442 194.454 123.673 193.924 123.598 193.107C123.537 192.438 122.585 191.608 122.365 190.907C122.179 190.313 121.92 189.205 122.435 188.698C123.515 187.633 124.739 189.918 125.319 190.526C126.515 191.78 127.023 190.516 128.006 189.605C129.577 188.15 130.564 189.659 130.011 191.471C129.731 192.388 128.665 193.206 128.596 194.142C128.52 195.171 129.637 195.688 130.079 196.511C130.497 197.286 130.689 198.649 129.905 199.29C129.039 199.998 128.286 199.161 127.72 198.507C127.281 198 126.792 196.883 126.078 196.82C125.183 196.74 123.716 198.362 123.036 198.862C124.07 199.161 124.692 200.025 125.566 200.579C126.694 201.293 128.269 201.462 129.532 201.952C130.721 202.414 131.791 202.79 132.923 203.364C134.267 204.044 135.911 204.213 137.334 204.709C138.604 205.151 139.809 205.771 141.107 206.136C142.57 206.548 144.087 206.795 145.562 207.167C146.823 207.485 148.302 207.79 149.602 207.793C150.916 207.795 150.889 206.983 151.309 205.9C151.809 204.615 152.636 203.486 153.163 202.232C153.665 201.039 152.907 200.586 152.18 199.673C151.495 198.813 151.677 198.678 150.794 199.282C149.631 200.077 148.863 199.539 147.958 198.625C147.154 197.813 146.858 197.137 145.7 197.703C144.542 198.269 143.438 199.191 142.193 199.56C141.212 199.851 140.482 199.639 140.317 198.569C140.14 197.412 140.801 196.591 141.634 195.904C142.268 195.382 143.653 194.762 143.885 193.913C144.129 193.02 142.843 191.717 142.706 190.718C142.532 189.457 143.077 188.53 144.275 189.403C145.145 190.036 145.724 191.409 146.931 191.494C146.596 190.09 145.869 188.843 145.245 187.556C144.722 186.479 144.273 185.257 142.869 185.136C142.414 185.098 142.118 185.145 141.684 185.067C141.11 184.964 140.332 184.882 139.719 184.728C138.277 184.364 137.003 183.253 135.675 182.615C135.37 183.433 134.832 185.762 133.592 184.402C132.675 183.397 133.691 181.665 132.846 180.547C131.103 178.238 127.306 179.933 125.017 178.742C124.02 178.224 123.208 176.572 124.614 176.073C125.435 175.782 127.807 176.857 128.301 176.065C128.653 175.5 127.177 173.292 126.999 172.685C126.443 170.797 126.534 168.836 126.534 166.891C125.419 167.346 124.009 168.411 122.808 168.557C121.574 168.707 121.357 167.26 121.68 166.309C122.126 165 123.612 163.927 124.63 163.084C125.079 162.712 126.255 162.114 126.501 161.548C126.755 160.965 126.391 160.682 126.106 160.175C125.66 159.382 124.58 157.334 125.755 156.591C126.836 155.908 127.443 157.823 128.131 158.232C129.3 158.927 129.7 157.335 130.165 156.524C131.008 155.053 132.177 153.74 133.226 152.416C134.181 151.211 134.769 150.396 134.909 148.86C135.014 147.697 135.253 146.797 133.879 146.532C131.442 146.064 127.876 147.218 125.897 145.24C124.859 144.203 125.6 143.13 126.911 143.183C128.632 143.254 130.269 143.338 132.001 143.199C132.922 143.125 134.848 143.348 135.313 142.401C135.911 141.181 134.897 139.221 135.999 138.152C137.405 136.787 137.75 139.872 137.797 140.724C137.831 141.344 137.672 142.289 138.059 142.826C138.42 143.327 139.08 143.32 139.614 143.501C140.958 143.957 141.653 145.606 139.869 145.955C139.269 146.073 138.432 145.902 137.933 146.346C137.411 146.811 137.61 147.637 137.561 148.263C138.811 146.817 141.409 147.458 143.102 146.921C143.993 146.638 144.144 146.262 144.519 145.4C144.972 144.357 146.006 143.039 146.046 141.886C146.08 140.907 145.263 140.17 144.882 139.326C144.555 138.602 144.259 137.424 144.307 136.611C144.424 134.652 147.966 136.652 148.695 137.402C150.02 138.763 151.652 140.523 150.934 142.45C150.294 144.17 149.954 145.145 152.176 145.01C152.989 144.961 154.697 145.121 155.328 144.779C155.796 144.524 155.62 144.068 155.635 143.407C155.648 142.835 155.605 141.967 155.973 141.467C157.269 139.707 157.572 144.086 158.3 144.56C159.436 145.302 161.843 144.525 161.657 146.726C161.494 148.652 158.886 147.866 158.164 149.523C157.817 150.321 157.891 151.251 157.453 152.021C156.83 153.119 156.062 153.061 155.648 151.916C155.358 151.112 155.745 150.285 155.522 149.527C155.199 148.43 153.664 148.531 152.719 148.407C151.57 148.257 150.569 147.968 149.477 147.615C148.129 147.18 148.203 147.895 147.983 148.929C147.729 150.129 147.34 151.286 147.101 152.505C146.879 153.64 146.289 154.862 146.192 155.998C146.119 156.867 146.414 156.788 147.135 157.289C147.922 157.837 148.789 159.261 149.703 159.495C151.078 159.847 152.464 156.71 153.715 158.315C154.252 159.004 154.045 160.472 153.662 161.184C153.158 162.125 152.23 162.364 153.008 163.442C153.592 164.251 154.327 164.878 154.381 165.967C154.433 166.979 153.744 167.935 152.666 167.638C151.796 167.399 151.282 166.509 150.622 165.969C149.485 165.036 148.55 165.9 147.386 166.428C146.469 166.843 144.785 167.115 144.325 168.092C143.741 169.332 144.489 169.811 145.574 169.458C145.152 170.845 145.708 171.65 145.86 173.083C145.984 174.243 146.251 175.304 146.421 176.426C146.647 177.923 146.671 177.761 148.215 177.812C149.527 177.855 150.802 177.82 152.112 177.762C153.266 177.712 154.051 177.816 154.103 176.426C154.126 175.812 153.738 173.732 154.95 173.982C156.017 174.202 155.709 176.102 156.066 176.817C156.583 177.85 157.456 177.534 158.427 177.79C159.415 178.049 160.214 178.778 159.959 179.903C159.687 181.104 158.584 181.02 157.625 181.298C156.148 181.726 156.472 183.894 155.61 185.072C155.258 185.552 154.888 186.038 154.298 185.643C153.215 184.92 154.237 183.153 153.951 182.266C153.65 181.334 152.635 181.525 151.676 181.404C150.261 181.225 148.779 180.544 147.369 180.552C147.639 181.365 148.397 181.837 148.67 182.692C148.816 183.151 148.679 184.007 148.882 184.386C149.1 184.793 149.788 184.915 150.073 185.482C150.445 186.223 150.56 187.018 150.996 187.744C152.026 189.463 152.914 191.219 154.009 192.92C155.14 194.676 156.358 196.348 157.781 197.87C159.161 199.348 159.572 198.632 160.759 197.425C161.241 196.933 162.266 196.364 162.401 195.63C162.533 194.906 161.933 194.316 161.605 193.727C161.17 192.946 160.384 191.602 160.575 190.665C160.935 188.906 162.511 190.526 163.108 191.185C164.152 192.335 164.735 193.545 166.312 192.636C167.322 192.054 168.595 190.461 169.92 191.05C171.126 191.587 170.788 193.136 170.046 193.922C169.631 194.362 169.038 194.614 168.597 195.027C167.648 195.915 168.185 196.156 168.619 197.151C168.973 197.965 169.025 199.566 168.371 200.245C167.085 201.579 166.09 198.887 164.896 198.832C164.33 198.806 161.978 200.347 161.81 200.902C161.516 201.875 164.054 203.037 164.728 203.494C166.297 204.556 168.005 205.639 169.77 206.344C171.852 207.175 170.3 204.555 171.438 203.685C172.919 202.553 173.033 205.655 173.185 206.425C173.589 208.475 175.758 208.529 177.508 209.037C178.623 209.361 179.738 209.704 180.864 209.986C181.819 210.225 182.889 210.219 183.815 210.515C184.627 210.775 185.183 211.301 186.091 211.307C186.387 211.309 186.643 211.209 186.928 211.203C187.503 211.188 188.029 211.516 188.578 211.482C189.491 211.426 189.094 211.138 189.412 210.502C189.71 209.906 190.469 209.686 191.06 209.5C192.753 208.966 194.163 209.434 194.409 207.285C194.484 206.625 194.385 203.916 195.642 204.232C197.111 204.602 195.819 207.822 196.731 208.629C197.174 209.022 197.844 208.826 198.379 208.942C199.257 209.132 199.642 209.794 200.603 209.75C201.414 209.712 202.169 209.353 202.876 208.996C203.929 208.464 205.186 208.112 206.064 207.3C207.268 206.187 207.796 204.454 208.309 202.949C209.065 200.733 209.387 198.525 209.508 196.201C209.55 195.391 209.895 194.819 210.039 194.076C210.192 193.285 209.74 193.127 209.635 192.378C209.534 191.65 209.583 190.872 209.43 190.092C209.209 188.97 209.132 187.822 208.918 186.697C208.564 184.836 208.028 182.988 207.587 181.144C207.45 180.571 207.202 178.735 206.494 178.558C205.971 178.428 204.764 179.205 204.28 179.433C203.322 179.884 202.499 180.507 201.474 180.819C200.945 180.98 200.277 180.964 199.93 181.454C199.382 182.229 199.825 183.748 199.598 184.664C199.32 185.786 198.398 186.263 197.656 185.136C197.26 184.536 197.366 183.819 197.313 183.155C197.237 182.198 197.22 181.966 196.181 182.031C195.13 182.097 194.103 182.493 193.025 182.541C192.053 182.584 191.076 182.557 190.105 182.504C187.746 182.376 185.588 181.993 183.376 181.155C181.878 180.587 180.14 179.346 178.489 179.389C176.158 179.451 176.789 181.605 176.47 183.216C176.276 184.197 174.632 187.207 174.001 184.764C173.689 183.555 174.729 181.794 174.113 180.702C173.385 179.412 170.71 180.483 169.493 180.184C168.508 179.942 166.862 178.548 167.557 177.346C167.887 176.776 168.527 176.884 169.097 176.842C170.179 176.761 171.253 176.614 172.325 176.456C172.935 176.366 173.868 176.314 174.112 175.615C174.319 175.021 173.348 173.482 173.137 172.915C172.441 171.035 172.19 169.506 172.187 167.456C172.186 166.532 172.125 165.558 172.274 164.644C172.329 164.309 172.832 163.216 172.597 162.896C172.28 162.465 171.631 163.012 171.37 163.334C170.853 163.977 171.033 163.926 171.327 164.591C171.76 165.571 172.601 167.625 171.174 168.379C169.682 169.168 169.142 166.503 167.728 166.795C167.069 166.931 166.418 167.797 165.887 168.201C165.265 168.674 164.593 169.176 163.862 169.466C162.663 169.943 161.315 169.586 161.8 168.081C162.182 166.894 163.391 165.901 164.255 165.059C165.632 163.719 165.57 163.155 164.618 161.576C164.22 160.916 162.692 158.11 164.464 157.881C165.401 157.76 166.416 159.278 166.911 159.859C167.761 160.856 168.249 161.283 169.514 160.483C170.75 159.701 171.325 159.047 172.82 158.975C174.541 158.892 175.315 156.312 176.227 154.987C178.706 151.387 182.5 149.606 185.699 146.848C187.258 145.504 188.311 143.746 189.496 142.091C190.061 141.303 190.79 140.648 191.25 139.79C191.539 139.249 192.323 137.948 192.119 137.311C191.865 136.517 190.494 136.028 189.924 135.467C189.445 134.997 189.19 134.411 188.436 134.591C187.766 134.751 187.162 135.656 186.615 136.054C186.077 136.444 185.47 136.806 184.874 137.098C183.795 137.626 182.493 137.909 182.43 136.303C182.375 134.913 183.644 133.426 184.561 132.489C185.229 131.806 186.24 131.213 186.108 130.13C186.043 129.593 185.586 128.637 185.319 128.186C184.399 126.636 181.591 127.582 180.065 127.681C178.226 127.801 176.2 127.493 174.738 128.791C174.262 129.215 173.157 130.046 172.923 130.636C172.651 131.322 173.096 131.63 173.343 132.294C173.662 133.152 173.882 134.846 172.962 135.438C171.427 136.425 170.627 133.497 169.031 134.137C167.518 134.745 166.46 136.491 164.732 136.768C162.472 137.129 163.759 134.333 164.541 133.51C165.556 132.443 167.523 131.34 166.879 129.762C166.695 129.312 166.275 128.371 165.896 128.091C165.156 127.543 163.962 127.844 163.115 127.853C160.975 127.876 158.955 127.7 156.858 127.327C156.226 127.214 156.082 127.125 155.636 127.595C155.019 128.245 154.695 129.093 153.978 129.732C155.015 130.847 156.551 132.163 155.83 133.879C155.21 135.356 153.851 134.632 152.931 133.843C152.499 133.472 152.053 132.688 151.481 132.539C150.738 132.347 149.903 133.02 149.294 133.362C148.381 133.876 146.429 135.398 145.392 134.499C144.02 133.311 145.643 131.522 146.588 130.788C147.159 130.344 147.921 130.027 148.401 129.479C149.042 128.749 148.666 128.642 148.278 127.985C147.569 126.782 147.829 125.233 146.694 124.293C146.064 123.772 145.164 123.445 144.445 123.063C143.738 122.687 142.979 121.94 142.285 121.654ZM130.718 126.332C130.994 126.163 131.27 125.994 131.546 125.825C130.915 125.518 130.499 125.555 130.718 126.332ZM115.487 140.946C115.375 140.385 114.941 139.381 114.344 139.906C113.96 140.243 114.38 141.511 113.465 141.16C113.418 141.968 114.02 141.899 113.132 142.617C114.253 142.487 115.801 142.538 115.487 140.946ZM159.01 209.004C158.727 208.247 158.73 207.075 157.86 207.766C157.815 206.851 158.032 203.947 156.366 204.065C155.687 204.113 155.695 204.711 155.515 205.229C155.202 206.132 154.674 206.955 154.229 207.797C155.882 207.863 157.535 208.241 159.01 209.004ZM158.469 219.44C157.524 220.152 157.05 219.311 156.159 219.004C155.336 218.721 154.482 218.89 153.57 218.689C152.439 218.44 151.107 218.478 150.003 218.468C149.731 218.466 149.161 218.509 148.886 218.54C148.385 218.598 148.43 218.701 147.911 218.841C147.711 218.795 147.508 218.761 147.304 218.74C147.054 218.729 146.857 218.833 146.712 219.05C146.246 219.205 146.076 219.102 145.629 219.211C144.566 219.47 143.772 220.11 143.077 220.957C141.663 222.683 141.621 225.277 141.653 227.413C141.662 228.022 141.709 228.627 141.641 229.234C141.58 229.79 141.186 230.631 141.347 231.185C141.591 232.022 142.346 231.834 143.226 231.871C143.744 231.893 144.261 232.227 144.673 232.256C145.072 232.285 145.233 232.138 145.636 232.048C146.689 231.813 147.931 232.148 148.97 232.434C150.035 232.728 150.969 233.017 152.05 233.225C152.753 233.36 153.386 233.437 154.095 233.525C154.677 233.598 154.928 233.904 155.435 234.03C155.924 234.151 156.402 233.969 156.895 234.064C157.568 234.194 158.037 234.687 158.651 234.933C159.496 235.271 160.847 234.765 161.221 235.808C161.368 234.802 162.335 235.076 163.055 234.987C164.241 234.84 165.409 234.309 166.55 233.97C167.485 233.693 170.719 231.135 171.338 232.173C171.338 232.068 171.225 231.474 171.323 231.405C171.668 231.163 171.665 231.296 172.037 231.144C172.605 230.912 172.844 230.703 173.251 230.312C174.072 229.522 175.178 229.109 176.043 228.392C178.218 226.591 178.962 222.881 179.492 220.298C180.186 221.526 179.931 219.951 179.811 219.425C179.527 218.183 179.892 217.57 179.974 216.371C180.05 215.267 179.546 215.049 178.548 214.934C177.318 214.791 176.134 214.593 174.93 214.286C173.78 213.994 172.652 213.664 171.615 213.082C170.664 212.549 169.668 212.34 168.696 211.874C167.625 211.36 166.575 210.819 165.494 210.318C165.007 210.092 162.862 208.477 162.489 208.575C161.725 208.777 162.446 210.113 162.679 210.464C163.278 211.364 164.262 211.782 165.148 212.349C165.949 212.859 168.375 215.279 165.912 215.037C164.279 214.876 163.174 213.169 162.129 215.114C161.761 215.801 161.219 216.353 161.642 217.063C162.234 218.053 163.941 218.525 164.836 219.192C165.599 219.76 167.159 222.438 165.587 222.726C165.135 222.808 164.438 222.701 164.102 222.351C163.875 222.114 163.891 221.628 163.661 221.466C163.337 221.236 162.705 221.52 162.334 221.395C161.806 221.215 161.682 220.927 161.488 220.421C160.923 220.678 160.915 221.022 160.271 220.691C160.057 220.581 159.978 220.178 159.731 220.07C159.399 219.925 159.3 220.399 159.117 220.329C158.623 220.14 158.625 219.927 158.469 219.44ZM192.346 211.561C193.292 211.632 194.326 211.708 195.134 211.106C194.153 211.165 193.287 211.386 192.304 211.184C191.913 211.104 191.287 210.735 190.886 210.864C189.463 211.319 191.967 211.533 192.346 211.561ZM194.975 128.464C194.989 128.132 195.271 123.661 193.741 125.417C193.322 125.898 193.774 126.541 193.833 127.073C193.934 127.968 193.62 128.865 193.147 129.619C192.706 130.322 191.883 130.938 192.006 131.854C192.114 132.659 192.928 133.346 193.328 134.013C194.314 132.463 194.895 130.33 194.975 128.464ZM198.338 81.5496C201.883 81.9218 205.411 82.5809 208.83 83.5977C212.186 84.5961 215.315 86.1571 218.469 87.6524C219.119 84.8747 219.8 82.1041 220.442 79.3244C220.751 77.9864 221.046 76.6452 221.335 75.3026C221.541 74.348 222.289 72.5684 221.977 71.6293C221.811 71.1318 221.592 71.1298 221.236 70.8224C221.018 70.6349 220.639 70.1763 220.413 70.0781C219.863 69.8396 218.451 69.6305 217.889 69.6645C217.376 69.6953 217.108 69.8987 216.58 69.7515C216.131 69.6262 215.754 69.2813 215.332 69.0921C214.26 68.6108 212.921 68.4494 211.774 68.1948C210.67 67.9497 209.53 67.8952 208.423 67.6524C207.454 67.4395 206.993 66.7274 206.167 66.7531C204.015 66.8202 201.636 66.5687 199.501 66.0557C197.106 65.4802 194.501 65.5914 192.044 65.5297C191.065 65.5052 190.377 65.2854 190.372 66.3731C190.366 67.7008 190.897 69.1909 191.168 70.4869C191.77 73.3602 192.279 76.1532 192.506 79.0709C192.62 80.5302 193.219 80.4282 194.408 80.8759C195.731 81.3739 196.931 81.4022 198.338 81.5496ZM216.979 111.029C216.106 111.158 216.206 108.773 216.142 108.288C214.059 112.209 211.713 115.981 209.878 120.03C209.449 120.977 209.06 121.946 208.606 122.881C208.296 123.521 207.602 124.381 207.619 125.126C207.636 125.904 208.266 126.195 208.929 126.483C209.645 126.794 209.925 126.949 210.43 126.589C211.042 126.153 211.552 124.81 211.929 124.163C212.506 123.174 213.058 122.171 213.623 121.176C214.646 119.372 215.853 117.644 216.693 115.75C217.481 113.976 218.672 112.449 219.521 110.706C220.361 108.98 221.512 107.344 222.478 105.654C221.507 105.251 220.298 104.244 219.195 104.3C218.057 104.358 218.085 105.455 218.035 106.369C217.983 107.339 218.308 110.833 216.979 111.029ZM214.182 128.741C214.701 129.356 215.873 129.718 216.592 130.059C217.587 130.531 218.606 130.951 219.596 131.434C222.845 133.016 226.081 134.465 229.392 135.918C231.103 136.669 232.793 137.467 234.463 138.306C235.338 138.745 237.265 140.284 238.271 140.323C239.425 140.367 239.452 138.043 239.706 137.17C239.92 136.441 240.316 135.873 240.583 135.181C240.691 134.898 240.607 134.684 240.773 134.404C240.961 134.085 241.489 133.828 241.761 133.553C242.914 132.385 243.87 130.897 244.844 129.58C245.736 128.374 247.257 126.864 247.685 125.386C248.527 122.481 243.638 120.872 241.768 119.705C238.493 117.661 235.202 115.562 232.081 113.291C230.659 112.257 229.267 111.181 227.838 110.156C227.171 109.678 225.322 107.817 224.467 108.48C224.148 108.727 224.142 109.41 224.009 109.768C223.718 110.55 223.277 111.234 222.83 111.935C222.433 112.557 221.869 113.2 221.62 113.893C221.325 114.72 221.338 115.188 220.797 115.93C219.813 117.279 219.348 118.836 218.433 120.211C217.55 121.537 216.702 122.515 216.125 123.997C215.794 124.846 215.272 125.6 214.81 126.381C214.593 126.75 214.365 127.112 214.171 127.494C213.821 128.176 213.698 128.168 214.182 128.741ZM242.114 140.089C242.738 140.535 243.658 139.786 244.264 139.775C244.527 139.771 244.789 139.976 244.965 139.97C245.494 139.954 245.927 139.599 246.414 139.434C248.664 138.67 251.346 138.641 253.268 137.09C257.087 134.008 255.266 127.825 254.571 123.819C254.429 123.003 254.174 121.871 254.836 121.202C255.561 120.469 256.651 120.907 257.314 121.5C257.995 122.108 258.458 122.96 259.023 123.671C259.925 124.802 260.909 125.871 261.902 126.922C265.432 130.652 269.171 134.921 273.538 137.659C275.355 138.798 276.998 140.342 278.989 141.21C281.384 142.254 278.926 138.223 278.495 137.568C275.676 133.282 271.573 129.889 268.127 126.127C267.477 125.417 266.553 124.46 266.542 123.437C266.524 121.9 267.884 122.038 268.959 122.465C269.964 122.864 270.468 123.857 271.277 124.535C272.284 125.38 273.461 126.065 274.581 126.746C276.999 128.216 279.565 129.45 282.124 130.653C283.321 131.216 284.523 131.766 285.726 132.317C286.056 132.468 288.028 133.717 287.934 132.646C287.921 132.502 286.663 130.977 286.507 130.92C285.733 130.638 285.348 131.491 284.659 130.373C284.169 129.579 284.101 129.166 283.409 128.564C283.291 128.461 283.21 128.202 283.115 128.034C283.127 128.097 282.601 127.587 282.702 127.676C282.564 127.554 282.363 127.331 282.251 127.185C281.71 126.48 280.671 126.467 280.201 125.662C280.021 125.355 280.123 124.962 279.907 124.657C279.604 124.23 278.938 124.048 278.583 123.673C278.278 123.35 278.027 123.087 277.838 122.89C277.708 122.754 277.479 122.658 277.325 122.503C276.942 122.116 276.972 121.773 276.435 121.447C275.953 121.155 275.731 121.428 275.565 120.705C274.978 121.08 275.052 120.531 274.814 120.138C274.504 119.626 274.111 119.398 273.684 119.028C272.746 118.213 271.866 117.001 271.067 115.975C269.082 113.425 267.475 110.443 266.884 107.243C266.742 106.478 266.664 105.705 266.608 104.929C266.578 104.521 266.711 103.528 266.458 103.128C266.065 102.508 265.319 102.754 264.751 102.483C264.559 102.391 264.368 102.119 264.187 102.057C263.934 101.971 263.624 102.055 263.362 101.972C263.26 101.94 263.236 101.64 263.067 101.602C262.736 101.526 262.407 101.646 262.08 101.651C261.364 101.66 260.657 101.534 259.971 101.307C259.346 101.099 258.823 100.624 258.2 100.453C258.264 100.471 257.173 100.557 257.231 100.496C257.179 100.228 257.127 99.9598 257.075 99.6917C256.661 99.9803 255.248 100.361 254.81 100.295C254.106 100.189 254.255 99.5557 253.658 100.388C253.319 100.093 252.982 99.7994 252.644 99.5053C252.388 100.577 250.625 100.057 249.826 100.116C248.7 100.2 247.813 99.9889 246.787 100.38C245.539 100.857 244.444 101.359 243.1 101.489C242.161 101.579 241.77 102.02 240.85 102.292C239.614 102.657 239.516 103.06 239.903 104.321C240.216 105.343 240.487 106.131 240.029 107.18C239.217 109.041 237.008 109.807 235.584 111.092C238.92 113.429 242.213 115.727 245.438 118.217C246.789 119.26 248.225 120.304 248.995 121.873C249.704 123.321 250.107 125.061 250.534 126.611C251.513 130.165 248.754 132.557 245.92 134.12C245.333 134.444 241.294 139.504 242.114 140.089ZM247.615 144.385C247.814 143.701 247.788 143.519 247.127 143.274C246.877 143.181 245.917 143.06 245.762 143.402C245.411 144.18 247.258 144.17 247.615 144.385ZM219.507 94.8541C219.27 96.3707 219.037 97.8879 218.825 99.4079C218.709 100.248 218.444 100.991 219.071 101.624C219.427 101.984 220.291 102.118 220.746 102.31C221.402 102.586 222.041 102.903 222.672 103.233C223.797 103.821 224.972 104.175 226.082 104.705C226.565 104.935 226.851 105.389 227.269 105.701C227.841 106.13 228.537 106.338 229.127 106.745C230.182 107.474 231.148 108.336 232.202 109.07C233.397 109.901 233.645 109.634 234.316 108.406C234.918 107.303 235.641 106.8 236.508 105.936C236.845 105.6 238.052 103.685 237.027 103.52C236.764 103.477 235.857 103.871 235.651 103.997C235.339 104.188 234.84 105.276 234.586 105.294C234.128 105.328 233.542 104.028 233.257 103.686C231.389 101.441 229.333 99.2207 227.168 97.2573C226.046 96.2396 224.867 95.3124 223.595 94.4908C222.69 93.9069 221.901 93.0883 221.008 92.5343C220.82 92.3713 220.606 92.2546 220.366 92.1849C219.901 91.9738 219.726 92.1558 219.842 92.7311C219.575 93.2937 219.604 94.233 219.507 94.8541ZM260.377 92.8665C259.923 92.405 259.349 92.036 258.953 91.5213C258.73 91.2309 258.583 90.7112 258.327 90.5234C257.882 90.1962 257.245 90.3471 256.728 89.9084C256.228 89.4844 255.789 88.9766 255.3 88.5367C254.242 87.5835 253.149 86.7073 252.111 85.7368C251.521 85.1855 250.902 84.4699 250.377 84.1058C250.238 84.0093 250.083 83.8656 249.935 83.7913C249.619 83.6326 249.462 83.7942 249.001 83.6461C248.696 83.5485 248.478 83.1633 248.233 82.981C247.652 82.5475 246.894 82.3758 246.334 81.9587C245.775 81.5416 245.505 80.8937 244.735 80.5458C243.803 80.1252 243.105 80.4576 242.431 79.6531C242.156 79.3253 242.081 78.9119 241.65 78.7051C241.13 78.4556 240.674 78.7204 240.177 78.4369C239.843 78.2456 239.615 77.8447 239.269 77.6355C238.651 77.2619 237.967 77.2225 237.388 76.7601C236.901 76.3704 237.171 76.4101 236.594 76.2457C236.34 76.1734 236.058 76.1423 235.786 76.0498C234.918 75.754 233.499 75.3919 232.984 74.5695C232.723 74.9497 232.634 75.0269 232.21 74.9088C231.987 74.7282 231.783 74.5294 231.597 74.3125C231.461 74.4845 231.315 74.4949 231.159 74.3433C230.242 74.0288 229.401 73.4884 228.498 73.1885C228.37 73.2574 228.242 73.3265 228.114 73.3954C227.936 73.4052 227.864 73.3185 227.898 73.1347C227.542 73.0699 227.133 72.914 226.805 72.7717C226.178 72.4986 225.484 71.8499 224.745 72.0821C223.51 72.4698 223.451 74.984 223.238 75.9804C222.712 78.436 222.184 80.8906 221.656 83.3457C221.442 84.3446 221.253 85.3511 220.971 86.3334C220.786 86.9752 220.327 87.9214 220.493 88.6038C220.696 89.4403 221.514 89.7128 222.198 90.0997C223.141 90.6329 224.052 91.2243 224.944 91.8384C228.731 94.4453 231.554 98.0304 234.239 101.708C234.736 100.987 236.069 99.974 236.899 99.6487C237.481 99.4212 238.004 99.6047 238.584 99.327C238.997 99.1288 239.339 98.7414 239.73 98.4919C242.114 96.9678 244.992 95.7081 247.756 95.1035C253.426 93.8623 258.977 95.7842 264.475 96.6962C263.359 95.1654 261.691 94.2005 260.377 92.8665ZM222.422 51.3274C221.451 48.1712 219.817 45.1155 217.492 42.7477C216.319 41.554 214.941 40.5107 213.396 39.847C212.053 39.27 210.454 38.7166 210.475 40.572C210.521 44.5999 211.453 48.582 211.567 52.6162C211.678 56.5695 211.014 59.7427 208.617 62.9283C210.136 63.2803 211.654 63.6375 213.167 64.012C214.317 64.2963 215.508 64.6154 216.595 64.8107C217.67 65.0034 218.659 65.129 219.721 65.4917C220.438 65.736 221.56 66.4829 222.335 66.3207C223.624 66.0514 223.319 61.4388 223.385 60.3303C223.571 57.2006 223.347 54.3396 222.422 51.3274ZM198.874 57.4045C197.113 55.2723 195.284 52.7847 192.323 52.3886C189.46 52.0058 188.404 55.4331 188.586 57.7439C188.648 58.5259 188.765 60.5564 189.334 61.1899C189.964 61.8907 191.081 61.3624 191.881 61.2544C195.335 60.7877 198.875 61.5666 202.338 61.5666C201.184 60.1788 200.023 58.7964 198.874 57.4045ZM184.703 65.9082C183.502 66.0799 182.543 66.2628 183.123 67.6273C184.284 70.3604 185.176 72.969 184.159 75.9484C183.382 78.2237 180.921 80.9859 178.462 81.4419C177.601 81.6018 176.304 81.3157 175.775 82.1891C175.303 82.9672 175.814 85.3001 175.87 86.164C176.074 89.3822 176.9 92.5752 178.987 95.1041C180.844 97.3541 183.11 99.115 185.811 96.9911C188.088 95.2012 189.433 91.9989 190.106 89.2623C190.466 87.8013 190.51 86.3437 190.578 84.8508C190.639 83.5303 190.891 82.6929 189.395 82.4193C188.994 82.3461 187.993 82.3689 187.991 81.7579C187.989 80.9369 189.075 81.2449 189.491 81.2034C191.093 81.0438 190.343 79.1838 190.193 77.9809C189.939 75.9328 189.527 73.9075 189.149 71.8799C188.827 70.1527 188.81 67.8895 188.11 66.2746C187.702 65.3318 185.505 65.7936 184.703 65.9082ZM181.753 71.9735C181.571 70.8602 181.474 69.4689 180.367 68.8536C179.151 68.1775 178.542 69.279 177.942 70.1792C176.35 72.5669 174.588 74.8014 174.327 77.7657C174.296 78.1192 174.144 78.829 174.485 79.0735C174.638 79.183 175.002 78.8949 175.237 78.9119C176.498 79.0024 177.41 79.3397 178.647 78.629C181.066 77.2383 182.193 74.6599 181.753 71.9735ZM172.241 78.6414C172.501 76.0495 173.701 73.7508 175.041 71.5625C175.701 70.4834 176.984 69.3038 177.44 68.164C177.684 67.5533 177.252 66.7972 176.364 67.059C175.921 67.1895 175.069 68.3604 174.773 68.7657C174.014 69.8071 173.384 70.9685 172.783 72.1057C172.141 73.3208 170.315 77.7804 172.241 78.6414ZM180.205 52.8302C180.065 50.3915 180.05 47.5911 178.468 45.5672C177.241 43.9979 174.996 43.3146 173.174 42.7079C170.719 41.8904 167.771 41.7643 165.204 42.0284C162.945 42.2612 161.24 43.7962 159.846 45.4842C158.428 47.2007 157.33 49.411 156.355 51.4084C156.111 51.9081 154.041 55.1145 155.441 55.0399C155.996 55.0102 156.479 53.9283 156.904 53.6088C157.237 53.3585 157.632 53.3896 157.93 53.1894C158.251 52.9748 158.181 52.7763 158.43 52.5113C160.139 50.6891 161.712 51.7385 163.557 52.6983C163.643 52.0625 163.492 50.8815 164.024 50.4169C164.721 49.8088 165.449 50.7721 165.949 51.2445C166.405 51.6748 166.966 52.4589 167.539 52.6917C168.283 52.9938 168.03 52.6726 168.677 52.4189C169.978 51.9079 170.979 53.4201 171.637 54.2996C171.883 54.6277 172.284 55.4558 172.724 55.5446C173.149 55.6301 173.205 55.3279 173.571 55.2162C174.608 54.9008 174.894 55.6385 175.225 56.5545C175.596 57.5846 175.912 58.5769 176.462 59.539C177.435 61.2414 177.853 61.8014 177.084 63.6813C178.208 63.8478 178.444 63.9814 179.001 62.9862C179.575 61.9604 179.724 61.1095 179.688 59.9305C179.612 57.4647 180.35 55.3349 180.205 52.8302ZM154.116 64.4973C152.939 66.618 152.192 69.5691 152.204 71.9853C152.211 73.1839 152.281 74.6582 152.841 75.7456C153.38 76.7889 154.506 77.3115 155.543 77.7559C158.044 78.8278 160.861 78.8154 163.49 78.3375C164.854 78.0892 166.182 78.2497 167.349 77.4313C168.228 76.8152 169.288 76.2169 169.545 75.0874C169.653 74.6147 169.486 74.2183 169.521 73.7546C169.478 73.5339 169.494 73.3187 169.569 73.1085C169.722 73.0203 169.877 72.9345 170.033 72.8509C170.155 72.4986 169.92 72.106 169.981 71.7382C170.053 71.294 170.423 70.9325 170.595 70.5298C171.071 69.4199 170.731 68.7989 169.841 68.045C169.628 67.8777 169.414 67.712 169.198 67.5478C169.004 67.2422 168.79 67.2411 168.556 67.5438C168.132 67.5496 168.145 67.68 167.699 67.5504C166.722 67.2664 165.902 66.2291 164.946 65.8647C164.574 65.723 164.019 65.8434 163.717 65.5821C163.447 65.3485 163.621 64.8588 163.384 64.6295C162.627 63.897 161.436 64.5915 160.736 63.5266C160.165 62.6578 160.286 61.4249 160.227 60.4383C158.473 60.7731 157.713 62.4507 156.272 63.2947C155.987 62.192 155.945 62.2249 154.845 61.9221C155.343 62.8424 154.537 63.7383 154.116 64.4973ZM152.773 52.7907C152.45 53.2061 152.204 54.2377 152.773 54.3373V52.7907ZM151.276 56.5427C148.598 56.5481 146.886 59.9273 146.104 62.0206C145.254 64.2971 144.358 67.3332 145.945 69.5504C146.553 70.4004 147.299 70.4785 148.278 70.3682C149.458 70.2354 150.062 70.0651 149.601 68.8072C148.736 66.4501 149.386 63.4534 150.919 61.4802C148.811 61.0738 150.147 59.1441 151.205 58.4219C152.441 57.5788 153.439 56.5381 151.276 56.5427ZM212.424 178.706C213.054 180.374 213.694 182.037 214.223 183.755C214.724 185.384 214.434 187.219 215.057 188.785C215.44 188.595 215.55 188.259 215.883 188.055C216.089 187.929 216.446 187.879 216.623 187.74C216.926 187.501 217.661 186.612 217.86 186.268C218.549 185.075 218.089 183.137 217.722 181.912C217.266 180.394 216.488 178.937 215.444 177.741C214.711 176.903 214.307 177.169 213.327 177.582C212.747 177.826 212.151 177.982 212.424 178.706ZM217.197 191.865C217.701 192.882 218.631 193.719 219.183 194.744C219.763 195.819 220.202 197.031 220.942 198.014C221.694 199.017 222.371 198.849 223.407 199.281C223.78 199.436 223.936 199.724 224.236 199.949C224.797 200.368 225.413 200.627 226.003 201.001C226.423 199.972 227.705 194.812 229.337 194.923C230.755 195.019 230.03 197.72 229.847 198.518C229.692 199.191 229.516 199.874 229.28 200.525C229.043 201.181 228.303 202.164 228.576 202.884C228.924 203.798 229.79 203.738 230.224 203.071C230.586 202.513 230.771 201.755 231.038 201.148C231.273 200.614 232.347 197.692 233.275 198.146C234.169 198.582 232.778 201.414 232.545 201.971C231.983 203.314 230.905 204.605 232.33 205.681C234.493 207.316 237.156 208.546 239.579 209.724C240.993 210.412 242.264 211.316 243.748 211.874C245.127 212.393 246.72 212.481 248.053 213.077C248.381 213.224 248.161 213.406 248.64 213.492C249.042 213.563 249.744 213.371 250.175 213.375C250.888 213.382 251.604 213.436 252.316 213.347C252.717 213.296 253.63 212.858 253.486 213.582C254.054 213.425 254.273 212.853 254.687 212.496C255.056 212.177 255.528 212.005 255.94 211.755C256.791 211.237 257.428 210.648 257.683 209.663C258.283 207.348 257.015 204.94 255.45 203.327C254.552 202.401 253.498 201.631 252.674 200.635C252.385 200.285 252.18 199.879 251.813 199.595C251.364 199.246 250.748 199.203 250.313 198.85C249.989 198.588 249.892 198.17 249.553 197.93C249.051 197.574 248.464 197.722 247.99 197.255C247.72 196.988 246.791 195.732 246.857 195.384C246.602 195.469 246.348 195.554 246.094 195.639C245.939 194.865 244.602 193.91 243.942 193.54C243.608 193.352 242.958 193.361 242.71 193.16C242.38 192.891 242.407 192.328 242.145 191.991C241.394 191.025 239.821 190.592 238.825 189.919C237.559 189.063 236.329 188.093 235.185 187.08C232.874 185.032 230.835 182.653 229.17 180.054C228.499 179.007 227.877 177.939 227.4 176.791C227.106 176.085 226.812 174.829 226.086 174.419C225.336 173.996 223.614 174.569 222.774 174.63C221.54 174.718 219.617 174.663 218.512 175.268C217.33 175.915 218.291 176.45 218.899 177.221C219.789 178.35 220.323 179.732 220.768 181.086C221.11 182.127 221.174 183.135 221.398 184.185C221.635 185.295 221.633 186.794 221.085 187.814C220.542 188.824 216.631 190.723 217.197 191.865ZM263.825 212.331C266.481 208.722 264.282 203.439 261.684 200.523C258.55 197.005 254.089 195.026 250.424 192.165C246.187 188.856 241.835 185.783 238.08 181.902C236.177 179.935 234.52 177.815 233.017 175.529C231.742 173.588 230.816 171.003 228.239 170.722C229.759 172.614 229.848 175.339 231.023 177.444C232.267 179.674 234.102 181.529 235.97 183.242C239.915 186.862 244.177 190.177 248.438 193.412C250.613 195.063 252.728 196.788 254.895 198.447C256.837 199.933 258.876 201.204 259.995 203.468C261.925 207.375 262.04 213.162 257.766 215.569C259.968 215.13 262.445 214.206 263.825 212.331ZM32.2689 49.5965C33.0546 48.0275 34.5273 47.4686 36.0059 46.8548C37.4532 46.2542 38.7759 45.5142 40.3811 45.322C41.0948 45.2365 43.1079 45.4488 43.2018 44.4164C43.2802 43.5563 41.1769 42.693 40.6921 42.0376C39.9735 41.0663 39.4852 39.4892 39.764 38.2624C40.0283 37.0989 41.1619 36.7314 42.2207 36.5205C45.5132 35.8652 49.0145 36.3471 52.3157 36.6164C51.9115 36.0524 51.342 35.5898 51.018 34.9143L50.4946 36.0003C50.1965 35.3792 49.8734 34.7697 49.5027 34.1881C49.252 34.4693 49.0009 34.7507 48.7504 35.0318C49.1672 33.5717 47.7652 33.5792 47.9128 32.3483C47.9702 31.8696 48.295 31.6599 48.3746 31.275C48.5314 30.5099 47.9396 30.0315 48.6132 29.322C49.3629 28.5319 50.5891 28.8453 51.4619 28.919C51.5714 28.9285 51.7303 29.1448 51.8718 29.1624C52.0681 29.1872 52.1811 28.9176 52.4238 28.932C53.0743 28.9703 53.6479 29.4747 54.2947 29.6279C57.2918 30.3383 60.2901 31.6051 63.167 32.7879C66.0955 33.992 68.9707 35.3939 71.524 37.2836C74.2567 39.306 76.2306 41.906 78.4132 44.4677C79.439 45.6715 80.5003 46.8274 81.2811 48.2144C81.6847 48.9311 82.0496 51.1822 82.7759 51.5095C83.5648 51.8649 85.5482 50.8599 86.355 50.6744C88.2539 50.2383 90.1442 50.0562 92.091 50.1438C93.6394 50.2129 95.2732 50.1717 96.8089 50.3607C97.7004 50.4705 99.9219 51.4576 100.065 52.5615C100.127 53.052 99.5645 53.4599 99.4382 53.9196C99.2471 54.615 99.5627 55.3516 99.3428 56.0484C98.8943 57.4691 96.8123 57.9919 95.5856 58.4392C92.1604 59.6888 88.6886 60.6575 85.228 61.7761C83.7242 62.2623 82.4387 63.0363 81.0768 63.8135C79.9472 64.4576 78.9164 65.102 80.0576 66.3115C81.1385 67.4574 81.0036 67.9197 80.6816 69.4983C80.3421 71.1641 80.2244 72.8483 79.7817 74.498C79.3413 76.1408 78.5181 77.7101 78.6783 79.4483C78.8389 81.1806 79.5572 82.9602 80.2288 84.548C80.9073 86.1519 81.6564 87.7368 82.3937 89.315C83.0757 90.7749 83.8139 92.2549 85.3917 92.878C88.4044 94.0674 92.253 93.8787 95.3925 93.4469C98.956 92.9566 102.637 92.1253 106.007 90.8564C109.248 89.6365 112.812 87.7653 115.491 85.5542C116.923 84.3734 118.474 83.4983 119.993 82.4415C121.533 81.3705 122.702 79.9262 124.051 78.6437C126.694 76.1304 129.949 74.3987 133.299 73.0169C137.065 71.4637 140.953 71.625 144.943 71.457C144.315 70.2253 143.507 69.048 143.21 67.6769C142.901 66.2487 143.125 64.6969 143.321 63.2702C143.701 60.4931 144.421 58.0489 146.177 55.8061C146.981 54.7803 147.919 53.9807 149.257 53.8318C150.067 53.7413 151.565 54.3627 152.15 53.6774C152.408 53.3752 152.348 52.7398 152.51 52.3676C152.654 52.0372 152.942 51.7048 153.099 51.3459C153.769 49.8117 154.605 48.4558 155.439 47.0003C155.771 46.4216 156.028 45.5672 156.481 45.0801C156.727 44.8151 157.044 44.6947 157.182 44.5008C157.44 44.1381 157.559 43.475 157.774 43.0657C158.141 42.3652 158.609 41.7141 159.15 41.136C160.013 40.2119 161.125 39.3965 162.308 38.9361C162.966 38.6803 163.448 38.6199 164.135 38.6573C164.336 38.6682 164.56 38.784 164.761 38.7688C165.242 38.7322 165.167 38.5599 165.553 38.4799C168.135 37.9432 171.598 38.6962 174.02 39.6206C176.571 40.5942 178.644 41.8781 180.194 44.1851C184.002 49.8511 183.115 57.1672 181.499 63.4079C182.477 63.1518 183.45 62.8488 184.436 62.6319C185.04 62.4988 185.865 62.5239 186.404 62.2056C187.605 61.4975 186.629 59.6805 186.621 58.5063C186.603 55.5232 188.013 50.8582 191.09 49.5982C194.295 48.2853 198.195 51.9707 200.176 54.0605C201.448 55.4011 202.603 56.846 203.82 58.235C204.67 59.2057 205.793 60.7535 207.283 60.4997C210.533 59.9466 209.542 53.7756 209.397 51.6898C209.169 48.3924 208.683 45.0423 208.68 41.7366C208.678 39.7271 209.027 37.0163 211.499 36.7806C214.902 36.4566 218.126 39.5457 220.111 41.9224C225.344 48.1896 226.5 56.4735 225.1 64.338C224.895 65.4911 224.24 66.9132 225.49 67.6291C227.132 68.5696 229.232 69.1391 230.997 69.8295C234.944 71.3729 238.599 73.4319 242.314 75.4443C245.993 77.4368 249.614 79.4146 252.933 81.9817C256.241 84.5408 259.517 87.2526 262.531 90.1539C264.033 91.5999 265.483 93.1087 266.85 94.6832C268.137 96.1644 269.18 97.8467 270.579 99.2311C271.531 100.174 273.282 101.438 273.492 102.876C273.661 104.036 271.699 104.841 270.814 105.377C270.207 105.745 269.787 105.734 269.743 106.389C269.689 107.207 270.552 108.518 270.86 109.297C271.643 111.286 272.668 112.934 274.014 114.589C276.995 118.255 280.599 121.364 284.019 124.62C287.197 127.647 290.31 130.625 292.64 134.38C293.21 135.3 294.631 137.19 293.281 138.051C292.932 138.274 291.86 138.45 291.504 138.21C291.063 137.914 291.287 137.467 290.766 137.169C290.896 138.169 286.347 136.216 285.993 136.034C285.037 135.546 284.172 134.972 283.195 134.534C282.622 134.277 282.552 133.919 282.108 133.632C281.871 133.479 281.868 133.685 281.551 133.589C281.265 133.503 280.594 133.47 280.38 133.195C280.375 133.187 280.142 132.522 280.34 132.66C279.565 132.121 279.107 132.936 279.572 133.701C280.947 135.962 282.686 137.625 283.225 140.341C283.421 141.328 283.755 143.16 283.152 144.06C283.13 144.092 282.927 143.997 282.902 144.032C282.879 144.065 282.657 144.372 282.566 144.46C282.033 144.969 282.067 145.196 281.177 145.174C280.782 145.165 279.995 145.115 279.634 144.937C279.362 144.803 279.229 144.473 279.02 144.355C278.809 144.236 278.834 144.174 278.635 144.105C278.594 144.09 278.516 144.437 278.439 144.422C278.015 144.343 277.832 144.09 277.472 143.886C276.434 143.3 275.416 142.655 274.427 142.064C273.432 141.47 272.689 140.641 271.698 139.95C270.645 139.217 269.783 138.654 268.973 137.636C268.413 136.931 267.744 136.675 267.367 136.328C266.921 135.916 266.151 134.325 265.431 134.136C265.103 134.05 264.841 134.34 264.661 134.221C264.459 134.088 264.679 133.832 264.578 133.681C264.388 133.401 264.365 133.354 264.043 133.097C263.63 132.768 263.124 132.679 262.777 132.25C262.393 131.773 262.34 131.238 261.866 130.791C260.728 129.715 259.714 128.582 258.507 127.539C258.973 130.133 259.434 132.709 259.073 135.347C258.723 137.904 257.636 139.049 255.502 140.347C255.032 140.633 254.539 141.048 254.035 141.251C253.728 141.374 253.266 141.301 253.038 141.391C252.264 141.697 252.527 142.324 252.421 143.03C252.256 144.125 251.248 144.968 250.598 145.821C250.05 146.538 249.063 148.171 248.148 148.418C247.321 148.642 246.541 147.677 245.852 147.266C244.814 146.646 243.683 146.202 242.588 145.696C240.45 144.707 238.384 143.527 236.269 142.481C235.303 142.003 234.328 141.809 233.306 141.5C232.078 141.13 231.03 140.421 229.852 139.938C227.735 139.068 225.706 138.03 223.601 137.117C219.245 135.228 214.494 133.929 210.618 131.094C208.864 129.812 206.607 129.675 204.878 128.429C203.077 127.129 204.182 125.142 204.953 123.548C207.06 119.192 208.318 114.668 211.218 110.699C212.726 108.638 214.118 106.507 215.432 104.315C216.595 102.375 216.572 100.178 216.863 97.9867C217.059 96.5222 217.242 95.0517 217.48 93.5935C217.632 92.6669 218.121 91.4994 217.529 90.6594C216.894 89.7569 215.385 89.3726 214.432 88.8965C213.247 88.3048 212.1 87.6682 210.87 87.1673C208.061 86.0229 205.101 85.2307 202.154 84.5316C201.275 84.323 197.513 82.8321 196.797 83.7054C197.677 84.2922 197.934 85.3577 198.328 86.2709C198.916 87.6316 199.522 88.9282 199.951 90.3543C200.836 93.3029 201.59 96.2984 202.312 99.2904C203.029 102.261 203.884 105.255 204.103 108.315C204.215 109.878 204.138 111.441 204.141 113.005C204.144 114.673 204.491 116.31 204.429 117.983C204.387 119.096 204.294 120.433 203.641 121.382C203.036 122.261 202.007 122.359 201.11 122.829C199.927 123.45 199.464 123.715 199.453 125.065C199.44 126.638 199.542 128.184 199.395 129.756C198.881 135.233 197.038 141.731 193.358 145.959C193.114 146.241 185.975 155.227 185.185 153.912C184.64 154.555 183.827 154.79 183.157 155.351C182.104 156.233 181.071 156.937 180.201 158.029C178.616 160.016 177.269 162.344 176.873 164.884C176.532 167.07 176.737 169.684 177.973 171.579C179.212 173.48 181.861 174.727 183.861 175.663C186.49 176.893 189.158 177.031 192.012 176.723C193.421 176.571 194.818 176.333 196.216 176.108C196.798 176.015 197.477 176.015 198.027 175.796C198.618 175.562 198.818 175.302 199.407 175.273C199.848 175.252 200.088 175.349 200.554 175.252C201.13 175.132 201.755 174.914 202.33 174.766C202.969 174.602 203.493 174.368 204.082 174.067C204.627 173.788 205.241 173.734 205.765 173.47C206.67 173.014 206.948 172.253 208.172 172.675C209.463 173.121 209.193 174.236 210.017 175C210.75 175.679 211.657 175.051 212.386 174.647C213.459 174.053 214.573 173.558 215.715 173.108C216.949 172.622 218.21 172.199 219.494 171.864C220.899 171.498 222.442 171.425 223.795 170.892C224.984 170.424 225.495 169.519 226.357 168.673C227.263 167.783 228.492 167.443 229.748 167.523C232.035 167.667 233.597 170.135 234.805 171.849C238.181 176.637 241.912 180.716 246.424 184.477C248.58 186.274 251.01 187.802 253.095 189.666C253.974 190.453 254.613 191.19 255.654 191.776C257.022 192.546 258.264 193.51 259.571 194.378C264.686 197.771 268.439 202.713 267.024 209.167C266.387 212.072 265.115 214.111 262.739 215.859C261.66 216.652 260.673 217.312 259.299 217.266C258.001 217.223 256.856 217.178 257.621 215.637C256.652 215.936 255.842 216.675 254.784 217.053C253.566 217.489 251.981 217.76 250.688 217.786C248.617 217.829 246.182 216.739 244.368 216.277C243.861 216.148 242.884 215.937 242.307 215.461C241.847 215.083 241.947 214.635 241.252 214.456C240.341 214.221 239.994 214.496 239.121 213.945C237.855 213.145 236.482 212.67 235.169 211.933C233.4 210.939 231.7 209.82 229.947 208.797C229.713 209.44 228.34 213.259 227.492 211.418C226.754 209.815 229.15 208.442 227.694 206.82C226.304 205.272 226.013 206.899 224.666 207.617C222.794 208.615 223.075 206.752 223.619 205.648C223.837 205.207 224.294 204.542 224.159 204.027C223.899 203.033 223.094 203.616 222.46 203.717C221.463 203.877 220.656 203.603 219.907 202.935C219.282 202.378 218.249 201.897 217.872 201.163C217.683 200.795 217.65 200.29 217.493 199.9C217.286 199.386 217.138 199.51 217.062 198.872C217.135 198.542 217.163 198.208 217.149 197.87C216.985 197.837 216.821 197.804 216.658 197.771C216.653 197.747 216.642 197.103 216.708 197.199C216.555 196.978 216.227 196.884 216.038 196.577C215.864 196.294 216.026 195.752 215.956 195.418C215.815 194.742 215.429 194.197 215.114 193.594C214.448 196.407 214.641 199.34 214.005 202.154C213.482 204.465 212.291 206.536 210.903 208.431C210.259 209.309 209.407 209.932 208.733 210.766C208.163 211.472 207.878 212.094 207.036 212.511C206.477 212.789 205.847 212.931 205.27 213.171C204.901 213.324 204.061 214.029 203.715 214.017C204.016 214.028 203.148 214.055 203.349 214.02C203.334 214.023 203.452 213.643 203.348 213.649C202.089 214.839 200.774 214.842 199.318 215.581C198.651 215.919 198.401 215.898 197.69 216.024C196.768 216.186 195.992 216.711 195.11 216.767C193.752 216.853 192.222 217.035 190.805 216.985C190.42 216.971 189.696 216.723 189.393 217.06C189.194 217.281 189.572 218.887 189.596 219.255C189.845 223.11 189.329 227.157 187.699 230.684C186.348 233.609 184.907 237.069 182.517 239.303C179.868 241.779 176.157 243.523 172.614 244.191C168.69 244.93 164.802 244.377 160.866 244.147C156.873 243.914 153.179 243.348 149.329 242.193C145.748 241.119 142.356 239.719 138.93 238.242C136.599 237.238 133.644 235.793 134.866 232.745C135.161 232.007 136.307 229.958 137.32 230.969C138.217 231.864 136.718 233.557 136.04 234.125C141.153 237.684 147.359 238.862 153.342 240.122C156.629 240.815 159.866 240.786 163.209 240.795C166.041 240.803 168.873 240.885 171.687 240.49C174.233 240.133 177.197 239.463 179.092 237.605C181.073 235.661 182.949 233.341 184.302 230.916C185.786 228.255 186.146 225.378 186.266 222.377C186.329 220.797 186.4 219.198 186.235 217.622C186.114 216.478 185.529 216.342 185.239 215.438C184.568 216.376 184.126 216.029 183.303 215.481C182.771 216.965 183.007 218.506 183.099 220.036C183.188 221.526 182.989 223.037 182.806 224.517C182.496 227.033 181.288 229.657 179.756 231.682C179.064 232.598 178.025 232.985 177.086 233.617C175.889 234.424 174.647 235.174 173.397 235.898C171.044 237.261 168.475 238.426 165.822 238.631C164.893 238.703 164.217 239.186 163.109 239.119C162.452 239.079 161.79 238.854 161.134 238.872C160.476 238.89 159.912 239.1 159.236 239.051C156.43 238.848 153.537 237.93 150.758 237.426C147.75 236.881 144.723 236.293 141.851 235.216C140.607 234.749 139.579 234.147 138.884 232.974C138.388 232.136 138.518 230.633 137.594 230.132C138.199 229.352 137.974 229.215 137.451 228.518C137.207 228.193 136.418 227.332 137.375 227.348C137.084 226.092 137.57 224.877 137.777 223.649C137.867 223.118 137.842 222.315 138.171 221.858C138.363 221.592 138.682 221.586 138.854 221.39C139.031 221.386 139.17 221.312 139.269 221.169C139.281 220.96 139.183 220.832 138.975 220.786C139.023 220.371 138.715 220.52 139.023 219.87C139.443 218.984 140.239 218.212 140.994 217.61C141.637 217.096 142.11 216.184 142.852 215.911C143.818 215.554 144.83 215.167 145.845 214.836C148.146 214.085 150.426 213.798 152.839 214.214C153.945 214.405 155.034 214.638 156.101 214.98C156.726 215.179 157.682 215.718 158.235 215.137C158.425 214.938 158.822 213.244 158.797 213.061C158.698 212.327 157.195 212.03 156.647 211.774C155.809 211.382 154.258 210.963 153.726 210.186C153.502 209.86 153.755 208.476 153.718 208.451C153.366 208.215 151.891 211.576 151.489 211.805C150.908 212.137 149.276 211.699 148.675 211.633C146.883 211.436 145.062 211.325 143.307 210.898C139.941 210.08 136.636 208.815 133.361 207.696C127.13 205.569 121.115 202.765 115.513 199.283C112.897 197.656 110.298 195.578 108.308 193.216C107.41 192.151 106.776 190.887 105.859 189.843C104.801 188.638 105.135 187.551 104.661 186.041C103.701 182.986 102.535 180.211 102.013 177.01C101.475 173.714 101.253 170.348 101.402 167.011C101.697 160.415 102.017 154.162 104.921 148.101C107.583 142.548 111.032 137.121 115.132 132.523C116.085 131.454 117.092 130.436 118.263 129.605C119.523 128.71 120.911 128.008 122.052 126.95C122.988 126.083 123.771 125.061 124.751 124.237C125.953 123.226 127.383 122.78 128.791 122.134C130.141 121.516 131.372 120.712 132.752 120.149C133.592 119.806 134.443 119.49 135.319 119.251C135.966 119.075 136.825 119.064 137.417 118.728C138.354 118.197 139.312 116.652 139.923 115.78C140.816 114.507 141.299 113.025 141.724 111.545C142.24 109.745 142.72 107.933 143.225 106.129C143.398 105.512 144.043 103.367 142.757 103.887C142.38 104.04 142.027 104.717 141.737 105.006C141.188 105.555 140.509 106.045 139.827 106.419C138.728 107.021 137.583 107.745 136.528 108.16C135.599 108.526 134.643 109.243 133.777 109.759C133.646 109.837 133.607 110.107 133.438 110.182C133.038 110.359 132.772 109.871 132.395 109.99C131.88 110.154 131.795 110.638 131.509 111.023C131.095 111.582 130.88 111.627 130.247 111.914C129.543 112.234 129.026 112.866 128.339 113.18C127.505 113.56 125.669 113.265 125.544 114.577C124.248 113.732 122.622 115.373 121.813 116.224C120.999 114.976 119.556 116.437 118.324 116.023C119.006 116.969 118.882 116.875 117.806 116.992C116.897 117.091 116.354 117.693 115.456 118.043C114.834 118.285 114.147 118.693 113.501 118.863C112.89 119.025 112.427 118.663 111.895 118.753C111.528 118.815 111.179 119.132 110.83 119.219C110.388 119.329 109.758 119.462 109.258 119.58C108.649 119.725 108.044 119.592 107.437 119.707C106.729 119.841 106.118 120.262 105.399 120.398C104.597 120.551 103.764 120.449 102.967 120.643C102.241 120.82 101.799 121.023 101.047 121.03C99.9248 121.041 98.6723 121.19 97.5644 121.063C96.9743 120.996 96.6475 120.697 95.9796 120.989C95.5343 121.184 95.2674 121.785 94.6604 121.51C95.3011 121.253 94.7387 120.255 94.0323 121.02C93.8651 120.591 93.757 120.352 93.2924 120.211C93.3157 120.63 93.3843 121.052 92.8482 121.14C92.8073 120.848 92.7658 120.556 92.7248 120.264C91.5592 121.149 91.2833 121.462 90.1831 120.381C90.2125 120.735 90.3621 121.135 90.0018 121.386C89.7712 121.003 89.5403 120.621 89.3098 120.238C88.9201 121.473 87.0598 121.047 86.1581 120.828C85.8085 120.743 84.8423 120.609 84.6143 120.323C84.4561 120.124 84.4754 119.969 84.4169 119.847C84.365 119.739 84.9576 119.474 84.4532 119.319C84.0733 119.201 83.7773 120.033 83.3311 120C82.9333 119.97 82.7725 119.298 82.4863 119.162C82.4589 119.149 82.2646 119.433 82.13 119.371C81.921 119.274 81.8017 119.02 81.5708 118.929C81.0704 118.734 80.4236 118.783 79.8636 118.551C79.1531 118.257 78.4371 118.117 77.7119 117.875C76.7924 117.569 76.3753 116.966 75.629 116.473C75.4541 116.357 75.2719 116.425 75.1001 116.343C74.8687 116.233 74.626 115.975 74.3504 115.853C73.4863 115.47 72.7481 115.21 71.9284 114.682C71.1974 114.212 70.2323 113.864 69.5815 113.299C69.0402 112.829 68.7479 112.143 68.2031 111.664C67.4209 110.977 65.3997 110.116 65.7274 108.774C64.4191 108.973 64.0989 108.128 63.6187 107.196C63.1618 106.309 62.2256 106.043 61.6134 105.234C61.3488 104.884 60.9228 104.399 60.7766 104C60.6896 103.763 60.9078 103.515 60.849 103.353C60.5775 102.608 59.5303 102.282 59.0455 101.61C58.4289 100.755 58.2309 99.6735 57.7164 98.7949C57.6152 98.6221 57.3659 98.5196 57.2693 98.3352C57.2074 98.2168 57.3365 97.9233 57.2613 97.8069C57.0817 97.531 56.7998 97.4356 56.6196 97.1798C56.1835 96.5605 56.104 95.6802 55.712 94.9782C55.6154 94.8054 55.2793 94.3223 55.237 94.2195C55.0952 93.8738 55.1381 93.6465 55.0652 93.262C55.0433 93.1462 54.8193 92.4767 54.7735 92.3811C54.6297 92.0824 54.4904 92.0383 54.2705 91.7105C53.72 90.8898 53.3784 89.6008 53.3331 88.6047C53.3138 88.1821 53.4548 87.7451 53.3014 87.3419C53.1691 86.9936 52.7616 86.7784 52.6079 86.4135C52.205 85.4562 52.2707 84.1027 52.1597 83.0786C52.0392 81.9624 51.6815 80.8623 51.5827 79.7545C51.5348 79.2181 51.787 78.7431 51.7686 78.2382C51.7472 77.6595 51.4463 77.5514 51.3305 77.0701C51.1982 76.5205 51.3919 75.8873 51.2737 75.298C51.1636 74.7498 51.0036 74.2422 50.958 73.68C50.8396 72.2152 51.0068 70.683 51.0705 69.2177C51.0953 68.6491 51.1713 68.056 51.0206 67.4991C50.8992 67.0512 50.4041 66.5503 50.4202 66.0643C50.4709 64.563 51.674 65.8624 52.3658 65.7593C53.1697 65.6398 53.3179 63.8388 53.5297 63.1558C54.0474 61.4871 54.5654 59.8187 55.0833 58.1503C52.6149 57.5088 50.0484 57.6937 47.5283 57.5206C45.052 57.3507 42.6343 56.8143 40.2332 56.2105C38.2061 55.7007 35.9881 55.4051 34.1664 54.3166C32.6367 53.4029 31.3751 51.3807 32.2689 49.5965Z" fill="#030047"/>
<path fill-rule="evenodd" clip-rule="evenodd" d="M271.969 81.8969C270.981 81.3846 271.23 80.6767 270.505 80.019C266.447 76.3386 261.685 73.1251 256.912 70.4716C251.883 67.6758 246.241 66.4919 241.101 64.0146C240.41 63.6814 239.512 63.1604 239.77 62.2321C240.071 61.1473 241.106 61.6465 241.844 61.9023C244.302 62.7556 246.919 63.0767 249.412 63.8262C254.734 65.4259 259.718 68.1846 264.227 71.4133C266.85 73.2914 269.363 75.368 271.603 77.7005C272.428 78.559 273.528 79.5606 273.742 80.7976C274.008 82.3283 273.101 82.4845 271.969 81.8969Z" fill="#030047"/>
<path fill-rule="evenodd" clip-rule="evenodd" d="M256.598 178.126C256.622 176.773 258.098 177.265 258.857 177.446C261.944 178.186 264.704 178.752 267.437 180.465C272.507 183.643 276.349 188.472 278.835 193.815C279.166 194.526 280.499 196.78 279.431 197.451C278.726 197.893 278.299 196.605 278.036 196.126C276.697 193.692 274.905 191.537 273.103 189.422C269.1 184.725 264.29 181.745 258.534 179.568C257.828 179.301 256.58 179.109 256.598 178.126Z" fill="#030047"/>
<path fill-rule="evenodd" clip-rule="evenodd" d="M85.9633 144.9C87.0313 142.756 88.7581 140.11 91.1475 139.227C92.4696 138.738 93.2519 139.547 92.8594 140.898C92.5474 141.973 91.5058 142.498 90.7278 143.21C88.7265 145.044 87.4937 147.782 86.7629 150.324C85.9903 153.011 85.836 155.928 85.8498 158.71C85.8571 160.179 86.2499 161.456 86.4632 162.885C86.5469 163.447 86.6898 164.686 86.0427 165.037C84.6085 165.815 83.9459 161.754 83.7996 160.973C83.2599 158.093 83.312 155.441 83.7665 152.566C84.1821 149.936 84.7654 147.305 85.9633 144.9Z" fill="#030047"/>
<path fill-rule="evenodd" clip-rule="evenodd" d="M90.0659 41.8618C89.4824 41.0766 89.9082 39.9773 89.7344 39.0821C89.5525 38.1437 89.0098 37.1945 88.551 36.3736C87.5592 34.6015 86.453 32.8613 85.2745 31.2084C84.0574 29.5015 82.5729 28.0471 81.2794 26.4072C80.8418 25.8524 80.0667 25.0594 80.2557 24.3917C80.5617 23.3106 81.2283 23.8375 81.7624 24.2906C84.6817 26.768 87.2523 29.8227 89.329 33.0311C90.3144 34.5538 91.2456 36.2214 91.5717 38.0277C91.7401 38.9606 91.7415 39.934 91.4643 40.8473C91.2902 41.4214 90.767 42.8053 90.0659 41.8618Z" fill="#030047"/>
<path fill-rule="evenodd" clip-rule="evenodd" d="M269.974 174.013C268.511 173.878 267.04 173.829 265.573 173.754C264.488 173.699 263.267 173.765 262.271 173.244C261.268 172.719 261.704 171.933 262.538 171.817C263.017 171.749 263.825 172.072 264.339 172.095C264.895 172.118 265.454 172.101 266.01 172.103C267.637 172.109 269.39 172.097 270.958 172.637C271.47 172.813 272.246 173.085 272.457 173.669C272.907 174.919 270.652 174.075 269.974 174.013Z" fill="#030047"/>
<path fill-rule="evenodd" clip-rule="evenodd" d="M257.164 59.6563C255.04 59.4021 252.987 58.7668 250.893 58.3618C248.904 57.977 248.565 56.4112 250.921 56.4815C251.712 56.5051 259.338 57.949 257.164 59.6563Z" fill="#030047"/>
<path fill-rule="evenodd" clip-rule="evenodd" d="M81.6191 138.182C83.0463 137.825 82.3081 139.406 81.8663 139.894C81.0496 140.797 80.6033 141.474 80.3606 142.678C80.2189 143.38 80.3517 144.963 79.7554 145.499C79.1681 146.027 79.1275 145.676 79.0232 145.025C78.7292 143.188 79.3166 138.758 81.6191 138.182Z" fill="#030047"/>
<path fill-rule="evenodd" clip-rule="evenodd" d="M97.2879 38.2016C96.8836 37.7739 97.3171 35.914 97.2693 35.3689C97.2111 34.7084 97.0545 34.1495 96.8572 33.5297C96.7613 33.2292 96.279 32.1684 96.5389 31.8391C96.8985 31.3825 97.4966 32.154 97.6861 32.4577C98.3016 33.4461 98.4452 35.094 98.3429 36.207C98.3061 36.6099 98.062 39.0198 97.2879 38.2016Z" fill="#030047"/>
<path fill-rule="evenodd" clip-rule="evenodd" d="M181.324 195.043C181.257 193.989 180.241 193.259 180.238 192.139C180.234 190.88 181.083 190.335 182.14 191.153C182.777 191.646 183.273 192.848 184.135 193.006C185.864 193.322 186.543 190.222 188.246 190.581C189.72 190.891 188.945 193.419 188.501 194.272C188.029 195.176 187.173 195.81 187.451 196.922C187.783 198.242 188.918 199.003 188.476 200.511C187.656 203.311 185.874 200.693 184.803 199.813C184.039 199.185 183.578 199.297 182.836 199.912C181.821 200.754 181.045 201.327 179.813 201.894C178.727 202.395 177.679 202.744 177.645 201.064C177.618 199.743 178.618 198.429 179.496 197.532C180.224 196.788 181.399 196.215 181.324 195.043Z" fill="#030047"/>
<path fill-rule="evenodd" clip-rule="evenodd" d="M200.357 190.865C201.628 189.512 203.233 192.962 204.26 193.343C205.925 193.962 206.308 190.646 207.841 190.751C209.034 190.832 208.94 192.538 208.68 193.316C208.4 194.154 207.564 194.838 207.423 195.697C207.208 197.012 209.702 199.642 207.962 200.912C206.476 201.997 205.923 198.332 204.065 199.827C203.153 200.561 200.602 203.293 199.338 201.934C197.844 200.327 201.397 197.583 202.046 196.361C202.923 194.707 198.495 192.846 200.357 190.865Z" fill="#030047"/>
<path fill-rule="evenodd" clip-rule="evenodd" d="M169.569 143.883C169.933 143.723 170.522 143.988 170.917 143.971C171.34 143.953 171.781 143.761 172.199 143.69C173.106 143.535 174.702 143.759 175.346 142.952C176.003 142.128 175.504 140.475 175.785 139.473C175.937 138.928 176.114 138.256 176.849 138.499C177.702 138.781 177.682 140.344 177.784 141.03C177.934 142.042 178.054 142.814 179.074 143.174C179.828 143.44 180.622 143.306 181.232 143.924C181.679 144.378 181.98 145.205 181.631 145.797C181.105 146.687 179.967 146.226 179.178 146.507C177.974 146.936 178.26 148.899 178.014 150.026C177.856 150.75 177.508 152.777 176.467 152.744C175.046 152.7 175.598 149.852 175.677 149.02C175.756 148.177 175.946 147.461 175.003 147.199C174.206 146.978 173.093 147.389 172.27 147.384C171.231 147.377 170.006 147.117 169.379 146.187C169.021 145.655 168.794 144.224 169.569 143.883Z" fill="#030047"/>
<path fill-rule="evenodd" clip-rule="evenodd" d="M117.366 178.941C115.107 179.136 116.476 181.914 114.977 183.018C113.547 184.071 113.355 181.163 113.355 180.333C113.356 178.322 110.906 179.066 109.413 178.733C108.14 178.449 106.75 177.129 108.271 176.005C109.368 175.194 111.188 175.57 112.462 175.356C114.188 175.064 113.675 173.914 113.713 172.588C113.727 172.102 113.895 170.369 114.524 170.233C115.676 169.983 115.745 173.21 115.822 173.824C116.151 176.423 117.939 174.839 119.36 176.142C121.217 177.845 118.712 178.825 117.366 178.941Z" fill="#030047"/>
<path fill-rule="evenodd" clip-rule="evenodd" d="M224.789 130.494C228.318 133.38 232.325 132.967 235.554 129.86C236.92 128.546 237.745 127.222 237.623 125.299C237.513 123.568 237.004 121.656 235.616 120.488C234.447 119.503 232.242 119.15 230.762 119.012C228.687 118.819 226.83 119.946 225.395 121.355C224.145 122.582 222.685 124.145 222.492 125.966C222.289 127.882 223.383 129.344 224.789 130.494ZM224.252 119.008C227.417 115.966 233.031 116.271 236.299 119.045C239.967 122.159 240.594 128.009 237.068 131.42C233.353 135.016 228.45 134.628 224.517 131.646C222.408 130.046 221.263 127.994 220.969 125.36C220.692 122.871 222.521 120.671 224.252 119.008Z" fill="#030047"/>
<path fill-rule="evenodd" clip-rule="evenodd" d="M163.046 66.6459C163.401 67.7978 163.155 69.0252 163.092 70.1988C164.096 69.5724 164.72 68.4551 165.798 67.9362C166.315 69.3607 163.74 73.4352 162.119 72.0996C160.637 70.8774 161.731 67.4669 163.046 66.6459Z" fill="#030047"/>
<path fill-rule="evenodd" clip-rule="evenodd" d="M157.781 73.6708C158.58 73.9679 159.322 73.8856 160.11 74.0377C160.63 74.1379 160.697 73.8431 160.764 74.4369C160.908 75.7043 158.859 76.1946 157.936 76.1767C156.81 76.1548 155.576 75.399 155.684 74.1686C155.797 72.8865 156.913 73.3478 157.781 73.6708Z" fill="#030047"/>
<path fill-rule="evenodd" clip-rule="evenodd" d="M157.127 68.3444C157.489 68.016 158.324 66.7756 158.937 66.9879C159.406 67.1504 159.075 67.7104 158.937 67.9907C158.421 69.0419 157.409 69.9362 156.6 70.7793C157.199 70.9916 158.353 71.1282 158.048 72.0481C157.768 72.8932 156.498 72.7633 155.89 72.4077C153.806 71.1884 156.084 69.289 157.127 68.3444Z" fill="#030047"/>
<path fill-rule="evenodd" clip-rule="evenodd" d="M155.023 66.3491C154.88 66.9295 154.804 67.4774 155.118 68.0215L156.854 64.9154C158.25 65.4872 155.801 69.9625 154.375 69.467C153.389 69.1245 153.863 67.0211 154.019 66.3594C154.102 66.0051 154.3 64.8786 154.792 64.7642C155.76 64.5393 155.129 65.9211 155.023 66.3491Z" fill="#030047"/>
<path fill-rule="evenodd" clip-rule="evenodd" d="M226.618 129.002C227.423 128.409 228.757 129.796 229.608 129.801C231.328 129.81 230.391 127.797 231.468 127.144C232.029 126.804 234.379 127.147 234.008 125.738C233.785 124.891 232.911 125.502 232.433 124.985C231.832 124.335 232.688 123.818 233.221 123.551C232.987 123.24 231.641 123.103 231.302 123.319C230.718 123.69 230.752 124.806 230.216 125.381C229.521 124.495 229.898 123.382 229.158 122.587C228.87 122.277 228.029 122.045 228.356 121.494C228.546 121.174 229.376 121.28 229.661 121.025C229.909 120.803 229.896 120.087 230.297 120.028C230.951 119.93 230.935 120.928 231.132 121.216C231.723 122.082 234.32 121.783 233.244 123.54C233.961 123.182 235.917 122.9 235.538 124.147C235.44 124.466 235.071 124.661 234.979 125.024C234.899 125.339 235.074 125.788 235.091 126.104C235.122 126.704 235.17 127.405 234.726 127.887C234.115 128.55 233.298 128.068 232.643 128.356C231.75 128.748 232.072 129.565 231.601 130.278C230.985 131.212 230.037 130.925 229.164 130.643C228.123 130.306 227.958 130.275 227.197 131.141C226.848 130.691 225.894 129.534 226.618 129.002Z" fill="#030047"/>
<path fill-rule="evenodd" clip-rule="evenodd" d="M225.218 125.355C226.058 125.2 225.727 122.703 226.749 123.788C227.132 124.195 226.74 124.988 227.168 125.424C227.455 125.717 227.819 125.544 228.106 125.736C228.364 125.909 228.43 126.239 228.582 126.491C228.042 126.734 227.624 126.765 227.047 126.659C227.047 127.093 227.336 128.37 226.595 128.276C225.905 128.19 226.1 126.908 225.749 126.51C225.392 126.105 223.956 126.293 223.822 125.724C223.657 125.019 224.851 125.423 225.218 125.355Z" fill="#030047"/>
</svg>
