<svg width="488" height="366" viewBox="0 0 488 366" fill="none" xmlns="http://www.w3.org/2000/svg">
<path fill-rule="evenodd" clip-rule="evenodd" d="M144.519 200.668C146.781 217.63 149.042 234.591 151.304 251.553L153.13 265.251C153.361 266.979 153.143 270.388 154.021 271.936C154.331 272.482 155.147 272.741 155.746 273.062C157.81 274.17 159.874 275.278 161.937 276.386C179.394 285.759 196.85 295.131 214.306 304.503C231.059 313.497 247.812 322.492 264.565 331.486C266.298 332.417 269.102 334.845 270.974 334.205C272.753 333.597 274.571 332.097 276.186 331.151C279.287 329.334 282.387 327.517 285.487 325.7C304.248 314.706 323.007 303.711 341.768 292.717C349.508 288.181 357.248 283.645 364.988 279.109C367.106 277.868 369.224 276.627 371.342 275.385C372.449 274.736 372.593 274.759 373.029 273.657C374.659 269.538 375.414 264.82 376.567 260.546C377.838 255.836 379.109 251.126 380.38 246.416C380.947 244.315 380.681 244.044 379.756 242.015C377.927 237.999 376.098 233.984 374.269 229.969C370.21 221.058 366.15 212.146 362.09 203.234C360.448 199.63 356.494 197.095 353.647 194.444L309.442 153.288C308.319 152.243 307.197 151.198 306.074 150.152C305.889 156.435 304.647 163.19 306.468 169.259C309.457 179.22 312.445 189.18 315.433 199.141C316.877 203.956 318.321 208.77 319.766 213.584C320.034 214.479 321.668 218.026 321.231 218.812C320.989 219.249 318.926 219.69 318.479 219.86C316.559 220.59 314.639 221.321 312.718 222.051C307.368 224.087 302.018 226.122 296.668 228.157C291.856 229.988 287.045 231.818 282.233 233.649C280.601 234.27 278.685 235.419 276.961 235.323C275.42 235.238 273.667 234.475 272.175 234.091C269.553 233.415 266.93 232.74 264.307 232.064C259.156 230.737 254.004 229.41 248.852 228.083C243.056 226.59 238.161 222.205 233.204 218.96C224.684 213.381 216.165 207.802 207.645 202.224C205.694 200.947 205.687 200.218 204.91 197.887C203.163 192.646 201.416 187.406 199.67 182.166C198.737 179.368 197.59 176.558 196.886 173.693C195.724 168.966 195.035 164.072 194.114 159.292C193.837 157.85 193.559 156.408 193.282 154.966C189.714 156.413 186.146 157.862 182.577 159.31C182.06 159.52 179.54 160.145 179.316 160.659C179.174 160.984 179.924 162.459 180.031 162.776C182.99 171.539 185.948 180.301 188.907 189.063C189.838 191.82 190.768 194.575 191.699 197.332C189.475 193.837 187.251 190.342 185.027 186.848C183.28 192.725 181.532 198.603 179.785 204.48C175.655 199.715 171.524 194.949 167.394 190.183C165.964 194.949 164.535 199.715 163.105 204.48C158.657 198.603 154.209 192.725 149.761 186.848C149.233 189.915 148.704 192.982 148.175 196.049C148.015 196.975 148.047 199.631 147.431 200.364C146.923 200.967 145.462 200.668 144.519 200.668Z" fill="#FFCC3E"/>
<path fill-rule="evenodd" clip-rule="evenodd" d="M426.136 237.333C425.886 245.317 426.059 255.682 421.69 262.702C420.985 263.835 418.596 267.364 418.329 264.259C418.067 261.211 418.817 258.193 418.074 255.109C417.677 253.459 416.34 249.856 414.055 251.346C412.891 252.106 412.584 253.981 412.128 255.165C411.454 256.916 410.699 258.64 409.99 260.378C407.512 266.445 404.944 273.685 399.435 277.7C400.156 272.469 402.121 266.882 400.8 261.594C400.35 259.792 398.986 256.5 396.638 257.556C394.35 258.585 392.867 263.177 391.787 265.221C388.513 271.42 385.164 277.502 381.478 283.469C379.623 286.47 377.621 289.213 375.195 291.78C373.678 293.386 371.786 296.1 369.395 296.34C369.395 291.763 370.901 287.342 372.276 283.032C373.755 278.398 375.103 273.724 376.555 269.082C377.814 265.054 378.847 261.058 379.686 256.928C380.033 255.22 380.308 253.451 381.763 252.348C383.072 251.357 385.139 250.885 386.599 250.156C390.43 248.242 394.371 246.177 397.93 243.797C399.392 242.82 400.65 241.558 402.18 240.682C403.924 239.683 405.552 238.843 407.165 237.627C414.126 232.376 420.401 225.918 424.629 218.23C425.315 221.319 426.224 224.337 426.325 227.521C426.427 230.785 426.239 234.07 426.136 237.333ZM368.849 274.032C367.736 272.152 366.04 272.922 364.545 273.829C362.226 275.235 359.901 276.631 357.57 278.02C352.827 280.846 348.172 283.82 343.537 286.82C334.104 292.926 324.341 297.924 314.396 303.093C304.784 308.088 295.551 314.032 286.545 320.04C284.381 321.484 282.231 322.962 280.153 324.528C278.308 325.918 276.833 327.87 274.891 329.108C272.868 330.397 271.478 329.351 269.544 328.401C267.125 327.212 264.604 326.216 262.131 325.144C252.152 320.818 242.145 316.328 232.438 311.417C222.789 306.537 213.647 300.914 204.403 295.329C200 292.669 195.672 289.841 191.329 287.083C186.707 284.149 181.922 281.951 177.074 279.456C174.929 278.352 173.029 276.853 170.826 275.85C168.51 274.795 166.063 274.038 163.989 272.517C163.059 271.834 162.275 271.019 161.212 270.536C160.34 270.14 159.349 270.073 158.488 269.653C156.735 268.797 156.233 267.06 155.894 265.253C153.711 253.655 152.55 241.736 151.285 230.008C150.574 223.414 149.78 216.845 148.798 210.285C148.355 207.327 149.246 205.036 149.714 202.159C150.26 198.799 150.476 195.368 150.842 191.985C152.569 195.184 154.062 198.542 156.26 201.462C157.88 203.614 160.647 206.665 163.629 206.593C168.265 206.481 168.053 198.53 168.24 195.374C170.352 197.258 170.992 200.329 172.745 202.518C174.345 204.517 176.523 206.997 178.981 207.892C184.155 209.777 183.657 200.172 183.373 197.448C183.23 196.081 182.458 193.92 184.289 194.543C185.974 195.116 187.615 197.495 189.032 198.586C191.481 200.472 194.167 202.039 196.679 203.84C199.797 206.074 203.16 207.688 206.338 209.769C208.326 211.071 210.495 211.363 212.661 212.32C215.836 213.722 218.641 215.812 221.663 217.494C227.647 220.822 234.285 223.806 240.831 225.812C242.949 226.461 245.771 228.291 247.378 226.411C248.367 225.254 249.017 223.486 249.857 222.189C250.919 220.547 252.047 218.948 253.218 217.381C257.383 211.815 262.004 206.558 267.136 201.863C273.107 196.401 279.636 191.486 286.619 187.392C289.62 185.633 302.148 177.749 304.902 183.298C302.639 183.157 300.678 183.985 298.742 185.021C298.27 185.274 295.834 187.014 296.404 185.481C295.697 185.613 295.076 186.536 294.541 186.946C293.615 187.655 292.21 188.474 291.138 189.061C290.078 189.641 288.768 189.783 287.802 190.486C287.45 190.743 287.236 191.16 286.899 191.438L285.935 191.445C285.79 191.98 285.646 192.513 285.502 193.048C284.956 191.3 284.179 193.573 283.268 194.311C282.72 194.755 281.854 195.212 281.209 195.498C280.727 195.712 280.653 195.214 280.185 195.593C279.769 195.929 279.504 196.669 279.057 197.09C278.509 197.606 277.807 198.007 277.195 198.447C276.024 199.29 274.785 199.953 273.598 200.753C272.002 201.829 271.164 203.679 269.614 204.804C268.88 205.337 267.74 205.4 267.342 205.741C266.346 206.598 266.674 207.896 264.815 207.953C264.985 208.224 265.086 208.517 265.121 208.834C264.678 208.758 264.285 208.574 263.94 208.283C264.017 210.137 262.194 210.799 261.102 211.94C260.472 212.598 259.687 213.523 259.243 214.315C259.169 214.447 259.028 215.504 258.997 215.518C258.828 215.599 257.801 214.697 257.899 214.772C257.612 216.485 255.955 218.104 255.229 219.69C254.847 220.525 254.458 221.868 253.705 222.456C253.5 222.615 252.87 222.449 252.349 223.004C251.966 223.411 251.526 224.163 251.37 224.703C251.267 225.064 251.391 225.997 251.243 226.213C250.97 226.609 250.546 226.212 250.119 226.504C249.33 227.045 249.31 227.889 248.155 228C248.951 229.934 253.756 230.53 255.503 231.08C260.443 232.635 265.625 234.187 270.242 236.568C271.436 237.184 272.566 237.691 272.778 239.11C273.073 241.084 272.067 243.709 271.875 245.703C271.355 251.088 271.249 256.631 271.357 262.039C271.46 267.161 271.626 272.331 271.865 277.447C272.086 282.19 273.042 286.839 273.559 291.549C273.7 292.842 273.606 298.671 275.828 298.378C277.684 298.133 276.512 294.151 276.477 293.01C276.4 290.484 276.932 287.904 276.909 285.356C276.899 284.131 277.434 283.075 277.486 281.903C277.537 280.744 276.961 279.829 277.134 278.628C277.3 277.475 280.706 270.847 277.434 271.624C277.626 270.676 277.794 269.721 278.047 268.787C278.397 269.102 278.679 269.469 278.891 269.888C279.182 267.853 279.085 265.821 279.266 263.784C279.347 262.861 279.721 261.85 279.593 260.92C279.618 260.534 279.568 260.156 279.446 259.785C279.245 259.572 278.996 259.46 278.7 259.449C278.544 258.939 278.504 258.799 278.781 258.299C278.899 257.961 279.135 257.749 279.487 257.665C280.158 257.586 280.235 257.2 279.717 256.508C279.987 255.144 280.022 254.282 279.827 252.92C279.663 251.776 280.266 249.56 279.651 248.541C278.934 247.35 278.578 248.506 278.444 246.855C278.416 246.505 278.393 245.777 278.533 245.429C278.687 245.05 279.15 245.205 279.209 245.07C279.611 244.153 279.638 242.346 278.216 242.503C278.272 241.848 278.327 241.193 278.383 240.537C279.41 241.72 279.051 240.719 279.633 240.062C280.418 239.176 281.185 239.024 282.306 238.674C285.295 237.741 288.174 236.339 291.095 235.201C297.278 232.791 303.577 230.639 309.58 227.791C322.206 221.8 334.58 215.299 347.283 209.466C346.376 207.782 346.94 207.7 347.603 206.119C348.489 206.733 348.303 206.305 348.933 206.267C348.875 205.739 349.039 205.58 349.424 205.789C349.731 205.883 350.045 205.917 350.367 205.889C351.153 206.024 351.796 206.457 352.511 206.621C352.745 206.794 353.003 206.924 353.284 207.011C353.537 206.953 353.752 206.828 353.93 206.636C355.087 206.85 355.477 207.722 355.528 208.984C355.537 209.203 354.865 209.428 355.057 209.723C355.393 210.239 356.298 210.116 356.815 210.182C356.702 210.717 356.589 211.253 356.476 211.788C358.746 210.74 358.154 214.02 358.843 215.098C359.035 215.398 359.462 215.158 359.685 215.506C359.975 215.961 359.887 216.605 360.135 217.058C360.694 218.082 361.253 217.957 361.81 219.13C364.722 225.254 368.595 230.959 371.389 237.213C372.72 240.191 373.92 243.219 375.309 246.169C376.587 248.885 377.318 251.194 376.406 254.16C374.293 261.04 372.033 268.046 369.264 274.691C369.126 274.472 368.988 274.252 368.849 274.032ZM221.452 325.387C221.253 325.725 221.055 326.062 220.857 326.4C220.417 323.867 221.59 325.042 221.452 325.387ZM212.131 320.645C211.496 320.455 211.77 319.417 211.791 318.973C212.193 319.474 212.587 319.985 212.921 320.535C212.658 320.571 212.394 320.608 212.131 320.645ZM186.586 310.908C187.253 310.534 187.733 310.265 188.489 309.841C187.721 311.339 187.721 311.339 186.586 310.908ZM146.398 178.93C145.378 181.432 148.487 196.88 145.593 197.384C145.178 196.028 145.126 192.295 143.408 191.849C141.276 191.296 141.486 195.14 141.195 196.328C136.819 193.283 134.875 187.404 132.784 182.744C130.119 176.804 128.023 170.627 126.02 164.438C124.308 159.147 122.892 153.762 121.161 148.479C120.074 145.162 118.903 141.836 118.171 138.416C118.013 137.673 117.388 135.789 117.919 135.083C118.69 134.056 121.468 135.232 122.363 135.502C128.169 137.249 134.192 138.001 140.157 139.016C146.784 140.143 153.397 141.308 160.065 142.182C161.731 142.4 163.398 142.607 165.066 142.808C166.148 142.939 167.785 142.808 168.812 143.293C170.892 144.275 171.335 148.03 172.107 149.978C174.989 157.247 178.381 164.286 181.415 171.488C184.149 177.977 186.221 184.88 190.15 190.788C187.22 189.489 183.506 182.62 180.231 186.579C178.824 188.281 179.179 190.524 179.291 192.561C179.454 195.507 179.505 198.474 179.505 201.424C176.301 200.591 174.148 196.953 172.465 194.377C170.167 190.857 168.72 187.541 167.703 183.506C167.262 181.759 166.093 181.716 165.055 180.67C164.388 179.998 164.052 179.093 163.095 180.07C161.892 181.299 162.692 184.701 162.9 186.152C163.393 189.603 165.011 194.916 163.439 198.159C161.316 202.536 155.628 191.523 154.962 189.932C154.623 189.122 148.572 173.593 146.398 178.93ZM142.424 103.914C142.783 103.969 143.141 104.024 143.499 104.079C143.21 104.334 142.609 105.228 142.118 104.991C142.22 104.632 142.322 104.273 142.424 103.914ZM161.406 99.841C161.294 99.9644 161.181 100.087 161.068 100.211C160.555 99.5684 160.737 98.6319 160.737 97.889C161.416 98.2993 161.582 99.1199 161.406 99.841ZM162.94 106.968V109.068C161.517 108.451 161.489 108.133 162.94 106.968ZM164.668 109.638C163.671 109.365 163.552 109.144 163.692 107.612C164.105 108.47 164.377 109.036 164.668 109.638ZM170.407 125.188C169.989 126.263 167.546 123.701 167.636 122.935C167.721 122.203 168.096 121.985 168.614 122.455C168.785 122.611 168.531 123.174 168.64 123.369C169.034 124.077 169.828 124.655 170.407 125.188ZM170.434 131.666C169.822 133.194 168.731 130.788 170.33 130.722C170.435 131.029 170.469 131.344 170.434 131.666ZM169.247 129.257C169.01 128.941 168.78 128.621 168.556 128.295C169.38 128.461 170.033 129.661 170.902 128.86C170.799 130.081 169.932 130.115 169.247 129.257ZM115.993 109.411C114.669 107.965 123.305 106.951 124.346 106.703C131.907 104.9 139.044 102.291 146.113 99.0899C149.485 97.563 152.84 96.0175 156.134 94.3248C157.556 93.5942 159.505 92.9747 160.692 91.8776C161.54 91.0946 161.506 90.5022 162.608 90.0357C163.544 89.6406 163.59 90.0138 164.019 89.2989C164.276 88.87 164.567 87.2983 164.417 86.8332C164.006 85.5641 163.4 86.593 162.548 85.7185C161.935 85.088 162.083 83.2952 162.251 82.5527C162.468 82.9063 162.593 83.2904 162.626 83.7041C163.55 83.2485 163.178 81.6839 164.188 81.4275C165.253 81.1578 165.143 81.9875 165.421 82.8358C166.226 81.6539 165.581 80.646 165.145 79.4917C167.36 79.0771 169.739 78.6754 171.934 79.4122C173.522 79.9445 174.881 81.2536 176.557 81.5067C178.198 81.754 178.513 80.9758 179.723 80.1861C180.706 79.5451 181.549 80.3 182.055 79.8158C181.743 81.4504 179.063 81.2269 179.393 83.2695C179.542 84.1887 180.668 85.0146 181.181 85.73C181.825 86.6278 182.338 87.6205 182.777 88.6322C184.482 92.5677 185.211 97.1346 185.927 101.343C187.693 111.731 187.917 122.324 189.578 132.746C190.37 137.71 191.163 142.676 191.575 147.689C191.677 148.942 192.443 151.785 191.817 152.991C191.287 154.008 190.109 154.011 189.075 154.258C187.051 154.739 185.151 155.392 183.21 156.116C181.47 156.764 180.965 157.162 179.848 155.525C178.767 153.941 178.233 152.053 177.46 150.317C176.476 148.104 175.286 145.969 174.144 143.834C176.387 143.834 177.678 142.623 177.619 140.344C177.554 137.819 175.478 137.22 174.622 135.145C173.789 136.227 173.719 136.257 173.126 135.23C172.447 134.057 171.989 131.909 171.574 130.577C171.871 130.894 172.168 131.211 172.465 131.528C173.214 130.497 172.041 128.873 171.648 127.903C171.043 126.405 170.936 124.785 170.362 123.291C170.049 122.475 169.324 121.833 169.146 120.983C169.027 120.413 169.503 119.871 169.39 119.293C169.194 118.287 168.055 117.207 167.701 116.183C167.156 114.609 166.565 113.222 165.889 111.688C164.975 109.612 165.187 107.433 165.02 105.223C164.847 102.932 164.113 100.74 163.853 98.4585C163.674 96.8825 164.235 94.8981 163.043 93.6356C162.903 95.7339 163.505 95.7015 161.533 96.079C159.288 96.5084 157.66 98.1806 155.538 98.6796C155.101 98.7825 154.782 96.8715 154.953 99.4783C153.935 98.7268 151.762 99.6599 152.573 100.106C151.958 100.763 150.748 100.308 150.546 101.293C148.458 99.2634 145.111 106.172 142.624 102.568C142.214 105.011 140.446 106.455 138.071 106.778C136.878 106.94 136.142 107.338 135.082 107.696C134.867 107.768 134.788 108.077 134.534 108.16C134.145 108.287 133.574 107.904 133.294 107.979C132.723 108.13 132.089 108.881 131.293 109.03C130.38 109.201 129.384 109.122 128.47 109.017C127.327 108.884 126.824 108.749 125.705 109.125C124.698 109.464 123.621 110.413 122.686 109.38C121.219 111.918 117.721 111.298 115.993 109.411ZM183.829 78.776C182.719 78.643 183.49 77.688 184.004 77.4011C185.401 76.6224 185.028 78.9199 183.829 78.776ZM122.343 87.8859C128.86 78.4833 140.008 72.0231 149.817 66.5874C155.174 63.6184 160.643 60.7404 166.268 58.3105C169.065 57.1028 171.894 55.9419 174.75 54.8811C176.275 54.3145 177.819 53.7993 179.364 53.2865C179.791 53.145 180.567 52.7104 181.014 52.7528C180.937 52.7452 182.125 53.0683 181.892 53.1698C182.657 52.8367 183.021 51.9679 183.921 51.6205C184.932 51.2297 186.22 51.0681 187.304 51.0329C188.262 51.0014 189.092 51.3974 190.005 51.4284C190.605 51.4484 191.115 51.1634 191.702 51.1215C192.003 51.1005 191.976 51.5504 192.157 51.5766C192.236 51.5881 193.037 51.2873 193.044 51.2926C193.336 51.4799 193.594 52.2109 193.858 52.4964C194.614 53.3151 195.723 53.8856 196.731 54.3164C197.958 54.8406 200.95 55.3677 199.563 57.3073C200.548 57.1657 201.007 58.056 199.773 58.2814C199.105 58.4039 198.82 57.792 198.324 57.3745C197.177 56.4118 194.395 55.0412 192.744 55.1032C191.816 55.138 191.098 55.8428 190.242 56.0987C189.399 56.3503 188.981 55.96 188.241 56.022C187.377 56.094 186.82 56.8255 185.996 56.9556C185.225 57.0776 184.795 56.5515 184.105 56.5882C183.286 56.6315 182.492 57.3435 181.709 57.5827C180.464 57.963 179.55 58.2223 178.335 58.8528C175.98 60.0752 173.35 60.5393 170.923 61.5916C168.982 62.4327 166.782 62.8754 164.986 63.8057C162.989 64.8394 160.983 65.8692 159.028 66.9925C157.616 67.8041 154.744 68.0833 153.186 67.877C153.164 70.7449 151.752 68.7343 150.33 69.9905C150.666 70.2874 151.049 70.5057 151.475 70.6453C149.933 71.261 148.509 72.0273 147.015 72.735C145.471 73.467 143.824 73.6281 142.81 75.0125C141.876 76.2883 142.193 75.6302 140.799 76.1325C140.159 76.3631 139.603 77.0665 139.142 77.5388C138.35 78.3509 138.175 79.5804 137.722 77.9115C137.59 78.115 137.071 79.4107 136.97 79.4436C136.403 78.8422 136.322 79.5551 136.005 79.8101C136.172 80.3643 135.933 80.7275 135.29 80.8995C134.965 81.1416 134.635 81.3789 134.302 81.611C133.093 82.4493 131.555 83.1684 130.704 84.4175C130.076 84.0472 129.843 83.4081 130.226 82.7557C129.026 83.8613 127.595 84.997 127.271 86.6988C127.121 86.5549 126.947 86.451 126.75 86.3871C126.263 86.716 126.897 87.6958 127.206 87.9164C128.553 87.3932 126.87 87.5828 127.775 87.6672C128.033 87.691 128.297 87.884 128.582 87.8874C129.416 87.8983 130.2 87.8583 131.028 87.731C132.852 87.4499 134.645 86.9261 136.411 86.401C138.334 85.8291 140.258 85.2582 142.139 84.5567C143.688 83.9791 145.211 83.3352 146.734 82.6938C147.342 82.4374 147.95 82.1777 148.559 81.9232C149.715 81.4399 150.325 80.646 150.164 82.0061C151.085 81.8531 151.883 80.5511 152.59 80.0198C153.585 79.273 154.704 78.7159 155.883 78.3347C156.361 78.1802 156.712 77.9839 157.205 77.9825C157.447 77.982 157.592 78.6644 157.745 78.6273C158.803 78.3709 158.32 77.7847 158.796 76.9402C159.836 75.0945 162.639 74.0737 164.359 73.0253C165.452 72.3595 166.227 71.4641 167.236 70.7268C167.707 70.3823 168.05 70.2298 168.544 70.0839C168.923 69.9719 169.387 70.8412 169.632 69.9676C168.752 69.6078 168.026 69.1642 167.179 68.9016C166.58 68.7152 167.299 68.0781 166.35 68.4574C165.968 68.6099 165.837 69.3476 165.697 69.6565C164.637 68.7095 161.655 69.6908 160.397 70.0873C160.311 70.1144 159.922 69.9095 159.739 69.9219C159.013 69.9705 158.507 70.9479 158.029 71.3692C156.758 72.4887 155.38 72.9566 153.815 73.5957C154.231 71.3201 157.292 70.388 159.079 69.5163C161.69 68.242 164.122 66.6155 166.981 65.9302C168.885 65.4732 171.409 65.1058 172.231 67.3199C172.724 68.6471 172.786 71.9444 171.12 72.5568C170.944 71.9373 171.507 71.4078 171.677 70.8703C170.019 71.5031 169.746 73.4947 168.487 74.5341C167.779 75.1179 167.526 75.3051 167.184 75.8694C166.844 76.4298 166.681 76.9526 165.885 77.5488C164.583 74.7843 164.804 78.571 164.144 79.0462C164.409 78.8551 163.068 79.4131 163.228 79.354C163.166 79.3769 162.582 78.4304 162.203 78.4505C161.513 78.4867 161.646 79.2458 161.314 79.628C160.188 80.9214 158.733 81.7697 156.92 81.5662C156.878 82.4865 157.162 83.5859 155.905 83.6698L155.74 81.6296C155.056 82.3216 154.156 82.9788 153.6 83.7799C152.966 84.6915 153.034 85.2529 151.983 85.8605C150.885 86.4958 148.549 87.7472 147.242 87.8554C147.565 87.397 147.508 86.9828 147.072 86.614C146.414 87.2916 145.444 87.3584 144.745 87.9703C147.173 88.9849 142.879 88.9325 142.334 89.0473C141.97 89.1245 141.651 89.4567 141.282 89.5315C140.792 89.6311 140.728 89.1155 140.306 89.2789C139.688 89.5181 139.939 90.1934 139.293 90.5327C138.829 90.7767 138.041 90.7734 137.518 91.005C136.269 91.5578 133.611 92.7821 132.767 91.2972C132.34 93.8449 127.974 92.2941 126.358 92.1226C124.145 91.8876 120.29 90.8487 122.343 87.8859ZM131.639 61.8189C131.952 61.5516 132.265 61.5711 132.579 61.878C132.142 59.5724 135.519 58.4529 136.992 57.4727C138.946 56.1726 141.246 53.6501 143.802 53.8498C143.366 54.1729 142.931 54.496 142.496 54.8192C143.118 54.8997 143.739 54.9802 144.36 55.0608C144.01 55.5755 143.659 56.0897 143.308 56.6039C142.734 53.4414 139.74 57.4341 138.874 58.0159C138.001 58.6016 137.131 59.0382 136.356 59.7525C135.587 60.4602 134.894 61.7346 133.624 61.0979C133.508 62.904 132.056 62.4141 131.052 63.4144C131.01 62.7868 131.369 62.3431 131.639 61.8189ZM144.903 52.8028C147.994 51.6452 150.685 49.505 153.597 47.9762C156.378 46.5155 159.216 45.204 162.044 43.8415C163.479 43.15 166.107 41.362 167.746 42.2732C169.959 43.5037 166.913 43.9006 166.122 44.3267C165.829 42.4319 164.804 44.1484 165.416 45.2026C163.728 44.4735 160.046 47.3262 158.435 48.113C158.07 48.2912 158.234 48.3941 157.819 48.6038C157.717 48.6553 156.66 48.896 156.357 48.9975C154.841 49.505 153.842 49.1018 153.188 50.9323C153.052 50.5015 152.915 50.0702 152.778 49.6389C151.829 51.7706 148.943 52.7037 147.098 53.9642C146.622 54.2892 145.264 55.5497 144.661 55.289C143.821 54.9259 144.158 53.0816 144.903 52.8028ZM200.655 59.2297C201.96 59.316 200.702 59.9246 201.06 60.3268C201.02 60.2815 201.846 60.9864 201.738 60.7929C201.884 61.0531 202.234 61.0435 202.413 61.5725C203.03 63.3916 200.335 65.2711 199.426 66.3034C197.659 68.3111 196.638 70.8536 194.797 72.797C193.965 73.6748 193.138 74.281 191.985 74.6084C191.178 74.8376 190.324 74.5922 189.583 75.3681C188.986 75.9928 189.121 76.3479 188.461 76.68C187.298 77.2657 186.786 76.752 185.655 78.0177C184.681 75.3709 187.478 75.3752 188.938 73.896C190.953 71.8539 193.161 69.7937 195.051 67.6091C196.729 65.6681 197.401 63.9663 198.198 61.6083C198.449 60.8648 198.723 59.2707 199.415 58.8042C200.494 58.0779 199.847 59.1759 200.655 59.2297ZM207.071 127.988C210.494 124.16 214.739 120.723 219.34 118.418C220.985 117.593 223.326 116.512 225.031 117.781C226.703 119.025 226.343 121.506 225.669 123.194C225.023 122.94 225.633 120.568 225.298 119.982C224.567 118.703 222.99 119.382 221.916 119.811C220.659 120.313 219.537 120.868 218.542 121.78C218.138 122.149 217.364 122.48 217.105 122.734C216.717 122.573 216.487 122.69 216.419 123.087C216.499 123.33 216.489 123.569 216.39 123.804C216.333 123.879 215.827 123.572 215.755 123.634C215.427 123.915 215.121 124.245 214.798 124.505C214.15 125.029 213.599 125.277 213.003 126.007C211.852 127.418 210.329 128.245 209.172 129.589C208.911 129.893 208.598 130.673 208.539 130.741C207.954 131.423 207.088 131.963 206.428 132.686C205.288 133.934 204.07 134.772 202.754 135.842C202.188 136.302 201.527 136.798 201.15 137.439C200.978 137.731 200.881 139.332 200.875 139.339C199.585 140.753 199.836 137.91 199.933 137.554C200.981 133.718 204.524 130.838 207.071 127.988ZM200.027 153.926C200.188 154.528 200.32 155.026 200.483 155.638C199.46 154.799 199.46 154.799 200.027 153.926ZM198.922 155.899C198.546 156.278 198.168 156.654 197.787 157.028C196.95 156.143 199.076 155.747 198.922 155.899ZM198.391 140.667C197.99 142.286 196.525 144.249 195.518 145.528C195.629 145.387 194.658 145.67 194.547 145.734C194.188 145.942 195.048 147.289 193.804 146.687C193.363 146.937 194.232 147.954 193.632 148.409C191.9 144.461 196.631 141.04 198.463 138.109C199.359 138.931 198.616 139.759 198.391 140.667ZM187.136 162.014C188.399 162.339 189.056 162.135 189.909 160.894C190.422 160.148 190.609 158.828 191.782 159.944L191.989 158.51C193.663 159.196 193.523 161.678 194.254 163.054C194.61 161.498 195.453 157.151 198.035 157.848C200.933 158.631 196.109 163.615 195.662 164.836C194.676 163.307 195.064 164.729 194.312 164.945C193.668 165.13 192.66 164.655 191.877 164.698C189.493 164.828 187.399 165.9 185.221 166.808C184.67 165.322 184.119 163.835 183.568 162.349C184.85 162.447 187.5 159.035 187.877 161.515C186.926 161.35 186.658 161.392 186.195 162.257C186.491 162.107 186.805 162.026 187.136 162.014ZM192.487 181.416C192.483 181.404 194.952 181.556 195.173 181.476C196.862 180.858 196.238 178.942 196.583 177.587C197.28 178.227 196.911 179.396 197.126 180.225C197.378 181.199 198.108 182.029 198.175 183.071C198.329 185.425 196.398 184.903 194.934 185.664C193.683 186.315 193.544 187.134 192.488 185.38C192.202 184.905 191.587 183.668 191.65 183.061C191.712 182.46 192.664 181.96 192.487 181.416ZM194.477 191.601L193.794 190.836C195.829 191.459 194.629 190.522 195.097 189.242C196.658 190.282 197.932 191.35 199.168 189.268L201.303 197.88C199.869 198.217 198.019 196.002 197.035 195.241C196.467 194.801 193.315 193.107 195.208 192.613C194.964 192.275 194.72 191.938 194.477 191.601ZM208.413 164.56C207.228 165.687 206.034 166.318 204.744 167.204C203.612 167.981 204.002 168.874 203.021 169.741C202.369 170.318 200.842 170.905 200.037 171.345C198.603 172.128 197.319 172.278 195.844 171.401C196.245 174.632 194.032 174.885 191.277 175.525C189.963 175.831 189.185 176.297 188.238 175.094C187.589 174.27 187.335 172.779 188.142 172.026C189.424 170.829 192.838 171.242 194.482 170.489C195.73 169.918 197.001 166.701 198.54 167.872C197.746 166.606 198.671 166.266 199.361 165.364C200.117 164.375 200.582 163.219 201.365 162.238C202.851 160.373 205.134 158.498 207.246 157.374C209.104 156.385 210.079 157.085 210.358 159.162C210.498 160.206 210.493 161.762 209.908 162.688C209.722 162.984 209.106 162.987 208.92 163.264C208.595 163.749 208.893 164.103 208.413 164.56ZM230.218 139.496C231.7 140.643 231.556 143.055 231.789 144.697C232.119 147.012 231.88 149.251 231.845 151.609C231.807 154.079 230.595 155.688 230.025 158.003C229.391 160.578 228.573 161.942 227.151 164.104C228.693 164.346 226.398 168.952 226.02 169.548C225.609 170.195 222.296 173.177 223.716 173.177C222.933 174.21 222.08 175.271 221.299 176.275C220.992 176.671 220.453 176.826 220.211 177.106C219.717 177.673 219.687 178.179 219.334 178.842C218.798 179.847 218.622 179.578 217.917 180.308C217.43 180.811 217.111 181.476 216.633 181.959C215.093 183.514 214.897 182.24 214.035 181.042C213.903 181.363 213.669 181.564 213.332 181.646C213.062 180.29 214.919 178.921 215.7 178.098C216.978 176.748 218.147 175.261 219.277 173.785C221.698 170.623 223.874 167.263 225.59 163.664C227.416 159.834 228.875 155.689 229.633 151.51C230.21 148.325 230.759 142.862 226.504 142.052C223.408 141.463 219.996 143.343 217.445 144.866C215.89 145.794 214.326 146.716 212.845 147.759C211.237 148.89 209.847 150.491 208.102 151.399C209.057 150.903 205.907 152.397 206.389 151.977C206.164 152.173 206.358 152.773 206.209 153.044C206.015 153.396 205.339 153.744 205.036 153.972C204.235 154.573 202.956 155.188 202.592 156.182C197.514 152.559 207.613 146.127 210.201 144.489C215.336 141.24 224.271 134.893 230.218 139.496ZM243.916 104.262C243.867 101.653 245.992 98.092 247.427 95.9646C248.129 94.9233 249.25 94.9648 249.661 93.7367C249.899 93.0295 249.587 92.2879 249.658 91.5779C249.753 90.6176 250.17 89.8475 250.65 89.022C254.993 81.5605 260.27 74.9563 265.89 68.4465C268.661 65.2373 271.288 61.9047 274.277 58.89C275.525 57.6309 278.881 53.1045 280.8 53.5572C281.817 53.7969 282.408 55.3481 282.867 56.1397C283.626 57.4488 284.46 58.675 285.383 59.8788C287.816 63.057 290.624 65.8468 293.939 68.0995C296.009 69.5073 298.101 70.8755 300.125 72.3505C301.792 73.5643 304.312 74.952 305.502 76.6562C306.692 78.3609 304.944 79.8044 303.988 81.2198C302.504 83.421 301.138 85.7018 299.646 87.9007C299.054 87.4746 299.207 86.6092 298.801 86.0635C298.441 85.5798 297.931 85.383 297.434 85.0842C296.48 84.5128 295.544 83.8142 294.683 84.7716C293.176 86.4472 295.248 90.4079 297.482 89.9733C297.745 91.6269 293.284 94.3505 292.166 95.2607C288.735 98.0524 285.196 100.48 280.663 100.732C278.829 100.834 276.92 100.695 275.177 100.081C274.342 99.7871 273.419 99.3835 272.779 98.7425C272.013 97.9752 271.818 96.8334 271.074 96.0737C270.429 95.4146 269.544 95.3131 268.9 94.6517C268.254 93.9897 267.936 92.9442 267.674 92.0868C267.162 90.4117 267.065 88.6451 266.574 86.9662C266.278 85.9563 266.035 84.6062 265.07 85.5765C263.668 86.9862 264.372 91.4187 264.731 93.1076C265.244 95.5171 266.447 97.4596 267.708 99.5326C269.075 101.782 269.579 103.867 269.824 106.469C270.283 111.34 271.68 116.015 273.855 120.397C274.771 122.242 275.867 123.977 276.856 125.78C277.318 126.621 278.352 129.491 279.608 129.476C281.614 129.451 278.756 123.6 278.36 122.618C276.162 117.178 274.063 111.461 273.592 105.57C276.742 106.382 280.177 107.152 283.439 106.638C281.333 111.347 283.533 116.036 283.264 120.884C283.129 123.315 283.032 125.557 283.082 127.981C283.126 130.106 282.167 132.231 281.337 134.153C279.689 137.97 277.615 142.678 274.554 145.602C271.995 148.046 268.573 148.237 265.23 147.674C257.625 146.393 252.628 140.548 249.436 133.908C247.386 129.643 245.818 125.09 244.845 120.458C243.719 115.097 244.016 109.7 243.916 104.262ZM253.792 68.1334C246.695 62.9984 257.008 57.1672 262.257 57.9611C263.489 58.147 265.754 58.656 265.639 60.2629C265.545 61.5763 263.354 63.0403 262.513 63.851C260.114 66.1642 257.673 70.9408 253.792 68.1334ZM305.42 182.23C305.177 182.012 303.19 182.548 303.977 181.373C304.631 180.396 306.444 181.62 307.102 181.871C306.56 182.246 306.087 182.827 305.42 182.23ZM275.869 244.336C275.259 244.411 274.621 242.766 276.82 243.995C276.503 244.108 276.186 244.222 275.869 244.336ZM275.806 271.148C275.882 271.885 276.107 272.371 275.583 272.907C275.141 272.361 275.084 271.592 275.806 271.148ZM276.699 282.226C276.634 282.627 276.569 283.028 276.505 283.429C275.997 283.172 275.49 282.915 274.982 282.658C275.554 282.514 276.127 282.37 276.699 282.226ZM277.32 272.884C278.077 273.167 277.725 272.262 278.274 272.135C278.471 273.077 278.228 273.884 277.687 274.661C277.636 274.477 277.359 272.898 277.32 272.884ZM296.661 206.034C295.599 205.899 295.438 207.021 294.647 207.456C294.136 207.737 292.581 207.526 292.29 208.064C292.673 208.175 293.057 208.286 293.44 208.396C292.563 208.869 291.686 209.342 290.808 209.815C292.918 209.815 295.117 208.807 297.213 209.103C298.099 209.228 298.749 209.528 299.304 210.248C299.642 210.686 299.938 211.389 299.992 211.925C300.051 212.505 299.599 212.905 299.679 213.181C300.624 213.207 300.512 214.756 300.3 215.388C299.84 216.757 298.014 218.901 296.377 218.033C297.062 219.004 296.887 219.559 295.875 220.123C295.966 219.802 296.034 219.24 295.517 219.296C295.384 219.834 295.435 220.688 294.995 221.094C294.502 221.548 294.063 221.017 293.592 221.313C293.034 221.664 293.202 222.214 292.763 222.594C292.183 223.097 292.1 222.74 291.406 222.837C290.355 222.986 291.025 222.333 290.184 223.184C289.893 223.478 289.942 224.242 289.47 224.672C288.564 225.497 286.145 226.356 285.277 225.298C283.189 228.607 276.931 229.401 274.018 226.789C269.373 222.623 278.035 214.152 280.895 211.467C283.765 208.772 286.953 206.445 290.179 204.198C292.012 202.922 293.893 201.763 295.814 200.626C296.998 199.924 298.486 198.643 299.942 198.766C301.248 198.876 302.363 199.89 303.738 200.09C304.732 200.235 306.664 200.474 305.41 201.823C304.823 202.453 302.519 203.472 301.735 203.625C301.274 203.715 300.788 203.543 300.332 203.636C299.559 203.795 299.028 204.447 298.187 204.364C298.453 205.613 297.967 206.2 296.661 206.034ZM310.409 159.698C310.41 160.675 308.627 160.431 308.255 160.099C307.642 159.554 307.621 157.922 307.393 157.18C308.43 157.441 310.408 158.395 310.409 159.698ZM296.051 127.483C299.795 124.406 303.732 121.585 307.893 119.1C309.383 118.211 311.487 116.416 313.338 116.64C314.114 116.734 315.72 117.626 315.135 118.609C315.026 118.793 314.162 118.867 313.895 119C313.592 119.151 313.355 119.568 313.074 119.774C311.13 121.2 308.794 122.076 306.843 123.537C305.24 124.737 303.745 126.079 302.019 127.108C300.364 128.095 298.634 128.72 297.062 129.813C297.093 129.791 295.018 130.537 295.425 130.673C293.603 130.064 295.527 127.915 296.051 127.483ZM321.013 126.337C323.237 125.451 325.413 124.375 327.741 123.78C328.903 123.482 330.096 123.259 331.299 123.393C331.503 123.035 331.775 122.956 332.116 123.155C332.381 123.563 332.731 123.876 333.166 124.095C333.829 124.605 336.271 125.272 335.783 126.398C335.461 127.143 333.012 127.205 332.34 127.372C330.314 127.877 328.425 129.012 326.338 129.291C326.142 129.317 325.502 129.08 325.495 129.081C324.681 129.259 324.003 130.104 323.304 130.509C321.798 131.38 319.634 131.527 318.553 133.031C322.054 135.405 325.093 133.051 328.171 131.258C330.015 130.185 331.995 129.411 334.01 128.723C335.064 128.363 336.126 127.99 337.194 127.674C337.636 127.513 338.09 127.397 338.556 127.326C338.99 127.24 339.3 127.398 339.487 127.8C340.778 127.757 340.888 126.947 341.665 128.458C342.76 130.587 341.085 130.479 339.51 130.74C337.326 131.103 335.106 131.918 332.954 132.459C332.458 132.584 328.106 133.593 328.101 133.629C327.904 135.002 340.393 133.73 341.465 133.524C343.357 133.16 345.386 132.127 347.345 132.376C348.849 132.567 352.275 134.773 349.876 136.239C349.403 133.979 347.782 135.846 346.936 136.609C345.808 137.624 344.193 137.527 342.646 137.925C340.531 138.468 335.117 140.507 333.615 137.907C334.09 140.185 325.46 139.028 324.273 138.952C323.116 138.879 321.623 139.124 320.505 138.795C319.776 138.58 319.37 138.106 318.684 137.999C318.516 138.18 318.314 138.303 318.08 138.369C317.732 138.193 317.418 137.969 317.138 137.698C314.826 136.635 311.25 136.048 312.535 132.664C313.746 129.473 318.075 127.509 321.013 126.337ZM342.677 128.31C342.734 128.111 342.792 127.912 342.849 127.713C342.856 128.323 344.31 128.583 344.142 129.373C343.77 131.121 342.092 128.494 341.949 128.207C342.192 128.242 342.434 128.276 342.677 128.31ZM351.551 131.215C351.72 131.931 353.652 133.456 353.174 133.808C352.411 132.772 350.305 133.242 351.551 131.215ZM318.946 196.571C319.654 195.167 321.793 197.557 321.567 195.161C322.731 195.266 322.004 196.151 323.398 195.762C323.921 195.617 324.274 195.038 324.91 194.904C325.08 194.868 325.814 194.927 326.067 194.919C326.905 194.893 330.19 194.8 327.929 193.7C329.195 192.864 329.351 193.288 330.493 194.055C330.2 192.47 331.881 193.37 332.663 193.567C332.105 192.663 333.49 191.702 333.939 191.091C333.778 192.032 333.863 193.086 335.225 192.484C335.565 192.334 335.488 191.669 335.758 191.56C336.25 191.361 336.526 191.723 336.703 191.703C336.877 191.683 337.243 191.781 337.609 191.643C338.084 191.464 337.854 190.827 338.457 190.732C338.849 190.67 339.135 191.247 339.614 191.252C339.86 191.254 340.271 191.004 340.457 191.018C340.49 191.02 340.724 190.456 341.012 190.442C341.432 190.422 341.603 191.548 341.757 191.767C342.492 192.81 343.471 193.491 344.599 194.047C342.558 195.919 338.439 195.721 335.872 196.352C334.481 196.694 333.295 197.187 332.023 197.823C331.716 198.023 331.451 198.268 331.23 198.558C331.05 198.438 330.869 198.319 330.689 198.199C329.992 198.242 329.333 197.897 328.548 198.03C326.123 198.438 324.225 200.255 321.761 200.659C320.654 200.841 319.745 201.095 319.024 200.135C318.391 199.294 318.495 197.466 318.946 196.571ZM315.622 185.384C316.172 185.849 315.511 187.362 316.574 187.197C317.329 187.08 317.179 185.91 317.772 185.661C318.55 185.336 319.02 186.108 319.752 186.037C321.117 185.902 321.038 184.711 319.886 184.188C321.084 183.871 321.468 185.289 322.53 185.276C323.924 185.259 323.591 183.614 324.777 183.342C325.291 183.224 325.119 183.978 325.452 184.072C326.12 184.259 326.584 183.938 327.174 183.654C327.702 183.401 328.078 182.912 328.655 182.747C328.918 182.671 329.585 182.81 329.778 182.669C330.166 182.386 330.514 181.283 330.896 181.137C330.818 181.167 332.071 181.795 332.251 181.854C332.141 182.32 331.886 182.375 331.486 182.02C331.486 183.071 334.406 183.399 333.807 182.1C335.386 182.754 334.21 183.09 334.052 184.003C333.99 184.37 333.776 184.36 333.839 184.748C333.868 184.926 334.696 184.772 334.686 185.016C334.616 186.584 329.618 187.067 328.671 187.205C326.71 187.491 324.855 187.973 322.965 188.566C321.557 189.008 319.132 190.273 317.634 190.195C315.481 190.082 315.2 187.272 315.622 185.384ZM310.81 169.38C310.285 167.636 311.97 164.032 314.164 164.482C314.703 164.593 314.836 165.04 315.255 165.238C315.839 165.516 316.789 165.37 317.296 165.656C318.432 166.299 317.859 167.937 318.997 168.529C317.201 168.964 311.645 172.154 310.81 169.38ZM312.89 176.159C313.664 175.743 314.918 175.69 315.446 174.89C315.709 175.072 316.206 176.177 316.677 176.008C316.898 175.929 317.125 175.33 317.109 175.33C317.529 175.318 317.612 174.75 318.254 174.814C318.843 174.873 319.503 175.581 320.028 175.845C319.938 174.089 320.387 173.922 321.811 172.982C322.123 172.776 322.384 172.003 322.672 171.69C322.396 173.533 323.091 173.543 324.562 173.82C326.406 174.167 327.555 175.157 328.294 176.939C326.722 176.632 324.695 177.001 324.076 178.691C322.821 176.399 318.262 179.561 316.788 180.209C315.693 180.69 314.419 181.336 313.502 180.216C312.855 179.426 313.226 178.477 313.24 177.776C313.243 177.556 313.471 177.543 313.45 177.215C313.423 176.797 312.878 176.629 312.89 176.159ZM329.669 212.197C329.254 212.354 327.118 212.443 327.104 211.735C327.093 211.11 330.875 211.74 329.669 212.197ZM326.199 209.908C324.583 210.904 322.774 207.393 322.18 206.382C323.875 206.599 324.703 205.18 325.702 204.102C326.652 206.184 328.095 205.084 329.613 204.389C331.403 203.569 333.365 203.562 335.199 202.904C335.771 202.699 336.298 202.393 336.857 202.158C337.307 201.99 337.755 201.818 338.202 201.641C338.519 201.355 338.632 201.003 338.539 200.585C338.389 200.235 338.492 200.013 338.847 199.921C339.269 200.047 339.7 200.121 340.14 200.14C340.847 200 341.862 199.333 341.009 198.615C341.923 197.785 342.839 198.61 343.719 198.974C343.51 198.377 343.302 197.781 343.092 197.185C343.529 197.37 344.825 199.181 344.957 199.171C345.795 199.108 345.708 197.984 346.189 197.531C346.467 197.873 346.546 200.428 347.639 199.567C348.106 199.199 347.1 197.946 346.852 197.661C348.102 197.943 349.193 199.434 349.531 200.592C348.937 200.678 348.389 200.559 347.885 200.234C347.563 201.847 350.548 201.193 351.031 202.036C351.978 203.685 345.822 204.831 345.02 204.984C343.414 205.29 341.52 205.404 340.049 206.115C338.639 206.796 338.306 206.991 336.659 207.119C334.779 207.265 332.944 207.884 331.126 208.367C329.547 208.785 327.599 209.045 326.199 209.908ZM360.559 150.866C362.044 150.332 367.044 147.56 368.317 148.793C368.182 148.662 369.235 150.836 369.224 150.699C369.314 151.83 369.287 152.285 367.895 152.827C366.898 153.215 366.029 152.391 365.132 152.718C364.147 153.078 364.836 153.714 364.329 154.159C363.774 154.647 362.702 154.857 362.011 155.071C360.318 155.594 358.612 156.031 356.927 156.594C353.499 157.74 349.87 158.807 346.347 159.617C343.714 160.223 339.246 161.728 336.82 159.95C336.583 160.961 336.005 160.823 335.201 160.97C334.571 161.085 333.431 161.398 332.871 161.414C331.938 161.441 329.345 161.196 329.702 159.888C329.604 160.249 331.719 159.015 331.353 158.939C332.251 159.128 331.96 158.675 332.696 158.424C333.657 158.095 334.661 158.113 335.643 157.765C338.117 156.888 340.191 155.75 342.803 155.201C348.767 153.946 354.805 152.937 360.559 150.866ZM121.469 286.015C120.986 286.028 120.61 284.655 122.08 285.635C121.877 285.762 121.673 285.889 121.469 286.015ZM109.855 284.239C109.198 284.407 108.936 284.04 109.07 283.139C109.987 282.777 110.248 283.143 109.855 284.239ZM100.889 282.4C100.721 281.596 101.317 281.415 101.857 281.054C101.803 282.119 101.803 282.119 100.889 282.4ZM78.3299 275.788C77.4211 275.588 76.2102 274.699 76.0019 276.191C75.8499 275.846 75.074 274.221 75.4072 273.845C75.5811 273.648 76.2397 274.558 76.1697 274.468C76.965 272.859 78.3361 274.801 79.1024 275.375C78.8451 275.513 78.5873 275.651 78.3299 275.788ZM314.617 97.9843C314.931 97.3209 315.301 97.1103 315.726 97.3528C315.058 98.9045 312.795 99.7457 314.617 97.9843ZM330.339 83.4186C330.899 84.4694 330.056 84.9136 329.455 85.7871C329.807 84.845 330.051 84.1921 330.339 83.4186ZM398.668 185.996C400.69 185.995 404.996 184.928 406.215 187.239C407.022 185.669 407.939 188.614 408.639 189.086C408.717 189.139 409.222 188.754 409.456 188.896C409.81 189.11 410.115 189.693 410.317 190.039C410.928 191.084 411.19 192.326 411.529 193.475C407.998 193.475 404.377 192.653 400.849 192.354C398.534 192.158 396.263 192.152 393.944 192.277C393.484 192.302 392.569 192.15 392.174 192.236C391.774 192.325 391.048 193.14 390.607 193.009C391.293 194.296 400.075 197.412 400.745 195.987C399.951 195.507 398.188 195.138 398.19 193.977C398.191 192.676 399.844 192.679 400.72 192.717C402.635 192.801 405.844 193.438 406.629 195.43C406.966 196.284 407.069 198.435 406.699 199.259C406.46 199.791 406.056 200.431 405.416 200.54C405.153 200.584 404.775 200.235 404.735 200.243C403.42 200.522 400.988 201.578 399.554 200.089C398.52 201.427 393.541 199.966 392.017 199.461C389.351 198.579 385.68 197.367 384.06 194.879C382.087 191.847 386.1 189.285 388.404 188.052C391.553 186.368 395.152 185.997 398.668 185.996ZM412.122 193.006C412.742 193.181 413.361 193.356 413.981 193.531C413.815 194.618 411.37 193.758 412.122 193.006ZM430.855 232.502C431.046 228.149 429.787 224.315 429.06 220.104C428.88 219.061 429.064 217.236 428.271 216.378C427.514 215.557 425.824 216.224 425.756 214.774C425.011 215.647 425.086 215.83 424.167 214.825C424.334 215.256 424.359 215.694 424.239 216.14C423.669 215.813 421.602 214.727 421.776 216.212C420.076 215.836 420.568 214.773 419.598 213.961C419.461 213.846 418.907 214.255 418.691 214.081C418.302 213.765 418.108 213.478 417.78 213.071C417.362 213.576 416.793 213.941 416.282 214.34C415.985 213.694 415.407 213.219 414.712 213.062C415.362 214.421 416.968 216.181 414.765 216.955C413.45 217.416 411.297 216.85 409.904 216.958C404.743 217.358 399.09 216.233 394.1 215.004C388.973 213.741 383.789 211.958 379.179 209.352C378.196 208.796 377.577 208.139 376.731 207.45C375.908 206.78 375.31 206.674 374.321 206.245C372.542 205.474 370.914 204.238 369.56 202.859C366.648 199.896 363.943 196.02 364.754 191.681C365.562 187.356 368.535 183.976 371.716 181.128C375.473 177.765 379.715 174.956 384.216 172.692C386.229 171.68 391.378 167.878 393.367 170.103C394.638 171.524 393.923 173.337 392.186 173.653C391.758 173.731 391.31 173.444 390.877 173.641C390.253 173.925 390.473 174.26 390.215 174.497C389.767 174.909 389.292 175.55 388.623 175.907C386.289 177.151 384.033 178.137 381.803 179.652C380.774 180.35 379.784 180.651 378.878 181.26C377.976 181.866 377.771 182.869 376.559 182.25C376.991 184.013 374.398 185.901 373.382 186.982C371.808 188.655 369.921 190.79 370.655 193.264C372.093 198.109 378.589 201.789 382.746 203.918C387.934 206.576 393.655 208.691 399.432 209.567C402.303 210.002 405.271 210.27 408.165 210.546C410.417 210.761 413.874 209.975 415.495 212.003C415.545 209.638 422.934 209.846 424.506 209.544C421.353 198.766 415.162 189.184 408.544 180.231C405.296 175.836 402.106 171.317 398.403 167.288C394.349 162.877 389.718 158.936 385.318 154.877C376.688 146.917 366.927 139.813 356.994 133.555C347.084 127.311 336.822 121.167 325.965 116.715C313.565 111.631 300.511 108.287 287.442 105.439C289.215 103.18 292.099 102.078 294.369 100.426C295.163 99.8472 296.238 98.4585 297.27 98.2688C298.388 98.0629 299.268 99.2658 300.064 99.8696C302.348 101.602 303.928 100.867 306.544 100.762C308.11 100.7 311.817 101.571 312.477 99.454C313.355 100.623 312.082 101.559 311.43 102.416C311.905 103.078 312.287 102.392 312.755 102.288C312.9 102.169 313.044 102.048 313.188 101.929C313.421 101.592 313.63 101.59 313.817 101.922C314.096 102.342 314.377 102.25 314.66 101.643C314.738 101.594 314.815 101.545 314.893 101.497C315.231 101.316 315.557 101.031 315.872 100.807C318.25 99.108 320.368 97.6607 322.993 96.4092C325.197 95.3589 324.012 93.3492 325.465 91.93C325.794 91.6088 326.347 91.7699 326.699 91.4978C327.043 91.2304 327.095 90.9273 327.346 90.6409C327.95 89.9523 327.231 89.1531 328.771 89.9961L328.215 86.8694C331.235 89.7993 331.224 81.368 331.636 80.1203C331.582 80.2852 331.907 79.0085 331.907 79.0195C331.996 76.4894 332.341 74.6556 329.378 74.5088C330.5 73.803 330.843 75.1812 331.361 73.7544C331.62 73.0396 330.81 71.811 332.101 72.2718C332.373 70.7525 332.104 69.523 331.766 68.0466C331.419 66.5354 331.623 65.527 331.639 64.0159C331.656 62.3017 330.854 60.5789 330.597 58.8909C330.396 57.5689 330.603 55.484 328.894 55.9696C328.654 55.5936 329.498 54.437 329.464 53.8651C329.41 52.9768 328.446 52.0742 328.173 51.2211C327.771 51.6357 327.205 51.7739 326.659 51.5866C327.172 50.4276 326.69 50.0383 326.199 49.0389C325.917 48.4666 326.087 47.8347 325.484 47.4243C325.139 47.1889 324.55 47.5854 324.279 47.3095C323.699 46.7185 323.913 45.9346 323.514 45.1559C323.013 44.1794 321.869 43.4336 321.08 42.7006C316.648 38.5808 311.834 35.4321 305.938 33.8223C299.99 32.1982 293.055 31.6163 287.127 33.4896C284.758 34.2383 282.654 34.1616 280.522 35.5598C279.83 36.0135 279.756 35.892 279.404 36.6483C279.323 36.8246 280.06 37.294 279.609 37.5824C279.119 37.8955 278.578 37.2588 278.328 36.7303C275.243 38.9634 272.352 41.9405 270.595 45.3541C268.849 48.7463 268.689 52.7313 268.022 56.4175C264.947 52.9043 260.788 51.2202 256.265 52.9091C252.324 54.3807 249.27 57.6156 248.498 61.8065C248.028 64.3614 248.542 66.9486 249.702 69.2538C250.204 70.2498 250.812 71.3525 251.734 72.0231C252.464 72.553 253.714 72.4787 254.057 73.4346C254.584 74.8991 251.542 78.0621 250.753 79.344C249.324 81.6639 247.997 84.0596 246.987 86.5935C243.364 81.4766 239.897 75.888 235.778 71.17C231.891 66.717 227.257 62.7234 222.712 58.9595C213.279 51.1477 203.47 43.8087 192.918 37.5852C183.093 31.7902 171.224 28.573 159.773 29.7105C148.585 30.8223 140.02 37.8983 132.811 46.0595C118.952 61.7512 110.464 84.1168 109.634 105.005C109.385 111.28 109.863 117.473 111.413 123.559C112.151 126.457 112.044 129.307 112.473 132.242C112.957 135.554 113.794 138.853 114.604 142.096C117.688 154.452 121.618 166.798 126.028 178.745C128.32 184.957 131.094 191.031 134.847 196.509C136.581 199.039 138.826 201.019 140.691 203.422C142.501 205.752 142.979 208.613 143.377 211.472C144.331 218.328 144.964 225.214 145.538 232.11C145.781 235.033 146.066 237.93 146.453 240.832C146.79 243.363 145.941 243.238 143.812 244.097C144.244 241.824 134.073 243.371 133.113 243.526C132.068 243.695 130.961 243.697 130.138 243.831C129.218 243.981 128.318 244.198 127.258 244.167C125.7 244.123 122.783 243.725 122.188 245.713C121.779 243.408 119.075 245.929 121.075 245.501C119.022 245.731 116.926 245.348 114.848 245.542C112.466 245.763 110.064 245.974 107.699 246.332C106.052 246.581 104.481 247.216 102.831 247.399C100.721 247.635 98.5181 247.613 96.3869 247.801C88.526 248.495 80.3782 250.209 72.737 252.173C71.0061 252.617 69.0174 252.933 67.3637 253.647C66.921 253.838 66.5226 254.265 66.0985 254.429C65.3874 254.703 65.4847 254.514 64.8532 254.639C61.0698 255.396 57.1667 256.631 53.3838 257.6C51.2855 258.138 47.8723 258.623 46.1605 260.088C45.3933 260.744 44.7227 261.907 45.9523 262.652C46.9345 263.248 48.3365 262.297 49.1314 261.784C48.4232 263.629 47.0874 264.549 47.809 266.649C48.3784 268.308 49.6642 270.353 51.6424 269.283C51.9074 269.899 52.0146 271.125 52.7947 271.351C53.4958 271.555 54.0033 270.666 54.69 270.875C54.9359 270.95 54.8425 271.415 55.0627 271.536C55.4421 271.745 55.8266 271.834 56.2613 271.981C56.6349 272.108 57.2363 272.368 57.6261 272.396C57.8735 272.413 58.4563 271.99 58.4544 271.99C59.0225 272.076 59.3279 273.163 59.7368 273.477C60.2677 273.885 60.7062 273.978 61.371 274.126C62.753 274.433 64.5344 274.959 65.4465 273.544C65.2378 274.554 66.6117 274.455 67.2179 274.584C67.1507 274.051 66.8567 273.564 66.403 273.272C67.7583 273.361 67.2089 274.708 68.2106 275.064C68.9245 275.317 68.8435 274.674 69.3896 274.603C70.1092 274.509 70.6554 275.031 71.7791 274.549C72.0226 275.632 72.1117 276.723 73.4409 276.884C74.221 276.979 76.04 275.571 75.9371 276.743C77.6799 276.232 78.3414 276.577 79.2521 278.113C79.406 277.17 80.1509 277.444 80.8343 277.386C81.9175 277.293 81.9451 277.381 82.7848 276.767C82.8615 276.711 83.5221 275.198 83.8156 276.139C83.9476 276.56 83.0751 277.551 82.7519 277.803C83.1532 278.006 84.468 278.717 84.9737 278.586C85.4112 278.473 85.4126 277.726 85.9382 277.687C85.8096 278.117 85.6814 278.547 85.5522 278.977C86.5749 279.126 87.4294 278.441 88.2372 277.94C89.0073 279.887 91.2085 278.79 92.4057 280.256C93.039 281.031 93.0686 281.62 94.2752 281.823C95.51 282.03 96.5885 281.488 97.6378 282.506C97.3052 281.874 96.4765 281.35 97.3 280.671C97.8604 281.467 98.1497 282.424 98.7959 283.164C98.885 282.788 98.9741 282.412 99.0632 282.036C100.748 283.837 102.869 283.853 105.026 284.852V283.533C106.571 285.891 106.654 284.399 108.5 283.436C108.374 284.13 108.249 284.823 108.123 285.516C109.451 285.416 110.692 286.989 111.783 285.653C112.441 286.757 113.24 286.214 114.319 286.564C114.933 286.764 115.39 287.368 115.987 287.587C116.882 287.915 117.15 287.9 117.993 288.185C118.742 288.439 119.168 288.932 120.107 289.091C120.716 289.194 121.269 289.186 121.852 289.158C122.078 289.147 122.004 288.64 122.504 288.758C123.279 288.941 123.855 289.913 124.413 290.411C125.252 288.302 127.6 291.126 128.735 291.502C128.844 290.962 128.825 290.311 129.216 289.866C129.675 290.873 129.851 291.719 130.804 292.367C131.355 292.741 132.163 293.009 132.799 293.146C133.2 293.232 133.93 293.129 134.183 293.252C134.614 293.464 134.773 294.027 135.208 294.08C135.464 294.111 135.843 293.438 136.034 293.49C136.911 293.729 137.398 294.795 138.284 295.371C140.919 297.085 144.235 297.251 147.17 297.627C147.907 297.721 148.014 297.52 148.612 297.952C148.932 298.183 148.787 298.886 149.18 299.083C150.659 299.824 150.66 298.242 150.97 297.259C151.46 297.905 151.544 298.757 152.214 299.271C152.579 299.26 152.945 299.269 153.31 299.296C153.516 299.531 153.652 299.802 153.714 300.109C154.601 300.708 155.605 300.499 156.52 300.949C156.821 301.096 157.353 301.987 157.722 302.243C158.384 302.701 159.408 302.946 160.164 303.145C161.75 303.563 164.024 303.008 164.968 304.664C166.221 303.321 165.736 304.925 166.587 305.262C167.089 305.461 167.845 304.67 168.402 304.749C169.405 304.89 169.766 305.976 170.087 306.765C170.698 306.629 170.279 304.901 170.262 304.522C171.021 304.432 171.19 306.431 171.321 306.871C172.519 306.294 170.552 304.497 171.841 303.921C171.722 305.451 172.942 306.711 170.764 306.931C171.065 307.852 178.089 308.876 178.577 308.063C178.685 309.567 179.696 308.162 180.068 307.647C180.11 308.524 179.812 309.77 180.796 310.178C181.465 310.454 182.974 309.738 183.237 309.082C183.536 310.084 184.039 310.052 184.663 310.688C185.092 311.125 185.374 311.883 185.824 312.249C186.652 312.922 188.192 312.819 189.156 312.669C191.044 312.374 190.821 312.012 191.493 313.974C191.645 313.229 192.122 311.673 192.953 312.83C193.482 313.565 192.356 315.186 192.03 315.832C192.757 315.433 193.479 314.959 194.307 314.787C194.353 315.042 194.395 315.583 194.273 315.819C194.298 315.771 195.181 316.363 195.508 316.527C195.429 316.487 195.767 315.014 195.757 315.062C196.922 315.78 196.114 317.154 197.145 317.863C197.411 318.047 198.037 317.833 198.359 317.944C198.92 318.139 199.405 318.664 199.903 318.972C199.505 318.438 199.563 317.542 199.59 316.926C199.843 317.066 200.024 317.59 200.28 317.631C200.377 317.647 201.38 317.78 201.374 317.775C202.418 318.506 202.203 318.598 201.306 319.478C201.627 319.981 202.965 319.106 203.327 318.961C203.403 319.158 203.423 319.873 203.565 320C203.652 320.212 203.738 320.424 203.825 320.635C204.092 320.436 204.379 320.369 204.685 320.436C204.879 320.503 206.389 321.117 206.491 320.907C206.161 320.8 205.861 320.636 205.594 320.416C206.465 319.632 207.038 319.216 207.842 320.347C207.943 320.489 207.595 321.001 207.698 321.187C208.082 321.879 208.87 322.429 209.405 322.993C209.627 322.215 209.111 320.266 210.342 320.337C211.325 320.394 212.072 322.775 211.732 323.516C212.123 323.089 214.456 322.664 214.897 322.797C216.142 323.175 215.792 324.326 217.325 322.639C218.369 323.36 217.449 323.633 217.637 324.512C217.913 324.57 218.174 324.502 218.421 324.308C218.236 328.042 220.992 325.189 222.782 325.759C223.484 325.983 223.664 326.78 224.418 327.014C224.817 327.136 225.26 326.845 225.648 326.916C225.959 326.872 226.268 326.817 226.575 326.752C226.964 326.557 227.146 326.775 227.122 327.406C227.748 327.73 227.511 327.857 228.242 327.919C228.713 327.96 229.146 327.471 229.681 327.554C230.604 327.699 230.482 328.407 231.072 328.778C231.603 329.111 232.202 329.1 232.856 329.036C233.189 329.003 234.124 328.574 234.237 328.572C234.936 328.563 234.557 328.414 235.395 329.014C236.048 329.482 236.322 329.785 237.124 330.001C238.043 330.247 239.674 330.786 240.293 330.122C241.128 331.374 241.782 330.455 242.885 330.538C243.449 330.581 243.539 330.8 244.041 330.888C244.855 331.03 245.871 330.907 246.737 331.185C248.101 331.623 248.255 331.843 249.649 331.903C249.901 331.804 250.153 331.706 250.404 331.608C250.479 332.027 250.677 332.37 250.998 332.636C251.778 332.799 252.29 332.405 252.933 331.974C253.413 333.467 254.968 333.598 256.299 333.794C258.446 334.111 260.499 334.284 262.569 334.99C264.317 335.585 266.069 336.255 267.751 337.018C269.231 337.689 270.628 338.693 272.303 338.222C276.097 337.153 279.774 333.258 282.949 331.022C286.709 328.373 290.764 326.191 294.693 323.809C310.333 314.328 326.857 306.308 342.279 296.475C350.698 291.106 358.511 284.728 367.552 280.384C366.265 285.703 364.074 291.103 364.47 296.671C364.629 298.915 365.29 301.566 367.031 303.133C369.182 305.07 371.579 303.837 373.637 302.453C378.046 299.488 380.987 295.162 384.287 291.1C388.19 286.294 391.218 281.131 394.085 275.654C394.771 276.618 394.249 278.233 394.259 279.302C394.272 280.666 394.64 281.98 395.273 283.198C396.905 286.34 400.012 287.102 402.82 284.949C408.223 280.806 411.359 273.426 414.254 267.483C415.905 270.555 418.249 274.422 422.215 272.228C425.487 270.417 427.409 266.372 428.41 262.945C431.332 252.943 430.406 242.755 430.855 232.502Z" fill="#030047"/>
<path fill-rule="evenodd" clip-rule="evenodd" d="M425.893 172.423C425.52 171.517 425.356 171.665 426.042 170.786C426.577 171.313 426.149 171.748 425.893 172.423ZM442.429 227.282C441.38 224.298 442.028 221.059 441.391 217.999C441.098 216.595 440.637 215.233 440.47 213.803C440.396 213.169 439.832 210.314 440.216 209.865C439.032 209.148 439.029 208.617 438.755 207.212C439.177 206.765 439.124 206.383 438.596 206.066C438.251 205.648 437.905 205.231 437.56 204.813C439.07 205.551 438.177 203.662 438.023 202.573C437.901 201.712 437.819 200.814 437.532 199.989C437.179 198.975 436.393 198.462 438.027 198.462C437.489 197.851 436.685 197.22 436.418 196.471C436.032 195.394 436.668 193.97 435.882 193.018C435.444 192.487 433.187 192.279 433.583 191.133C433.785 190.549 434.7 190.985 434.983 190.575C436.095 188.966 432.81 188.3 432.649 187.615C432.44 186.728 433.627 186.53 433.7 185.7C433.771 184.888 432.508 183.554 432.175 182.827C431.72 182.938 431.222 183.657 430.701 183.313C430.603 183.249 430.751 180.437 430.633 180.064C430.516 179.697 430.278 178.724 430.194 178.544C429.857 177.829 428.893 177.48 428.74 176.635C428.648 176.131 430.624 175.368 428.358 175.344C429.172 173.909 427.681 173.038 427.138 171.812C426.44 170.236 426.029 168.534 425.312 166.95C424.615 165.41 423.836 163.949 422.832 162.587C421.922 161.354 421.529 160.169 420.803 158.867C420.657 158.752 420.512 158.638 420.366 158.524C419.76 158.611 419.566 158.335 419.783 157.695C419.319 157.009 418.975 156.276 418.566 155.558C418.091 154.725 417.45 154.045 416.959 153.235C416.308 152.16 416.115 150.948 415.379 149.87C414.474 148.544 413.456 147.374 412.617 145.999C411.565 144.275 410.401 143.204 409.078 141.869C408.449 141.233 408.373 139.645 407.601 138.742C406.761 137.759 405.931 137.493 405.349 136.202C404.591 134.523 403.479 133.722 402.397 132.271C401.504 131.074 401.068 129.698 400.084 128.54C399.239 127.545 398.278 126.636 397.375 125.693C396.235 124.502 395.394 123.055 394.207 121.923C394.378 122.086 393.174 121.132 393.235 121.162C392.968 121.027 392.109 120.918 392.234 120.991C390.443 119.939 388.199 116.086 385.504 118.127C384.086 119.201 384.766 121.17 385.756 122.24C386.181 122.699 388.39 124.964 388.867 124.009C389.382 124.739 390.969 128.268 392.288 127.257C392.154 128.463 392.853 128.063 393.314 128.878C393.617 129.416 393.47 129.68 393.691 130.52C394.299 132.828 396.621 135.083 397.858 137.096C400.936 142.106 404.332 146.858 407.413 151.874C410.349 156.654 413.637 161.19 416.454 166.035C419.658 171.544 423.649 176.744 426.063 182.683C426.145 182.883 426.815 183.199 426.982 183.498C427.272 184.019 427.209 184.92 427.396 185.51C428.044 187.555 429.094 189.569 430.29 191.263C431.339 192.749 431.416 194.769 432.138 196.513C433.156 198.971 434.232 201.403 435.221 203.873C436.761 207.717 437.804 211.402 438.868 215.416C439.558 218.017 440.106 220.616 440.326 223.302C440.528 225.772 440.577 228.345 441.492 230.684C442.115 229.721 442.849 228.474 442.429 227.282Z" fill="#030047"/>
<path fill-rule="evenodd" clip-rule="evenodd" d="M90.184 280.209C89.0774 279.986 88.0361 279.688 87.8016 278.417C87.641 279.016 87.4809 279.615 87.3203 280.214C88.6676 280.519 90.0153 280.825 91.3625 281.13C91.048 280.575 90.8183 280.338 90.184 280.209Z" fill="#030047"/>
<path fill-rule="evenodd" clip-rule="evenodd" d="M93.1532 71.6935C93.2371 71.3351 93.3458 70.9839 93.4797 70.6413C93.5707 70.9753 94.0168 71.6978 93.757 72.0128C93.4263 72.4126 93.0918 72.1863 93.1532 71.6935ZM98.578 61.3721C98.9411 61.5322 99.7269 61.5632 100.178 61.6986C99.0083 62.7046 98.8024 62.4086 97.2903 62.2919C97.2231 61.2739 97.6367 60.958 98.578 61.3721ZM88.441 86.5718C88.5978 86.5761 88.7551 86.5799 88.9128 86.5837C88.9223 86.1405 88.9109 85.6978 88.8775 85.2555C90.4721 85.6039 89.5695 82.8174 89.0686 82.2398C90.6241 82.2918 91.3819 77.367 91.8746 76.4181C92.3121 75.5756 92.8077 75.2496 93.1275 74.2221C93.4073 73.3229 93.7099 72.5137 94.1135 71.663C95.0409 69.7072 96.2576 67.931 96.0331 65.6516C96.819 67.362 97.51 65.6545 98.0085 64.8367C98.8115 63.519 100.771 61.8377 100.979 60.2727C101.163 58.8949 100.139 58.822 100.743 57.5444C101.354 56.251 101.857 56.3806 102.927 55.9669C103.639 55.6915 103.781 56.026 104.283 55.1272C104.608 54.5454 104.494 54.1117 104.911 53.6346C105.083 53.7843 105.278 53.8462 105.498 53.8205C105.836 53.374 106.058 52.8764 106.163 52.3279C106.439 51.5873 106.573 50.9073 106.988 50.202C107.382 49.5338 108.082 47.7462 108.453 47.4241C108.846 47.0819 111.079 47.2559 111.07 47.2683C111.992 46.1083 110.299 44.9526 112.643 45.1971C112.18 44.3355 113.806 43.2661 114.277 42.7867C115.456 41.59 115.55 41.0362 115.799 39.5313C115.925 38.764 115.1 38.8526 116.206 38.6777C116.663 38.6058 117.101 39.19 117.431 39.1043C118.887 38.7268 117.364 38.7988 117.765 38.2055C117.892 38.0172 118.54 37.2576 118.534 37.2657C118.502 37.3038 118.679 36.6047 118.826 36.425C119.104 36.4012 119.378 36.3526 119.648 36.2792C119.785 36.0028 119.906 35.7197 120.01 35.43C121.064 34.5512 122.641 34.158 123.369 33.1925C123.841 32.5682 123.699 31.9568 124.309 31.3344C124.888 30.7415 125.656 31.1709 125.771 29.8318C125.917 28.1281 124.087 27.3699 123.338 29.0893C121.308 26.5888 112.822 35.7631 111.842 36.9616C107.584 42.1647 103.399 47.4965 99.9061 53.2501C96.503 58.8563 93.7099 64.7552 91.5267 70.9386C90.474 73.92 89.833 76.888 89.1901 79.9719C88.9743 81.0046 87.3611 85.6067 88.0326 86.6366C88.1684 86.6152 88.3047 86.5932 88.441 86.5718Z" fill="#030047"/>
<path fill-rule="evenodd" clip-rule="evenodd" d="M423.61 214.166C424.328 213.688 424.328 213.688 424.453 212.784C423.492 212.959 423.492 212.959 423.61 214.166Z" fill="#030047"/>
<path fill-rule="evenodd" clip-rule="evenodd" d="M70.0782 274.988C70.0872 274.987 70.0939 274.989 70.0991 274.994C70.0839 274.975 70.0289 274.918 70.0782 274.988Z" fill="#030047"/>
<path fill-rule="evenodd" clip-rule="evenodd" d="M69.5974 275.473C69.819 275.952 70.175 276.071 70.6658 275.829C70.8593 276.106 68.9874 274.105 69.5974 275.473Z" fill="#030047"/>
<path fill-rule="evenodd" clip-rule="evenodd" d="M101.968 56.8759C100.845 59.078 102.252 57.4763 102.18 58.1916C102.227 57.7217 102.422 57.0522 101.968 56.8759Z" fill="#030047"/>
<path fill-rule="evenodd" clip-rule="evenodd" d="M284.583 90.9603C285.069 94.9091 290.471 93.0414 291.687 90.6529C292.572 88.9139 294.806 82.0424 292.402 80.5908C290.62 79.5147 290.239 84.1526 289.799 85.1886C289.063 86.9238 288.488 85.6943 286.851 86.1394C285.044 86.6307 284.381 89.3228 284.583 90.9603Z" fill="#030047"/>
<path fill-rule="evenodd" clip-rule="evenodd" d="M278.68 83.7326C280.611 84.1615 282.504 83.9404 283.876 82.4154C284.636 81.5709 285.646 79.8958 284.279 79.0785C283.039 78.3384 281.634 80.0716 280.328 79.7133C278.553 79.2257 279.467 77.3224 278.858 76.0652C276.62 77.3538 275.372 82.9977 278.68 83.7326Z" fill="#030047"/>
<path fill-rule="evenodd" clip-rule="evenodd" d="M280.682 93.7034C278.821 93.6996 278.805 95.989 279.777 96.9702C280.707 97.9091 283.058 98.8593 284.319 98.1292C286.806 96.6881 282.189 93.8521 280.682 93.7034Z" fill="#030047"/>
<path fill-rule="evenodd" clip-rule="evenodd" d="M172.375 184.745C172.772 184.938 173.944 185.931 174.437 185.482C173.741 184.78 173.043 184.078 172.347 183.376C171.962 183.799 171.698 184.416 172.375 184.745Z" fill="#030047"/>
<path fill-rule="evenodd" clip-rule="evenodd" d="M163.578 84.3037C163.38 84.4514 163.182 84.5987 162.984 84.746C163.652 85.3021 163.635 85.4675 164.308 84.9409C164.108 84.6778 163.865 84.4657 163.578 84.3037Z" fill="#030047"/>
<path fill-rule="evenodd" clip-rule="evenodd" d="M289.738 215.318C289.364 214.646 288.657 215.885 288.179 216.087C287.401 216.414 286.763 214.679 286.986 216.759C285.228 215.954 284.161 217.8 283.027 218.762C281.426 220.121 279.466 220.859 278.398 222.789C283.427 223.965 288.953 219.629 292.703 216.782C293.315 216.316 296.373 213.97 294.3 213.743C293.453 213.651 290.367 216.447 289.738 215.318Z" fill="#030047"/>
<path fill-rule="evenodd" clip-rule="evenodd" d="M288.246 211.247C289.232 210.471 287.107 210.4 286.771 210.319C286.8 210.936 286.828 211.553 286.857 212.17C287.333 211.881 287.796 211.574 288.246 211.247Z" fill="#030047"/>
<path fill-rule="evenodd" clip-rule="evenodd" d="M284.546 213.835C284.84 213.651 285.661 213.077 285.103 212.649C284.598 212.97 284.237 213.494 284.158 214.092C284.287 214.007 284.416 213.921 284.546 213.835Z" fill="#030047"/>
<path fill-rule="evenodd" clip-rule="evenodd" d="M203.095 163.792C202.466 164.039 202.183 164.429 202.25 164.964C203.217 164.766 203.033 163.853 203.095 163.792Z" fill="#030047"/>
</svg>
