<svg width="325" height="264" viewBox="0 0 325 264" fill="none" xmlns="http://www.w3.org/2000/svg">
<path fill-rule="evenodd" clip-rule="evenodd" d="M137.205 0.0237154C179.08 0.96234 206.633 37.0708 221.526 76.2042C240.036 124.845 261.875 186.582 219.932 217.412C177.678 248.471 123.988 210.851 83.2194 177.867C50.5323 151.421 28.1718 112.369 40.3823 72.1439C53.303 29.5793 92.7174 -0.97346 137.205 0.0237154Z" fill="#FAC63E"/>
<path fill-rule="evenodd" clip-rule="evenodd" d="M42.6225 74.7498C43.1856 74.8799 43.4582 74.6558 43.5559 74.0734C43.187 74.3407 42.9047 74.5453 42.6225 74.7498ZM49.9949 212.729C49.4955 212.756 49.9898 214.023 50.0535 214.018C50.0338 213.588 50.0143 213.158 49.9949 212.729ZM186.161 56.0544C186.812 56.1638 190.476 57.1669 189.243 55.121C188.58 54.0217 187.243 56.0553 186.161 56.0544ZM174.054 80.7872C172.19 81.8197 177.941 85.4651 178.764 85.6935C179.568 85.9166 185.628 86.7208 185.701 85.3849C183.586 84.9165 181.461 85.1993 179.388 84.5735C176.853 83.8077 175.873 82.5469 174.054 80.7872ZM264.694 137.082C264.806 135.42 264.873 133.805 265.21 132.169C265.28 131.829 265.851 130.263 265.725 130.059C265.525 129.74 264.006 129.473 263.692 129.366C263.451 132.622 263.177 135.868 262.725 139.104C263.786 138.738 263.509 137.276 264.694 137.082ZM66.4501 60.8189C66.4501 59.0371 65.9758 56.3859 65.6209 54.6566C65.3307 53.243 64.2967 51.8678 63.7055 50.4459C63.5213 51.4246 62.8753 52.9195 63.0818 53.9177C63.3518 55.219 63.9675 55.0053 63.9675 56.6068C63.9675 57.5806 63.8067 58.6896 63.9838 59.6474C64.3315 61.534 64.8895 61.2323 66.4501 60.8189ZM203.433 47.071C201.299 45.8875 197.651 48.1385 195.738 49.1736C193.467 50.4027 191.182 53.7066 190.261 56.1063C191.163 56.006 191.926 55.9891 192.582 55.5026C192.92 55.2522 193.275 54.5448 193.594 54.2111C194.417 53.3499 195.453 52.548 196.356 51.7644C198.507 49.897 200.833 48.2445 203.433 47.071ZM216.048 76.902C217.82 76.5897 219.863 75.7841 220.37 73.7858C220.861 71.8545 219.446 70.9193 217.718 70.6793C213.753 70.1275 211.071 75.8869 216.048 76.902ZM202.211 70.942C204.166 72.3083 206.303 72.1355 208.239 70.6088C209.789 69.3866 211.302 67.2966 209.545 65.8025C206.723 63.4019 202.677 68.3139 202.211 70.942ZM286.536 222.139C285.312 222.215 283.339 223.495 282.266 224.126C280.919 224.917 279.502 225.751 278.2 226.481C275.497 227.995 272.46 229.695 269.463 230.831C266.525 231.944 263.562 233.345 260.561 234.662C259.277 235.225 257.481 235.883 256.026 235.73C254.694 235.59 253.295 234.219 252.101 233.619C250.248 232.686 249.043 231.476 247.563 229.983C246.918 229.334 245.275 226.603 244.405 226.5C243.661 226.413 241.627 228.042 241.046 228.392C240.148 228.933 238.793 229.82 237.94 230.499C237.095 231.172 237.048 230.678 236.989 231.562C236.949 232.162 238.326 233.341 238.75 233.825C240.176 235.452 241.664 237.044 243.011 238.741C244.168 240.199 245.244 241.764 246.238 243.338C247.201 244.865 248.986 246.632 249.375 248.418C251.616 246.221 253.818 247.292 256.636 246.63C257.855 246.344 258.939 245.667 260.082 245.266C261.034 244.931 262.057 244.822 263.038 244.605C267.386 243.644 271.606 241.763 275.673 240.081C276.623 239.688 277.411 238.937 278.329 238.483C279.313 237.996 280.387 237.834 281.379 237.386C283.93 236.235 286.516 235.024 289.039 233.791C291.745 232.469 294.597 231.326 297.252 229.93C298.856 229.087 301.968 227.576 302.709 225.791C300.937 226.109 299.449 227.119 297.808 227.63C294.913 228.532 295.055 225.804 295.055 223.726C294.087 223.726 292.142 225.116 291.215 225.548C290.017 226.105 288.447 227.578 287.117 227.677C283.828 227.922 285.417 223.591 286.536 222.139ZM170.327 74.2768C168.49 73.7216 168.122 70.2057 167.344 68.7517C166.196 66.607 163.997 64.8699 162.242 63.1939C160.628 61.6526 158.9 60.3484 157.089 59.054C155.234 57.7278 153.951 55.9834 152.245 54.5211C145.121 48.4144 136.422 46.347 127.229 46.0278C117.993 45.7073 108.672 46.7283 99.3918 47.322C98.2093 47.3976 97.1524 47.4308 95.9727 47.6305C95.6893 47.5448 95.4062 47.4592 95.1227 47.3735L94.4665 47.8465C94.0116 47.9136 93.3645 47.9832 92.9456 48.0646C90.7831 48.4843 88.6217 49.0427 86.4603 49.532C81.8784 50.5688 77.4482 51.522 72.8302 52.4907C71.7291 52.7216 69.0509 52.87 68.1872 53.5693C67.5172 54.1119 67.7675 54.3257 67.924 55.3224C68.068 56.2392 68.2118 57.1557 68.356 58.0725C68.6357 59.8522 68.5143 60.4665 70.4366 60.2823C72.0891 60.1238 73.6999 59.8304 75.3711 59.7545C77.7736 59.6448 80.2158 59.5053 82.6189 59.5528C84.9995 59.6001 87.742 59.2047 90.0725 59.8158C89.354 58.3083 88.9308 53.7418 90.8377 56.9019C91.7339 58.3874 91.5119 60.2078 93.4388 60.7381C95.0099 61.1704 96.719 61.4228 98.3384 61.8331C104.722 63.4506 111.375 64.5657 116.821 68.7772C122.158 72.9051 127.016 77.6569 133.848 79.1636C135.486 79.5252 137.479 79.7355 139.204 79.8188C140.209 79.8672 142.206 79.2581 142.889 80.1666C144.547 82.3715 138.406 84.9658 137.175 86.0642C134.673 88.2974 131.845 90.0428 129.678 92.6491C127.414 95.3728 125.468 98.3409 123.801 101.447C120.049 108.436 117.399 115.846 115.859 123.625C115.13 127.307 114.306 131.525 114.961 135.292C115.226 136.812 116.076 138.326 117.386 139.193C117.812 139.475 118.345 139.67 118.837 139.818C119.303 139.97 119.779 140.061 120.268 140.089C120.323 139.813 120.427 139.56 120.581 139.328C120.927 139.148 121.655 139.24 121.899 139.077C122.596 138.611 123.235 137.713 123.92 137.171C125.11 136.231 126.394 135.337 127.703 134.577C131.003 132.663 134.596 131.537 138.127 130.333C145.397 127.854 153.012 125.821 160.731 125.065C164.804 124.665 169.382 124.42 173.419 125.176C176.023 125.664 181.305 127.954 181.441 131.117C183.802 127.118 182.305 122.912 181.798 118.638C181.232 113.86 180.26 109.349 181.862 104.634C182.952 101.427 184.827 97.1958 188.014 95.5579C189.155 94.9714 191.59 95.3252 190.745 97.2634C190.723 97.3132 189.134 98.2189 188.908 98.4824C188.135 99.3838 187.549 100.562 186.973 101.596C182.393 109.824 186.469 118.807 186.769 127.538C186.908 131.569 191.383 134.91 194.365 137.138C196.683 138.87 199.134 141.044 201.858 141.937C201.303 139.319 202.341 138.57 204.659 140.131C205.931 140.988 206.696 142.925 204.516 143.023C206.235 144.501 209.745 145.647 211.929 146.216C214.487 146.882 217.106 147.476 219.772 147.854C225.094 148.608 230.513 148.368 235.864 148.423C241.374 148.479 245.972 147.007 251.034 145.094C253.357 144.215 255.541 143.2 257.751 142.046C258.501 141.655 260.201 141.2 260.613 140.343C261.145 139.24 260.351 136.378 260.398 135.116C260.448 133.772 261.444 130.98 261.14 129.757C260.849 128.585 261.586 129.408 260.397 128.822C260.076 128.664 259.355 128.581 258.961 128.537C256.76 128.289 254.157 128.493 252.018 128.769C249.568 129.085 247.297 128.658 244.914 128.94C241.607 129.332 238.213 129.918 235.018 130.866C229.977 132.362 225.311 132.256 220.806 129.394C218.9 128.183 216.655 126.941 215.022 125.284C212.826 123.057 211.217 119.886 209.977 117.043C207.25 110.787 205.263 104.22 201.53 98.4486C199.929 95.9753 197.704 93.9626 195.649 91.8566C194.676 90.8607 194.117 90.2869 192.786 89.8583C191.711 89.5128 189.529 89.407 189.319 87.9408C184.742 90.421 178.433 92.3499 173.721 89.0572C169.401 86.0387 168.879 78.9169 170.327 74.2768ZM170.09 134.053C164.125 134.712 158.349 135.207 152.483 136.566C146.565 137.937 140.391 140.028 134.774 142.092C132.57 142.902 129.778 143.473 127.782 144.727C126.302 145.657 126.487 145.622 127.549 147.336C128.261 148.484 128.859 149.769 129.62 150.871C132.714 155.35 136.953 159.181 140.509 163.245C144.438 167.735 149.041 172.18 153.544 176.114C157.875 179.898 162.144 183.952 166.749 187.352C176.346 194.439 186.066 201.427 196.041 207.972C201.581 211.606 206.988 215.33 212.543 218.991C215.43 220.894 218.126 222.996 221.194 224.585C224.36 226.226 228.228 228.523 230.834 230.946C232.654 227.725 236.501 225.64 239.38 223.557C239.955 223.141 240.573 222.579 241.124 222.113C242.172 221.226 242.225 221.373 241.665 220.358C241.049 219.241 239.369 218.342 238.489 217.418C237.685 216.573 237.154 215.716 236.423 214.812C233.993 211.804 230.863 209.307 228.143 206.571C225.524 203.937 223.09 201.263 220.53 198.458C219.262 197.069 217.822 196.069 216.606 194.664C214.918 192.712 213.254 190.712 211.587 188.74C208.596 185.202 206.083 181.446 203.173 177.89C197.878 171.418 193.861 164.102 189.226 157.16C186.382 152.9 182.864 148.923 180.278 144.494C178.854 142.054 177.482 139.623 176.461 136.958C175.88 135.44 176.02 135.321 174.601 134.877C173.232 134.448 171.503 134.151 170.09 134.053ZM95.9867 196.205C99.0064 195.913 102.113 196.917 105.043 197.041C107.892 197.161 110.806 197.472 113.661 197.284C116.793 197.078 119.944 197.084 123.064 197.182C126.447 197.287 129.669 196.738 132.929 196.26C136.225 195.776 139.815 194.276 143.037 193.316C144.943 192.748 146.776 192.011 148.691 191.476C150.628 190.934 152.171 189.648 153.936 188.66C155.14 187.987 157.693 187.171 157.159 185.785C156.683 184.554 153.517 182.706 152.482 181.811C149.419 179.166 146.314 176.541 143.477 173.637C137.459 167.479 131.724 161.336 126.641 154.386C125.433 157.806 124.1 161.277 121.43 163.88C119.161 166.093 116.547 167.989 114.124 170.004C109.418 173.916 103.756 176.703 98.1347 178.956C95.3533 180.071 92.6639 180.787 89.8611 181.773C88.5343 182.24 87.1214 182.149 85.8775 182.442C83.9923 182.886 82.0232 183.804 80.1138 184.343C77.4225 185.104 74.7014 185.637 71.8874 185.395C68.2252 185.08 65.1807 183.282 61.8456 181.982C62.019 183.281 61.0224 187.885 61.761 188.857C62.1704 189.395 64.7907 189.617 65.6024 189.798C68.9146 190.538 72.4403 190.986 75.7493 191.415C79.2587 191.87 82.5687 193.609 85.9926 194.418C89.224 195.181 92.7933 195.893 95.9867 196.205ZM37.0171 215.152C37.228 217.616 37.5357 221.341 39.5288 223.114C40.2922 221.259 39.8688 218.752 40.2065 216.777C40.4076 215.6 40.6805 214.441 40.9645 213.282C41.1259 212.623 41.2248 210.726 41.5682 210.344C44.0336 207.599 44.533 215.768 44.8121 216.717C45.7244 214.515 45.4236 212.069 46.2338 209.917C47.203 207.343 48.7184 209.415 49.5446 211.031C49.7886 207.477 48.3935 203.894 48.4429 200.272C48.4961 196.409 49.1521 193.84 52.1077 191.239C53.5208 189.995 57.2951 188.473 57.9751 186.91C58.0908 186.644 58.0613 184.684 57.9859 184.41C57.6688 183.261 57.7871 183.497 56.3934 183.163C55.1722 182.869 54.0357 182.474 52.8 182.291C49.4341 181.791 46.8404 181.721 43.9876 183.819C41.0208 186.001 39.6105 189.884 38.8191 193.369C37.2023 200.487 36.4571 207.868 37.0171 215.152ZM270.044 136.534C275.086 135.89 280.077 133.825 285.049 133.482C288.039 133.276 291.372 132.59 294.301 131.962C296.227 131.549 300.251 131.209 301.327 129.344C300.028 129.744 298.315 130.656 296.957 130.691C295.959 130.717 295.611 130.906 295.414 129.535C295.319 128.878 295.533 128.091 295.931 127.575C296.616 126.687 298.083 126.252 299.08 125.687C300.423 124.926 301.672 124.111 302.937 123.225C302.551 122.267 297.161 124.188 296.316 124.492C295.27 124.869 294.209 125.234 293.204 125.714C292.545 126.029 291.402 127.047 290.658 127.02C288.776 126.952 288.945 124.678 289.857 123.372C291.149 121.521 293.724 120.144 295.459 118.706C293.604 118.785 291.919 119.87 290.215 120.519C288.332 121.237 286.423 122.052 284.58 122.853C280.058 124.818 275.24 126.165 270.641 128.061C272.024 130.422 270.452 131.584 268.194 130.716C267.854 132.707 267.721 134.735 267.721 136.75C268.495 136.678 269.27 136.606 270.044 136.534ZM60.459 56.1902C60.4842 55.7542 60.8142 53.6269 60.423 53.2588C60.2862 53.1301 58.0868 53.4401 57.8702 53.4719C56.4397 53.6822 55.2577 54.2182 53.918 54.7895C50.6395 56.1876 47.3241 57.4488 44.0519 58.8564C37.9254 61.4916 31.8569 63.9388 26.1376 67.3651C30.3878 67.0052 34.7357 65.7727 38.6054 63.9766C40.2422 63.2171 46.3858 58.11 46.5667 62.5536C46.6467 64.5201 44.955 65.2195 43.5267 66.1669C41.7779 67.3267 40.0639 68.4769 38.44 69.8046C37.5763 70.5111 30.6909 75.1463 31.0241 75.8881C32.7729 75.4695 34.6532 74.1479 36.1934 73.2265C37.9077 72.2006 39.7059 71.2884 41.4759 70.3561C42.4413 69.8473 44.6441 68.0802 45.705 68.8528C47.5429 70.1916 45.0238 72.6796 44.1961 73.5949C45.805 73.4276 47.9607 71.0829 49.2123 70.1057C50.7952 68.8697 52.4597 67.7656 54.0663 66.5491C55.7454 65.2776 57.5036 64.0852 59.2085 62.8447C60.8007 61.6861 60.5427 61.6927 60.3867 59.7837C60.2887 58.585 60.3902 57.3869 60.459 56.1902ZM130.092 137.932C132.164 137.72 134.02 136.444 136.009 136.044C137.969 135.651 139.819 134.558 141.746 133.939C144.281 133.124 146.846 132.521 149.465 132.061C151.662 131.675 153.783 130.838 155.983 130.583C160.522 130.054 164.856 129.445 169.426 130.095C171.688 130.417 173.669 130.892 175.692 131.974C177.943 133.179 178.165 133.119 180.583 132.054C179.827 130.018 176.96 128.666 175.036 128.251C172.137 127.626 169.098 127.908 166.146 128.007C161.048 128.177 155.754 129.286 150.87 130.66C141.505 133.295 132.506 136.363 123.899 140.753C124.627 141.754 125.394 140.537 126.238 140.022C127.47 139.27 128.835 138.663 130.092 137.932ZM209.757 61.927C208.123 61.6039 206.49 61.4738 204.859 61.085C202.798 60.5937 201.895 61.3412 199.977 62.3012C200.745 62.6513 201.723 63.2575 202.54 63.469C203.978 63.8414 203.497 63.5403 204.864 62.9925C206.076 62.5063 208.359 62.3107 209.607 62.5642C212.949 63.2432 212.413 67.1926 212.093 69.8252C213.74 69.0242 213.949 67.516 214.534 65.9816C215.168 64.3207 215.85 62.8126 216.338 61.0859C214.253 61.6319 211.923 61.95 209.757 61.927ZM235.991 124.504C241.921 122.288 248.58 122.854 254.679 122.337C257.026 122.138 260.271 122.494 262.581 123.247C263.688 123.608 264.934 123.872 265.984 124.361C266.548 124.623 267.003 125.253 267.583 125.448C268.718 125.828 268.659 125.605 269.876 124.938C270.942 124.352 272.017 123.794 273.113 123.268C279.743 120.084 286.435 117.26 293.258 114.605C295.03 113.915 296.791 113.451 298.612 112.849C299.761 112.47 301.771 111.695 303.008 112.089C307.32 113.462 301.047 118.618 299.633 119.946C301.393 119.864 304.623 119.042 305.641 121.001C306.064 121.813 305.915 123.001 305.537 123.814C305.26 124.409 304.656 124.752 304.352 125.314C303.777 126.373 303.998 125.993 304.086 127.053C304.328 129.999 303.752 131.303 301.3 133.193C298.983 134.979 295.985 135.74 293.222 136.522C288.388 137.889 283.317 138.276 278.422 139.456C276.12 140.011 273.717 140.371 271.408 140.79C268.844 141.255 265.829 140.894 263.658 142.319C259.321 145.167 255.344 148.721 250.53 150.781C246.281 152.598 242.32 153.488 237.754 154.273C233.457 155.012 229.005 154.487 224.856 154.593C220.002 154.717 215.501 154.385 210.875 152.985C206.17 151.561 201.632 149.739 197.629 147.016C195.367 145.477 193.116 143.994 190.988 142.261C188.393 140.148 186.626 137.644 184.686 134.929C183.571 136.133 182.679 136.801 181.22 137.571C185.676 142.471 189.438 148.155 193.666 153.257C195.428 155.383 196.89 157.676 198.561 159.847C200.214 161.996 201.314 164.656 203.13 166.655C204.825 168.522 205.973 170.685 207.41 172.756C209.172 175.296 211.542 177.518 213.418 179.99C215.354 182.541 217.336 185.057 219.438 187.45C221.387 189.667 223.461 191.852 225.284 194.156C228.993 198.843 233.386 203.078 237.603 207.311C238.468 208.179 239.418 209.02 240.185 209.976C240.751 210.681 241.301 211.148 241.983 211.883C242.554 212.498 243.251 213.573 243.718 214.316C244.542 215.63 245.036 216.206 246.118 217.342C246.832 218.091 248.256 219.582 247.951 220.744C247.763 221.457 246.901 221.482 246.658 222.078C246.523 222.41 246.802 222.833 246.792 223.166C246.741 224.802 247.533 225.255 248.836 226.454C250.149 227.662 251.845 228.628 253.392 229.529C254.558 230.209 255.768 231.133 257.06 230.513C257.957 230.081 258.89 229.259 259.834 228.771C262.224 227.537 264.806 226.428 267.243 225.433C272.69 223.209 278.151 220.788 283.379 217.939C286.328 216.332 289.546 214.74 292.794 213.965C294.256 213.616 295.799 212.737 296.876 214.041C297.945 215.334 297.256 217.098 296.656 218.405C298.169 218.187 300.174 217.76 301.153 219.261C301.523 219.829 301.283 221.329 301.688 221.659C301.866 221.805 303.311 221.487 303.596 221.562C307.284 222.534 305.998 228.004 304.143 230.063C299.907 234.77 293.585 237.09 288.071 239.801C286.628 240.511 285.166 241.118 283.679 241.701C281.775 242.448 280.033 243.392 278.099 244.09C274.878 245.252 271.766 246.941 268.626 248.224C265.421 249.535 261.853 250.189 258.485 251.161C255.629 251.985 249.567 253.866 249.505 249.246C246.809 251.348 243.362 244.487 241.989 242.867C240.751 241.406 239.52 239.921 238.346 238.408C237.274 237.027 236.22 233.669 234.815 232.769C233.957 232.219 233.007 233.319 231.687 233.582C229.395 234.037 228.259 233.392 226.326 232.326C222.784 230.373 219.518 227.972 215.887 226.177C212.292 224.4 209.224 221.822 205.853 219.662C202.622 217.593 199.127 215.868 196.093 213.569C190.145 209.06 183.228 205.946 177.646 200.939C174.769 198.357 171.394 196.207 168.323 193.814C166.924 192.723 165.445 191.796 163.992 190.786C163.174 190.218 162.387 189.374 161.492 188.942C160.603 188.513 161.055 188.345 160.223 188.669C159.75 188.853 159.207 189.713 158.817 190.06C153.051 195.188 146.539 197.612 139.262 199.9C137.615 200.418 136.081 200.981 134.41 201.419C132.814 201.837 131.647 202.557 129.911 202.808C126.708 203.272 123.554 203.297 120.329 203.316C117.153 203.335 113.886 203.383 110.802 203.658C107.628 203.942 104.327 203.397 101.212 203.139C99.6358 203.009 98.0064 202.775 96.4267 202.535C94.8865 202.3 93.5856 202.598 92.0699 202.432C87.8091 201.967 84.0163 201 79.9567 199.609C76.2522 198.34 72.4691 198.111 68.7206 197.051C66.7281 196.488 64.4712 196.024 62.635 195.081C61.5919 194.545 60.0565 192.619 59.5868 193.985C59.0302 193.266 58.675 192.414 58.7359 191.489C57.3102 191.839 56.5891 193.683 55.5434 194.649C54.384 195.719 53.2426 196.421 52.4523 197.87C50.684 201.113 51.8329 205.543 52.5297 208.944C53.2603 212.512 53.9206 216.548 53.4983 220.189C53.3446 221.516 52.9931 223.457 51.3617 223.544C49.7015 223.633 48.7292 221.024 48.1415 219.88C46.8707 222.912 45.2033 223.979 42.7902 221.398C42.3313 223.118 43.567 230.067 40.1202 229.262C37.5363 228.659 35.3814 223 34.6129 220.872C32.0826 213.871 32.4806 205.833 33.3566 198.555C34.2063 191.495 34.9946 183.729 40.7102 178.669C43.183 176.479 45.5958 176.12 48.7312 176.201C51.8814 176.282 56.3057 177.692 58.4051 180.1C58.9253 179.209 57.8816 178.243 58.3011 177.321C58.861 176.089 60.0316 176.605 61.1662 176.884C63.7295 177.514 66.1112 178.689 68.7506 179.133C70.102 179.36 71.4937 179.291 72.846 179.429C74.0359 179.55 74.3525 179.243 75.3853 179.061C76.1993 178.917 77.4353 179.122 78.2039 178.854C78.525 178.743 79.0616 178.163 79.4618 177.966C80.115 177.646 81.0921 177.501 81.809 177.398C86.1217 176.783 90.2448 175.115 94.4207 173.693C99.4949 171.966 104.423 170.301 108.923 167.232C113.042 164.422 117.478 161.651 120.88 157.977C122.406 156.329 123.289 154.437 124.115 152.387C124.841 150.585 123.903 150.354 123.023 148.681C122.25 147.212 122.113 145.826 120.78 144.938C118.832 143.641 116.529 143.392 114.615 141.871C112.262 140 112.343 137.021 111.825 134.172C110.766 128.348 111.618 121.316 113.062 115.637C114.648 109.398 116.968 103.364 120.093 97.7427C123.039 92.4433 127.022 88.4682 131.303 84.3057C130.226 83.557 128.368 83.4453 127.086 82.8706C125.214 82.0314 123.683 80.7866 122.051 79.63C119.004 77.4707 116.244 75.1091 112.973 73.2895C109.935 71.5989 106.731 70.1684 103.492 69.0772C101.849 68.5234 99.9012 68.6637 98.1807 68.2042C96.8381 67.8455 95.313 67.6266 94.0125 67.1476C93.3416 66.9006 92.7533 66.358 92.0619 66.2042C84.5455 64.5322 76.2253 64.8651 68.4203 64.8227C66.7535 64.8135 64.0921 64.3245 62.5444 65.0507C60.9293 65.8088 59.119 67.677 57.6728 68.7494C54.268 71.2737 50.6715 73.4649 47.3652 76.1029C43.4502 79.2261 39.4511 82.3217 35.3929 85.2646C34.0006 86.2739 31.4598 88.7197 30.3241 86.2415C29.3501 84.1151 31.3101 81.9813 32.0235 80.1689C30.0169 81.3186 25.8253 84.5082 24.779 80.819C23.7673 77.2518 26.9761 73.9072 29.0792 71.4863C26.7199 71.9682 22.1725 73.3033 20.0385 71.6622C17.8509 69.9796 19.7277 66.305 21.2848 65.014C26.0299 61.0802 32.3606 58.6569 38.0408 56.4375C43.805 54.185 49.6106 52.4984 55.5245 50.9218C56.7411 50.5972 57.7873 49.5675 59.0499 49.4541C60.5047 49.3231 59.9713 50.2766 60.663 48.6585C60.9639 47.9545 60.8527 47.0942 61.2484 46.4198C63.173 43.1434 65.6432 48.0399 66.3852 49.7515C70.4977 48.0603 74.6905 47.2615 78.8927 46.0167C82.2135 45.0328 85.6277 43.9585 88.9885 43.0079C90.7988 42.4956 92.6293 42.2398 94.4599 41.9017C96.2084 41.5788 98.287 41.0565 100.148 40.8766C103.322 40.5692 106.688 40.2712 109.817 40.199C125.102 39.8455 141.352 38.8711 153.735 49.797C153.735 50.7932 156.923 53.4877 157.709 54.0366C159.901 55.5671 161.846 57.0698 163.878 58.8873C166.075 60.8521 167.832 62.551 169.135 65.2192C170.258 67.5183 170.532 70.0556 171.13 72.5232C172.727 70.7019 173.219 72.4149 173.527 73.9138C173.857 75.5254 174.251 76.4937 175.279 77.8151C177.476 80.6399 180.361 82.1208 183.891 82.4704C184.539 82.5345 186.684 82.7176 187.287 82.4692C188.381 82.0191 188.054 81.7501 188.523 80.5394C188.881 79.6168 189.408 78.9416 189.875 78.0872C190.445 77.6804 190.661 77.1366 190.521 76.4565C190.537 76.1571 190.553 75.8577 190.568 75.5583C191.755 74.8604 193.106 78.0758 193.543 78.6559C194.809 80.3388 196.174 80.6245 198.231 80.6245C198.096 79.4985 197.799 79.4349 198.858 78.9204C199.511 78.6029 200.448 78.8258 201.067 79.0777C202.848 79.8011 202.81 80.156 204.823 79.3301C206.311 78.7192 207.644 77.9251 208.991 77.0541C210.137 76.313 210.318 76.1866 210.758 74.8908C211.095 73.8992 211.041 72.5807 211.166 71.5522C209.807 72.3685 209.011 73.9436 207.52 74.7538C206.007 75.5758 204.182 76.0898 202.535 75.3331C199.108 73.7585 200.074 69.4041 201.085 66.6414C199.518 66.3723 197.878 65.4392 196.876 64.2099C196.201 63.3819 195.713 62.3499 194.992 61.4042C193.347 59.248 189.094 58.7317 188.288 62.0244C187.878 63.7007 188.852 64.2992 190.388 64.5124C192.216 64.7659 192.662 64.3156 191.996 66.4786C191.263 66.8565 191.035 67.4453 191.313 68.2446C191.267 68.5105 191.221 68.7763 191.176 69.0425C191.009 69.7123 190.652 70.2303 190.457 70.8741C189.905 72.6988 189.809 73.1987 187.748 73.7548C184.132 74.7306 179.932 75.2397 176.205 75.5595C174.965 75.6658 173.65 75.6526 174.061 73.9671C174.4 72.5756 176.709 72.1046 177.879 71.6751C179.236 71.1775 181.741 70.9457 182.903 70.2275C184.141 69.4619 184.023 68.0713 183.745 66.5927C183.399 64.7473 183.047 63.3435 183.103 61.3603C183.165 59.1887 183.945 58.4008 185.237 56.6815C181.83 57.6281 178.026 60.1041 174.489 60.0992C169.782 60.0926 170.654 55.2485 171.593 52.0629C169.873 52.3537 167.204 53.0725 166.361 50.9172C165.375 48.3972 167.835 45.4878 169.344 43.8078C167.366 43.615 165.478 44.0934 164.758 41.7043C164.256 40.0412 164.872 38.0781 166.014 36.8232C169.005 33.5368 173.654 32.8799 177.752 32.4163C180.018 32.1602 182.328 31.9468 184.601 32.1605C186.805 32.3676 188.53 33.297 190.541 34.2304C192.644 35.2065 194.073 36.5677 195.477 38.4305C196.136 39.3057 196.686 40.1544 197.056 41.1943C197.236 41.7017 197.405 44.2103 197.803 44.4974C198.391 44.9231 201.993 43.4419 203.019 43.4835C204.153 43.5293 204.857 43.8828 205.527 44.8354C205.889 45.352 206.259 47.2609 206.939 47.4692C207.267 47.5698 209.315 46.7249 209.796 46.6513C210.495 46.5441 211.172 46.3903 211.889 46.3212C214.116 46.1063 216.43 46.0462 218.591 46.7303C222.903 48.0949 225.359 52.0108 224.232 56.624C224.021 57.4837 223.434 58.1115 223.176 58.9265C222.83 60.0224 222.956 61.1692 222.697 62.3023C222.149 64.6894 221.133 66.107 219.075 67.3479C225.692 72.6203 218.515 84.6028 211.679 78.5571C209.737 81.2834 205.507 83.2342 202.334 83.9928C198.059 85.0153 194.089 84.416 191.802 80.4675C191.543 81.1447 191.122 81.8744 190.994 82.5804C190.893 82.8428 190.793 83.105 190.693 83.3671C190.394 83.7648 190.537 83.9945 191.123 84.0558C191.523 85.1864 191.816 85.3012 191.227 86.6693C195.597 85.1546 200.202 89.0933 203.219 92.0127C205.251 93.9796 206.332 96.8649 207.605 99.3267C209.098 102.215 210.235 105.232 211.614 108.167C212.853 110.805 213.617 113.671 214.97 116.25C216.25 118.691 218.32 120.451 220.467 122.015C222.459 123.465 224.458 124.915 227.007 125.519C229.911 126.206 233.153 125.233 235.991 124.504Z" fill="#030047"/>
<path fill-rule="evenodd" clip-rule="evenodd" d="M41.2598 137.825C41.4845 134.241 46.8972 130.978 49.351 128.785C52.5332 125.94 55.7279 123.067 59.222 120.555C67.9726 114.262 77.0655 108.595 86.7523 103.894C88.2343 103.175 99.0379 98.0428 99.3356 100.943C99.5137 102.679 95.1158 103.547 93.9137 104.066C91.2774 105.206 88.7767 106.638 86.2296 107.942C78.5861 111.853 71.6534 117.383 64.5775 122.384C60.3543 125.369 56.4041 128.742 52.2218 131.769C49.9927 133.383 48.0335 135.301 45.8807 136.973C44.3452 138.166 41.9969 140.685 41.2598 137.825Z" fill="#030047"/>
<path fill-rule="evenodd" clip-rule="evenodd" d="M224.073 161.096C225.27 160.611 226.649 165.473 227.171 166.341C228.167 167.995 229.257 169.704 230.465 171.202C233.258 174.663 236.092 177.981 239.385 180.983C242.541 183.861 246.105 186.586 249.892 188.603C250.982 189.184 259.152 191.786 256.073 194.383C255.121 195.186 252.141 194.426 251.119 194.106C249.354 193.553 247.399 192.631 245.783 191.737C242.394 189.86 239.224 187.465 236.508 184.697C233.402 181.533 230.863 178.061 228.365 174.409C226.123 171.132 222.691 165.138 224.073 161.096Z" fill="#030047"/>
<path fill-rule="evenodd" clip-rule="evenodd" d="M87.5977 120.448C87.1253 121.482 86.3104 121.201 85.4287 121.53C84.0585 122.041 82.7566 122.976 81.4882 123.706C79.0507 125.108 76.6369 126.566 74.2515 128.055C69.8197 130.822 65.5382 133.816 61.5829 137.234C59.0903 134.726 71.5705 125.888 73.2092 124.832C75.6589 123.254 78.2016 121.626 80.8298 120.357C82.8913 119.362 87.5062 116.657 87.5977 120.448Z" fill="#030047"/>
<path fill-rule="evenodd" clip-rule="evenodd" d="M239.757 168.083C241.412 167.741 241.888 170.333 242.576 171.143C243.67 172.43 245.065 173.531 246.371 174.554C247.962 175.799 249.395 177.083 251.065 178.223C252.424 179.149 255.418 180.594 255.16 182.632C254.572 187.289 246.197 180.587 244.788 179.193C242.778 177.207 236.903 171.042 239.757 168.083Z" fill="#030047"/>
<path fill-rule="evenodd" clip-rule="evenodd" d="M258.667 178.308C257.528 182.284 249.864 175.186 250.447 172.327C250.975 169.734 253.744 172.418 254.911 173.402C256.519 174.76 258.591 176.103 258.667 178.308Z" fill="#030047"/>
<path fill-rule="evenodd" clip-rule="evenodd" d="M80.8709 135.07C79.0798 134.559 74.6466 136.809 77.3321 133.376C78.0995 132.396 78.965 131.46 80.0355 131.984C81.1183 132.513 81.6696 134.17 80.8709 135.07Z" fill="#030047"/>
<path fill-rule="evenodd" clip-rule="evenodd" d="M192.651 86.1895C192.228 86.366 191.805 86.5422 191.382 86.7188C191.533 86.295 191.685 85.8714 191.837 85.4479C191.997 85.8742 192.268 86.1212 192.651 86.1895Z" fill="#030047"/>
<path fill-rule="evenodd" clip-rule="evenodd" d="M103.149 40.7169C102.172 40.8919 101.284 40.9234 100.293 40.8925C101.26 40.7235 102.172 40.7267 103.149 40.7169Z" fill="#030047"/>
<path fill-rule="evenodd" clip-rule="evenodd" d="M32.8018 208.401C32.8335 209.249 32.8649 210.097 32.896 210.943C32.8643 210.094 32.8332 209.248 32.8018 208.401Z" fill="#030047"/>
<path fill-rule="evenodd" clip-rule="evenodd" d="M224.499 55.5833C224.481 54.8416 224.463 54.0998 224.445 53.3594C224.743 54.0968 224.68 54.8389 224.499 55.5833Z" fill="#030047"/>
<path fill-rule="evenodd" clip-rule="evenodd" d="M106.641 40.577C105.9 40.5805 105.159 40.5844 104.419 40.5878C105.268 40.3365 106.031 40.3327 106.641 40.577Z" fill="#030047"/>
<path fill-rule="evenodd" clip-rule="evenodd" d="M111.601 124.208C111.573 124.844 111.546 125.48 111.52 126.115C111.547 125.479 111.574 124.844 111.601 124.208Z" fill="#030047"/>
<path fill-rule="evenodd" clip-rule="evenodd" d="M126.001 39.7848C125.366 39.8328 124.731 39.8807 124.097 39.9287C124.732 39.8807 125.366 39.8328 126.001 39.7848Z" fill="#030047"/>
<path fill-rule="evenodd" clip-rule="evenodd" d="M128.54 39.9252L126.636 39.7883C127.271 39.834 127.905 39.8795 128.54 39.9252Z" fill="#030047"/>
<path fill-rule="evenodd" clip-rule="evenodd" d="M47.29 176.196C46.6511 176.21 45.9992 176.431 45.3857 176.037C46.0203 176.09 46.6555 176.143 47.29 176.196Z" fill="#030047"/>
<path fill-rule="evenodd" clip-rule="evenodd" d="M302.466 119.814C301.85 120.222 301.196 119.903 300.562 119.951C301.196 119.905 301.831 119.859 302.466 119.814Z" fill="#030047"/>
<path fill-rule="evenodd" clip-rule="evenodd" d="M176.147 32.7473C175.539 33.1631 174.883 32.9163 174.243 32.8959C174.878 32.8464 175.513 32.7968 176.147 32.7473Z" fill="#030047"/>
<path fill-rule="evenodd" clip-rule="evenodd" d="M73.6328 179.416C73.1036 179.421 72.5746 179.427 72.0459 179.432C72.5733 179.138 73.1025 179.192 73.6328 179.416Z" fill="#030047"/>
<path fill-rule="evenodd" clip-rule="evenodd" d="M167.578 43.6885C167.896 43.6758 168.215 43.6631 168.53 43.6501C168.211 43.6628 167.895 43.6755 167.578 43.6885Z" fill="#030047"/>
<path fill-rule="evenodd" clip-rule="evenodd" d="M119.336 39.8001C118.912 39.8598 118.489 39.9195 118.066 39.979C118.45 39.5119 118.914 39.8713 119.336 39.8001Z" fill="#030047"/>
<path fill-rule="evenodd" clip-rule="evenodd" d="M240.576 123.335C240.153 123.388 239.73 123.44 239.307 123.493C239.73 123.44 240.153 123.388 240.576 123.335Z" fill="#030047"/>
<path fill-rule="evenodd" clip-rule="evenodd" d="M45.0684 222.887C45.3866 222.867 45.7052 222.846 46.0205 222.826C45.7014 222.847 45.3849 222.867 45.0684 222.887Z" fill="#030047"/>
<path fill-rule="evenodd" clip-rule="evenodd" d="M242.798 123.076C242.374 123.09 241.951 123.103 241.528 123.116C241.952 123.103 242.375 123.09 242.798 123.076Z" fill="#030047"/>
<path fill-rule="evenodd" clip-rule="evenodd" d="M191.233 68.2917C191.226 67.9735 191.22 67.655 191.213 67.3386C191.22 67.6573 191.226 67.9745 191.233 68.2917Z" fill="#030047"/>
<path fill-rule="evenodd" clip-rule="evenodd" d="M183.96 68.6094C183.935 69.0334 183.91 69.4574 183.886 69.8802C183.912 69.4559 183.936 69.0325 183.96 68.6094Z" fill="#030047"/>
<path fill-rule="evenodd" clip-rule="evenodd" d="M113.94 203.5C114.259 203.485 114.577 203.469 114.893 203.453C114.573 203.469 114.257 203.485 113.94 203.5Z" fill="#030047"/>
<path fill-rule="evenodd" clip-rule="evenodd" d="M24.4385 72.2665C24.757 72.2643 25.0753 72.2617 25.3906 72.2595C25.0712 72.2617 24.7547 72.2643 24.4385 72.2665Z" fill="#030047"/>
<path fill-rule="evenodd" clip-rule="evenodd" d="M258.984 122.586C258.561 122.586 258.138 122.585 257.715 122.585C258.139 122.374 258.562 122.149 258.984 122.586Z" fill="#030047"/>
<path fill-rule="evenodd" clip-rule="evenodd" d="M258.442 178.219C258.427 177.795 258.413 177.371 258.398 176.948C258.664 177.364 258.703 177.786 258.442 178.219Z" fill="#030047"/>
<path fill-rule="evenodd" clip-rule="evenodd" d="M251.685 122.391C251.261 122.438 250.838 122.484 250.415 122.531C250.838 122.484 251.261 122.438 251.685 122.391Z" fill="#030047"/>
<path fill-rule="evenodd" clip-rule="evenodd" d="M87.7723 120.396C87.7615 119.972 87.751 119.548 87.7402 119.125C87.7513 119.549 87.7618 119.973 87.7723 120.396Z" fill="#030047"/>
<path fill-rule="evenodd" clip-rule="evenodd" d="M63.1592 64.9704C63.3715 64.9605 63.5843 64.9507 63.7939 64.9412C63.5804 64.9507 63.37 64.9605 63.1592 64.9704Z" fill="#030047"/>
<path fill-rule="evenodd" clip-rule="evenodd" d="M132.983 40.5893C132.56 40.5244 132.137 40.4596 131.714 40.3951C132.137 40.4596 132.56 40.5244 132.983 40.5893Z" fill="#030047"/>
<path fill-rule="evenodd" clip-rule="evenodd" d="M51.0986 176.236C50.6755 176.181 50.2523 176.126 49.8291 176.071C50.2523 176.126 50.6755 176.181 51.0986 176.236Z" fill="#030047"/>
<path fill-rule="evenodd" clip-rule="evenodd" d="M86.3281 176.396C85.9048 176.446 85.4816 176.496 85.0586 176.547C85.4819 176.496 85.9048 176.446 86.3281 176.396Z" fill="#030047"/>
<path fill-rule="evenodd" clip-rule="evenodd" d="M256.128 122.345C255.706 122.652 255.283 122.653 254.858 122.353C255.282 122.35 255.705 122.348 256.128 122.345Z" fill="#030047"/>
<path fill-rule="evenodd" clip-rule="evenodd" d="M78.3936 178.536C78.2344 179.018 77.7967 178.811 77.4414 178.806C77.7588 178.716 78.0765 178.627 78.3936 178.536Z" fill="#030047"/>
<path fill-rule="evenodd" clip-rule="evenodd" d="M168.848 52.5853C169.06 52.5716 169.272 52.5579 169.482 52.5449C169.269 52.5589 169.058 52.5719 168.848 52.5853Z" fill="#030047"/>
<path fill-rule="evenodd" clip-rule="evenodd" d="M110.449 40.0956C110.026 40.1483 109.602 40.2011 109.18 40.2535C109.603 40.2007 110.026 40.1483 110.449 40.0956Z" fill="#030047"/>
<path fill-rule="evenodd" clip-rule="evenodd" d="M266.602 141.194C266.814 141.201 267.026 141.209 267.236 141.218C267.023 141.21 266.812 141.202 266.602 141.194Z" fill="#030047"/>
<path fill-rule="evenodd" clip-rule="evenodd" d="M112.867 138.188C112.842 138.506 112.817 138.824 112.792 139.141C112.816 138.821 112.842 138.504 112.867 138.188Z" fill="#030047"/>
<path fill-rule="evenodd" clip-rule="evenodd" d="M174.878 75.4333C175.09 75.4381 175.303 75.4428 175.513 75.447C175.299 75.4419 175.088 75.4377 174.878 75.4333Z" fill="#030047"/>
<path fill-rule="evenodd" clip-rule="evenodd" d="M76.8066 198.689C77.0192 198.704 77.2318 198.719 77.4414 198.733C77.2281 198.718 77.0172 198.703 76.8066 198.689Z" fill="#030047"/>
<path fill-rule="evenodd" clip-rule="evenodd" d="M246.606 122.885C246.183 122.884 245.76 122.883 245.337 122.882C245.761 122.552 246.184 122.657 246.606 122.885Z" fill="#030047"/>
<path fill-rule="evenodd" clip-rule="evenodd" d="M288.184 137.734C288.396 137.718 288.608 137.703 288.818 137.688C288.605 137.703 288.394 137.718 288.184 137.734Z" fill="#030047"/>
<path fill-rule="evenodd" clip-rule="evenodd" d="M294.531 213.557C294.108 213.615 293.685 213.672 293.262 213.729C293.685 213.672 294.108 213.615 294.531 213.557Z" fill="#030047"/>
<path fill-rule="evenodd" clip-rule="evenodd" d="M212.646 46.134C212.223 46.1855 211.8 46.2367 211.377 46.2878C211.8 46.2367 212.223 46.1855 212.646 46.134Z" fill="#030047"/>
<path fill-rule="evenodd" clip-rule="evenodd" d="M166.51 49.2292C166.482 49.5475 166.454 49.8656 166.425 50.1823C166.453 49.8634 166.481 49.5464 166.51 49.2292Z" fill="#030047"/>
<path fill-rule="evenodd" clip-rule="evenodd" d="M130.127 137.88C128.838 138.599 127.446 139.201 126.177 139.935C125.281 140.453 124.551 141.671 123.779 140.653C125.48 139.822 128.234 137.702 130.127 137.88Z" fill="#030047"/>
<path fill-rule="evenodd" clip-rule="evenodd" d="M48.4838 202.047C48.2236 201.303 48.2271 200.561 48.5092 199.823C48.501 200.565 48.4921 201.306 48.4838 202.047Z" fill="#030047"/>
<path fill-rule="evenodd" clip-rule="evenodd" d="M50.078 212.531C50.0996 212.955 50.1215 213.379 50.1431 213.802C50.0723 213.807 49.5232 212.558 50.078 212.531Z" fill="#030047"/>
<path fill-rule="evenodd" clip-rule="evenodd" d="M60.4102 57.8073C60.4441 57.2773 60.4787 56.7473 60.5123 56.2188C60.4784 56.749 60.4441 57.2782 60.4102 57.8073Z" fill="#030047"/>
<path fill-rule="evenodd" clip-rule="evenodd" d="M211.06 61.7866C210.635 61.7809 210.211 61.7755 209.79 61.7708C210.215 61.7765 210.637 61.7816 211.06 61.7866Z" fill="#030047"/>
<path fill-rule="evenodd" clip-rule="evenodd" d="M116.479 197.186C117.009 197.143 117.538 197.101 118.066 197.059C117.538 197.101 117.008 197.143 116.479 197.186Z" fill="#030047"/>
<path fill-rule="evenodd" clip-rule="evenodd" d="M37.2207 216.026C37.2683 216.45 37.3162 216.874 37.3638 217.297C37.3159 216.873 37.268 216.449 37.2207 216.026Z" fill="#030047"/>
<path fill-rule="evenodd" clip-rule="evenodd" d="M96.167 196.244C96.5903 196.194 97.0135 196.144 97.4365 196.095C97.0133 196.144 96.59 196.194 96.167 196.244Z" fill="#030047"/>
<path fill-rule="evenodd" clip-rule="evenodd" d="M92.3584 195.492C92.7772 195.592 93.2543 195.137 93.6279 195.664C93.2044 195.606 92.7817 195.549 92.3584 195.492Z" fill="#030047"/>
<path fill-rule="evenodd" clip-rule="evenodd" d="M37.0123 207.448C36.9875 207.766 36.9624 208.084 36.938 208.401C36.9634 208.082 36.9878 207.765 37.0123 207.448Z" fill="#030047"/>
<path fill-rule="evenodd" clip-rule="evenodd" d="M46.1621 69.8802C46.1732 70.1984 46.1843 70.5166 46.1961 70.8334C46.1853 70.5144 46.1735 70.1973 46.1621 69.8802Z" fill="#030047"/>
<path fill-rule="evenodd" clip-rule="evenodd" d="M41.3521 211.26C41.3962 210.943 41.4403 210.624 41.4844 210.307C41.44 210.626 41.3962 210.943 41.3521 211.26Z" fill="#030047"/>
<path fill-rule="evenodd" clip-rule="evenodd" d="M270.093 136.524C270.516 136.468 270.939 136.412 271.362 136.356C270.939 136.412 270.516 136.468 270.093 136.524Z" fill="#030047"/>
<path fill-rule="evenodd" clip-rule="evenodd" d="M36.9297 214.12C36.9602 214.438 36.9903 214.756 37.0208 215.073C36.9903 214.755 36.9602 214.437 36.9297 214.12Z" fill="#030047"/>
<path fill-rule="evenodd" clip-rule="evenodd" d="M267.931 135.01C268.201 135.327 268.186 135.646 267.937 135.964C267.935 135.645 267.933 135.328 267.931 135.01Z" fill="#030047"/>
<path fill-rule="evenodd" clip-rule="evenodd" d="M170.752 133.928C170.539 133.909 170.327 133.889 170.117 133.869C170.33 133.888 170.541 133.908 170.752 133.928Z" fill="#030047"/>
<path fill-rule="evenodd" clip-rule="evenodd" d="M32.0557 65.991L33.3252 65.8268L32.0557 65.991Z" fill="#030047"/>
<path fill-rule="evenodd" clip-rule="evenodd" d="M244.818 140.069C242.469 140.41 244.635 137.156 245.272 136.705C246.013 136.18 246.797 135.971 247.514 135.341C247.964 134.946 248.473 133.995 249.162 134.061C250.683 134.204 249.997 136.386 249.544 137.322C248.655 139.155 246.797 140.1 244.818 140.069Z" fill="#030047"/>
<path fill-rule="evenodd" clip-rule="evenodd" d="M168.562 102.604C167.179 102.113 160.186 100.783 163.283 97.948C165.329 96.0753 171.014 100.863 168.562 102.604Z" fill="#030047"/>
<path fill-rule="evenodd" clip-rule="evenodd" d="M136.48 124.802C136.263 122.325 142.975 119.583 142.111 122.836C141.91 123.593 140.008 125.459 139.489 125.954C138.099 127.277 136.481 126.989 136.48 124.802Z" fill="#030047"/>
<path fill-rule="evenodd" clip-rule="evenodd" d="M73.6328 56.3553C74.0876 54.7504 74.5887 53.9961 76.1776 53.3761C77.1933 52.9792 78.8761 52.6186 79.0234 54.2745C79.1323 55.4965 77.41 56.6851 76.5767 57.2052C75.0864 58.1358 74.2656 58.0864 73.6328 56.3553Z" fill="#030047"/>
<path fill-rule="evenodd" clip-rule="evenodd" d="M164.399 115.427C164.416 117.111 163.827 119.092 162.345 120.103C161.185 120.895 158.547 121.268 159.548 118.973C159.853 118.275 160.714 117.929 161.241 117.411C162.106 116.558 162.178 115.635 162.662 114.837C162.828 114.563 162.566 113.918 163.087 113.759C163.956 113.493 164.46 114.816 164.399 115.427Z" fill="#030047"/>
<path fill-rule="evenodd" clip-rule="evenodd" d="M195.885 101.651C197.081 101.649 198.212 102.079 197.516 103.446C196.989 104.482 194.698 105.277 193.661 105.422C192.331 105.609 190.844 105.197 191.575 103.509C192.183 102.103 194.567 101.977 195.885 101.651Z" fill="#030047"/>
<path fill-rule="evenodd" clip-rule="evenodd" d="M205.664 123.892C205.615 126.98 200.055 123.753 200.627 121.436C201.348 118.517 205.219 122.528 205.664 123.892Z" fill="#030047"/>
<path fill-rule="evenodd" clip-rule="evenodd" d="M141.868 69.559C141.868 72.182 136.345 68.8228 136.821 66.5282C137.457 63.4696 141.983 67.5777 141.868 69.559Z" fill="#030047"/>
<path fill-rule="evenodd" clip-rule="evenodd" d="M136.421 58.4427C134.087 56.5756 139.437 51.7718 140.973 53.887C142.364 55.8028 137.829 58.3284 136.421 58.4427Z" fill="#030047"/>
<path fill-rule="evenodd" clip-rule="evenodd" d="M138.034 97.8385C136.755 97.7235 135.281 97.7363 134.156 97.0025C133.334 96.467 131.908 94.399 133.159 93.5063C133.93 92.9566 135.874 94.5216 136.663 94.9328C138.01 95.6341 138.905 96.0709 138.034 97.8385Z" fill="#030047"/>
<path fill-rule="evenodd" clip-rule="evenodd" d="M192.159 115.312C189.147 115.352 188.194 111.707 191.824 112.177C192.789 112.302 195.167 112.534 195.19 113.807C195.217 115.274 193.298 115.124 192.159 115.312Z" fill="#030047"/>
<path fill-rule="evenodd" clip-rule="evenodd" d="M161.548 81.7364C161.331 83.1205 160.957 84.1381 159.744 84.9471C158.701 85.6423 156.653 86.5675 156.794 84.491C156.878 83.2551 160.991 78.6311 161.548 81.7364Z" fill="#030047"/>
<path fill-rule="evenodd" clip-rule="evenodd" d="M102.894 52.4062C104.093 52.981 105.658 59.103 104.051 59.6413C101.495 60.4972 102.075 53.49 102.894 52.4062Z" fill="#030047"/>
<path fill-rule="evenodd" clip-rule="evenodd" d="M154.984 109.911C153.122 107.796 158.002 103.59 159.177 105.742C160.147 107.519 156.116 109.16 154.984 109.911Z" fill="#030047"/>
<path fill-rule="evenodd" clip-rule="evenodd" d="M121.564 53.8265C121.892 50.5848 125.616 55.3715 125.353 56.9302C124.892 59.6599 121.392 55.2784 121.564 53.8265Z" fill="#030047"/>
<path fill-rule="evenodd" clip-rule="evenodd" d="M124.414 134.451C124.394 136.615 120.151 134.371 120.646 132.087C121.204 129.507 124.383 133.245 124.414 134.451Z" fill="#030047"/>
<path fill-rule="evenodd" clip-rule="evenodd" d="M210.107 135.968C211.366 132.204 212.101 134.764 212.454 137.14C212.567 137.899 213.078 139.998 211.763 139.757C210.541 139.533 210.207 136.764 210.107 135.968Z" fill="#030047"/>
<path fill-rule="evenodd" clip-rule="evenodd" d="M225.493 138.188C226.479 138.863 228.45 143.919 226.235 143.201C224.546 142.654 224.196 139.185 225.493 138.188Z" fill="#030047"/>
<path fill-rule="evenodd" clip-rule="evenodd" d="M175.745 117.536C175.857 118.894 176.041 119.359 176.763 120.477C177.383 121.437 177.787 121.885 176.913 122.938C175.877 122.146 174.625 121.531 174.316 120.211C174.076 119.192 174.397 117.578 175.745 117.536Z" fill="#030047"/>
<path fill-rule="evenodd" clip-rule="evenodd" d="M146.243 103.557C145.513 102.977 142.969 99.8803 143.54 98.7569C144.245 97.3695 147.792 101.425 146.243 103.557Z" fill="#030047"/>
<path fill-rule="evenodd" clip-rule="evenodd" d="M194.171 126.115C194.96 126.814 194.596 128.293 194.731 129.198C194.868 130.115 195.63 131.339 194.83 132.151C192.862 131.024 192.928 127.723 194.171 126.115Z" fill="#030047"/>
<path fill-rule="evenodd" clip-rule="evenodd" d="M126.636 114.351C126.623 113.259 129.22 111.273 129.76 112.549C130.223 113.644 127.336 116.922 126.636 114.351Z" fill="#030047"/>
</svg>
