<svg width="339" height="100" viewBox="0 0 339 100" fill="none" xmlns="http://www.w3.org/2000/svg">
<path d="M32.7953 73.1426C31.9164 73.1426 30.891 72.1562 29.7191 70.1836C28.5668 68.1914 26.5844 63.8164 23.7719 57.0586C23.3031 55.9062 22.7074 54.3926 21.9848 52.5176C20.5004 48.6699 19.3188 46.5215 18.4398 46.0723C18.2445 45.9746 17.932 45.8379 17.5023 45.6621C16.3305 45.1934 15.7445 44.5879 15.7445 43.8457C15.7445 43.0254 16.2523 42.459 17.268 42.1465C18.3031 41.8145 20.4711 41.6484 23.7719 41.6484C26.5453 41.6484 28.4203 41.8145 29.3969 42.1465C30.3734 42.459 30.8617 43.0254 30.8617 43.8457C30.8617 44.2168 30.7934 44.5391 30.6566 44.8125C30.5395 45.0664 30.3637 45.252 30.1293 45.3691C29.8949 45.4863 29.5629 45.6328 29.1332 45.8086C28.2934 46.1602 27.8734 46.5508 27.8734 46.9805C27.8734 47.332 28.0883 48.1328 28.518 49.3828C28.9672 50.6133 29.7484 52.5957 30.8617 55.3301C32.1508 58.4355 33.0297 60.4375 33.4984 61.3359C33.9672 62.2148 34.3285 62.6543 34.5824 62.6543C34.8559 62.6543 35.1684 62.3906 35.5199 61.8633C35.891 61.3164 36.3598 60.418 36.9262 59.168C38.3715 55.9844 39.4555 53.4062 40.1781 51.4336C40.9203 49.4609 41.2914 48.1328 41.2914 47.4492C41.2914 47.0391 41.2035 46.6777 41.0277 46.3652C40.8715 46.0527 40.6469 45.8184 40.3539 45.6621C40.1586 45.5645 39.8754 45.4473 39.5043 45.3105C38.5863 44.959 38.1273 44.4512 38.1273 43.7871C38.1273 43.0059 38.5863 42.459 39.5043 42.1465C40.4223 41.8145 42.141 41.6484 44.6606 41.6484C46.7895 41.6484 48.2836 41.8145 49.143 42.1465C50.0023 42.459 50.432 42.9863 50.432 43.7285C50.432 44.5879 49.9047 45.1836 48.85 45.5156C48.3813 45.6523 48.0297 45.7793 47.7953 45.8965C46.8578 46.3457 45.5297 48.5625 43.8109 52.5469C43.4594 53.3867 43.1859 54.0312 42.9906 54.4805L41.7602 57.293C37.1313 67.8594 34.143 73.1426 32.7953 73.1426ZM56.4543 54.3633C56.4543 58.4062 57.3039 61.7852 59.0031 64.5C60.7219 67.2148 62.8117 68.5723 65.2727 68.5723C67.2649 68.5723 68.8762 67.7324 70.1066 66.0527C71.3566 64.373 71.9816 62.1562 71.9816 59.4023C71.9816 55.418 71.1125 52.0781 69.3742 49.3828C67.6555 46.668 65.5852 45.3105 63.1633 45.3105C61.1516 45.3105 59.5305 46.1406 58.3 47.8008C57.0695 49.4414 56.4543 51.6289 56.4543 54.3633ZM63.9543 72.8496C59.5598 72.8496 55.9172 71.3555 53.0266 68.3672C50.1359 65.3789 48.6906 61.6094 48.6906 57.0586C48.6906 52.4688 50.2043 48.6504 53.2316 45.6035C56.2785 42.5566 60.0871 41.0332 64.6574 41.0332C69.052 41.0332 72.6457 42.459 75.4387 45.3105C78.2512 48.1621 79.6574 51.8145 79.6574 56.2676C79.6574 60.9941 78.1535 64.9395 75.1457 68.1035C72.1379 71.2676 68.4074 72.8496 63.9543 72.8496ZM91.9785 54.5977V54.7734C91.9004 58.1719 91.8613 60.6719 91.8613 62.2734C91.8613 64.207 91.9492 65.5742 92.125 66.375C92.3008 67.1758 92.6133 67.6934 93.0625 67.9277C93.3164 68.0645 93.6973 68.2305 94.2051 68.4258C95.2402 68.7969 95.7578 69.373 95.7578 70.1543C95.7578 70.9355 95.2598 71.4922 94.2637 71.8242C93.2676 72.1367 91.4414 72.293 88.7852 72.293C85.6797 72.293 83.6191 72.127 82.6035 71.7949C81.6074 71.4629 81.1094 70.8477 81.1094 69.9492C81.1094 69.2656 81.6074 68.7383 82.6035 68.3672C82.9746 68.2305 83.2383 68.123 83.3945 68.0449C83.9219 67.752 84.293 67.2637 84.5078 66.5801C84.7227 65.8965 84.8301 64.7832 84.8301 63.2402C84.8301 62.8691 84.8203 62.1855 84.8008 61.1895C84.7813 60.1934 84.7715 59.373 84.7715 58.7285V55.5645C84.7715 52.3613 84.6934 50.2715 84.5371 49.2949C84.3809 48.3184 84.0977 47.7227 83.6875 47.5078C83.375 47.3516 82.8965 47.1758 82.252 46.9805C81.0215 46.5898 80.4063 46.0527 80.4063 45.3691C80.4063 44.9199 80.5918 44.5195 80.9629 44.168C81.3535 43.7969 81.9883 43.4355 82.8672 43.084C84.4102 42.4785 85.9434 41.9902 87.4668 41.6191C88.9902 41.2285 90.0742 41.0332 90.7188 41.0332C91.2656 41.0332 91.6563 41.2285 91.8906 41.6191C92.1445 42.0098 92.2715 42.6738 92.2715 43.6113C92.2715 44.3535 92.2617 44.959 92.2422 45.4277C92.2422 45.8965 92.2324 46.3555 92.2129 46.8047L91.9785 54.5977ZM82.9844 31.9219C82.9844 30.7695 83.4629 29.7832 84.4199 28.9629C85.377 28.1426 86.5391 27.7324 87.9063 27.7324C89.2344 27.7324 90.3281 28.1035 91.1875 28.8457C92.0664 29.5879 92.5059 30.5156 92.5059 31.6289C92.5059 32.7422 92.0274 33.6895 91.0703 34.4707C90.1328 35.252 88.9512 35.6426 87.5254 35.6426C86.2168 35.6426 85.1328 35.291 84.2734 34.5879C83.4141 33.8848 82.9844 32.9961 82.9844 31.9219ZM96.8875 57.4102C96.8875 52.7031 98.4109 48.7969 101.458 45.6914C104.524 42.5859 108.343 41.0332 112.913 41.0332C116.253 41.0332 119.095 41.9121 121.438 43.6699C123.802 45.4082 124.983 47.4492 124.983 49.793C124.983 50.7305 124.651 51.502 123.987 52.1074C123.343 52.6934 122.513 52.9863 121.497 52.9863C120.462 52.9863 119.632 52.7422 119.007 52.2539C118.382 51.7656 117.718 50.6914 117.014 49.0312C116.37 47.5664 115.657 46.5508 114.876 45.9844C114.095 45.3984 113.079 45.1055 111.829 45.1055C109.466 45.1055 107.62 45.9844 106.292 47.7422C104.983 49.4805 104.329 51.9219 104.329 55.0664C104.329 58.6992 105.266 61.6582 107.141 63.9434C109.016 66.2285 111.419 67.3711 114.348 67.3711C115.364 67.3711 116.321 67.2344 117.22 66.9609C118.138 66.6875 118.987 66.2871 119.768 65.7598C120.042 65.5645 120.432 65.2715 120.94 64.8809C122.014 64.0215 122.864 63.5918 123.489 63.5918C123.919 63.5918 124.251 63.7188 124.485 63.9727C124.739 64.207 124.866 64.5391 124.866 64.9688C124.866 65.4766 124.651 66.0918 124.221 66.8145C123.792 67.5371 123.245 68.1816 122.581 68.748C120.979 70.1543 119.309 71.1895 117.571 71.8535C115.852 72.5176 113.977 72.8496 111.946 72.8496C107.669 72.8496 104.085 71.375 101.194 68.4258C98.3231 65.457 96.8875 61.7852 96.8875 57.4102ZM137.129 56.5312H136.718C135.586 56.5312 134.912 56.6191 134.697 56.7949C134.482 56.9707 134.375 57.4395 134.375 58.2012C134.375 60.7402 135.283 62.9277 137.099 64.7637C138.916 66.5801 141.123 67.4883 143.72 67.4883C144.834 67.4883 145.908 67.3223 146.943 66.9902C147.978 66.6582 148.984 66.1504 149.961 65.4668C150.234 65.2715 150.605 64.9883 151.074 64.6172C152.089 63.7773 152.88 63.3574 153.447 63.3574C153.896 63.3574 154.267 63.5039 154.56 63.7969C154.853 64.0898 155 64.4414 155 64.8516C155 65.3398 154.746 65.9453 154.238 66.668C153.73 67.3711 153.046 68.0645 152.187 68.748C150.41 70.2129 148.701 71.2676 147.06 71.9121C145.42 72.5371 143.632 72.8496 141.699 72.8496C137.363 72.8496 133.74 71.375 130.83 68.4258C127.939 65.457 126.494 61.7852 126.494 57.4102C126.494 52.6445 127.978 48.7285 130.947 45.6621C133.935 42.5762 137.754 41.0332 142.402 41.0332C146.328 41.0332 149.433 42.1562 151.718 44.4023C154.023 46.6289 155.175 49.6465 155.175 53.4551C155.175 54.7051 154.99 55.5352 154.619 55.9453C154.248 56.3359 153.3 56.5312 151.777 56.5312H137.129ZM136.513 53.0449H146.416C147.197 53.0449 147.714 52.9668 147.968 52.8105C148.222 52.6543 148.349 52.3516 148.349 51.9023C148.349 49.9297 147.685 48.2793 146.357 46.9512C145.048 45.6035 143.388 44.9297 141.377 44.9297C139.443 44.9297 137.841 45.6035 136.572 46.9512C135.302 48.2793 134.668 49.9297 134.668 51.9023C134.668 52.3516 134.785 52.6543 135.019 52.8105C135.254 52.9668 135.752 53.0449 136.513 53.0449ZM179.01 59.0508C176.295 65.1445 174.43 69.0215 173.414 70.6816C172.399 72.3223 171.53 73.1426 170.807 73.1426C169.381 73.1426 166.666 68.4648 162.663 59.1094C162.291 58.2109 161.998 57.5273 161.784 57.0586C161.237 55.75 160.563 54.041 159.762 51.9316C158.454 48.4746 157.35 46.5215 156.452 46.0723C156.256 45.9746 155.944 45.8379 155.514 45.6621C154.342 45.1934 153.756 44.5879 153.756 43.8457C153.756 43.0254 154.264 42.459 155.28 42.1465C156.315 41.8145 158.483 41.6484 161.784 41.6484C164.557 41.6484 166.432 41.8145 167.409 42.1465C168.385 42.459 168.873 43.0254 168.873 43.8457C168.873 44.2168 168.805 44.5391 168.668 44.8125C168.551 45.0664 168.375 45.252 168.141 45.3691C167.907 45.4863 167.575 45.6328 167.145 45.8086C166.305 46.1602 165.885 46.5508 165.885 46.9805C165.885 47.3516 166.12 48.2012 166.588 49.5293C167.057 50.8574 167.819 52.791 168.873 55.3301C170.045 58.1816 170.895 60.1152 171.422 61.1309C171.95 62.1465 172.34 62.6543 172.594 62.6543C173.024 62.6543 173.58 62.0391 174.264 60.8086C174.948 59.5586 176.344 56.4141 178.454 51.375C178.395 51.1602 178.288 50.8379 178.131 50.4082C177.311 48.0059 176.422 46.5605 175.465 46.0723C175.27 45.9746 174.977 45.8379 174.586 45.6621C173.414 45.1934 172.829 44.5879 172.829 43.8457C172.829 43.0254 173.336 42.459 174.352 42.1465C175.368 41.8145 177.526 41.6484 180.827 41.6484C183.6 41.6484 185.475 41.8145 186.452 42.1465C187.448 42.459 187.946 43.0254 187.946 43.8457C187.946 44.1973 187.877 44.5098 187.741 44.7832C187.604 45.0371 187.418 45.2324 187.184 45.3691C186.93 45.4863 186.588 45.6328 186.159 45.8086C185.319 46.1602 184.899 46.5508 184.899 46.9805C184.899 47.293 185.084 47.9668 185.455 49.002C185.827 50.0371 186.657 52.1465 187.946 55.3301C189.235 58.4355 190.114 60.4375 190.582 61.3359C191.051 62.2148 191.413 62.6543 191.666 62.6543C191.94 62.6543 192.262 62.3906 192.633 61.8633C193.004 61.3164 193.463 60.418 194.01 59.168C195.455 55.9844 196.549 53.4062 197.291 51.4336C198.034 49.4609 198.405 48.1328 198.405 47.4492C198.405 47.0391 198.317 46.6777 198.141 46.3652C197.965 46.0527 197.731 45.8184 197.438 45.6621C197.243 45.5645 196.959 45.4473 196.588 45.3105C195.67 44.959 195.211 44.4512 195.211 43.7871C195.211 43.0059 195.661 42.459 196.559 42.1465C197.477 41.8145 199.186 41.6484 201.686 41.6484C203.834 41.6484 205.338 41.8145 206.198 42.1465C207.077 42.459 207.516 42.9863 207.516 43.7285C207.516 44.5879 206.989 45.1836 205.934 45.5156C205.465 45.6523 205.114 45.7793 204.879 45.8965C203.922 46.3652 202.526 48.7188 200.69 52.957C200.397 53.6211 200.172 54.1289 200.016 54.4805L198.786 57.293C194.157 67.8594 191.168 73.1426 189.821 73.1426C188.454 73.1426 185.983 68.9824 182.409 60.6621C182.272 60.3301 182.164 60.0664 182.086 59.8711L181.002 57.3809C180.905 57.127 180.797 56.9414 180.68 56.8242C180.582 56.707 180.465 56.6484 180.329 56.6484C180.27 56.6484 180.182 56.707 180.065 56.8242C179.967 56.9414 179.879 57.0781 179.801 57.2344L179.01 59.0508ZM215.911 56.5312H215.501C214.368 56.5312 213.695 56.6191 213.48 56.7949C213.265 56.9707 213.157 57.4395 213.157 58.2012C213.157 60.7402 214.066 62.9277 215.882 64.7637C217.698 66.5801 219.905 67.4883 222.503 67.4883C223.616 67.4883 224.691 67.3223 225.726 66.9902C226.761 66.6582 227.767 66.1504 228.743 65.4668C229.017 65.2715 229.388 64.9883 229.857 64.6172C230.872 63.7773 231.663 63.3574 232.23 63.3574C232.679 63.3574 233.05 63.5039 233.343 63.7969C233.636 64.0898 233.782 64.4414 233.782 64.8516C233.782 65.3398 233.529 65.9453 233.021 66.668C232.513 67.3711 231.829 68.0645 230.97 68.748C229.193 70.2129 227.484 71.2676 225.843 71.9121C224.202 72.5371 222.415 72.8496 220.482 72.8496C216.146 72.8496 212.523 71.375 209.613 68.4258C206.722 65.457 205.277 61.7852 205.277 57.4102C205.277 52.6445 206.761 48.7285 209.73 45.6621C212.718 42.5762 216.536 41.0332 221.185 41.0332C225.111 41.0332 228.216 42.1562 230.501 44.4023C232.806 46.6289 233.958 49.6465 233.958 53.4551C233.958 54.7051 233.773 55.5352 233.402 55.9453C233.03 56.3359 232.083 56.5312 230.56 56.5312H215.911ZM215.296 53.0449H225.198C225.98 53.0449 226.497 52.9668 226.751 52.8105C227.005 52.6543 227.132 52.3516 227.132 51.9023C227.132 49.9297 226.468 48.2793 225.14 46.9512C223.831 45.6035 222.171 44.9297 220.159 44.9297C218.226 44.9297 216.624 45.6035 215.355 46.9512C214.085 48.2793 213.45 49.9297 213.45 51.9023C213.45 52.3516 213.568 52.6543 213.802 52.8105C214.036 52.9668 214.534 53.0449 215.296 53.0449ZM261.631 63.6504C261.631 64.8027 261.729 65.6621 261.924 66.2285C262.119 66.7949 262.422 67.1367 262.832 67.2539C263.066 67.332 263.379 67.4199 263.77 67.5176C265.059 67.8691 265.703 68.3867 265.703 69.0703C265.703 70.0469 265.02 70.9355 263.652 71.7363C262.285 72.5176 260.693 72.9082 258.877 72.9082C257.979 72.9082 257.021 72.3809 256.006 71.3262C255.01 70.252 254.482 69.7148 254.424 69.7148C254.248 69.7148 253.809 69.9395 253.105 70.3887C250.527 72.0684 247.988 72.9082 245.488 72.9082C242.52 72.9082 240.117 72.0488 238.281 70.3301C236.445 68.5918 235.527 66.3262 235.527 63.5332C235.527 60.2715 236.709 57.7324 239.072 55.916C241.436 54.0801 244.736 53.1621 248.975 53.1621C249.775 53.1621 250.645 53.2109 251.582 53.3086C252.539 53.3867 253.564 53.5137 254.658 53.6895L254.688 50.4668C254.688 48.6699 254.297 47.293 253.516 46.3359C252.734 45.3594 251.621 44.8711 250.176 44.8711C249.18 44.8711 248.252 45.0957 247.393 45.5449C246.533 45.9746 245.703 46.6484 244.902 47.5664C244.746 47.7422 244.531 48.0059 244.258 48.3574C243.027 49.9199 241.719 50.7012 240.332 50.7012C239.531 50.7012 238.887 50.4473 238.398 49.9395C237.93 49.4121 237.695 48.709 237.695 47.8301C237.695 45.916 238.877 44.3047 241.24 42.9961C243.604 41.6875 246.641 41.0332 250.352 41.0332C252.617 41.0332 254.561 41.3359 256.182 41.9414C257.803 42.5273 259.062 43.3867 259.961 44.5195C260.566 45.3008 260.996 46.3164 261.25 47.5664C261.504 48.8164 261.631 50.8965 261.631 53.8066V63.6504ZM254.658 57.5859C253.857 57.4102 253.086 57.2832 252.344 57.2051C251.602 57.1074 250.898 57.0586 250.234 57.0586C248.047 57.0586 246.338 57.5469 245.107 58.5234C243.877 59.5 243.262 60.8477 243.262 62.5664C243.262 64.1875 243.789 65.4863 244.844 66.4629C245.918 67.4395 247.354 67.9277 249.15 67.9277C251.143 67.9277 252.559 67.4883 253.398 66.6094C254.258 65.7305 254.688 64.2266 254.688 62.0977L254.658 57.5859ZM280.427 73.1426C279.548 73.1426 278.522 72.1562 277.35 70.1836C276.198 68.1914 274.216 63.8164 271.403 57.0586C270.934 55.9062 270.339 54.3926 269.616 52.5176C268.132 48.6699 266.95 46.5215 266.071 46.0723C265.876 45.9746 265.563 45.8379 265.134 45.6621C263.962 45.1934 263.376 44.5879 263.376 43.8457C263.376 43.0254 263.884 42.459 264.899 42.1465C265.934 41.8145 268.102 41.6484 271.403 41.6484C274.177 41.6484 276.052 41.8145 277.028 42.1465C278.005 42.459 278.493 43.0254 278.493 43.8457C278.493 44.2168 278.425 44.5391 278.288 44.8125C278.171 45.0664 277.995 45.252 277.761 45.3691C277.526 45.4863 277.194 45.6328 276.764 45.8086C275.925 46.1602 275.505 46.5508 275.505 46.9805C275.505 47.332 275.72 48.1328 276.149 49.3828C276.598 50.6133 277.38 52.5957 278.493 55.3301C279.782 58.4355 280.661 60.4375 281.13 61.3359C281.598 62.2148 281.96 62.6543 282.214 62.6543C282.487 62.6543 282.8 62.3906 283.151 61.8633C283.522 61.3164 283.991 60.418 284.557 59.168C286.003 55.9844 287.087 53.4062 287.809 51.4336C288.552 49.4609 288.923 48.1328 288.923 47.4492C288.923 47.0391 288.835 46.6777 288.659 46.3652C288.503 46.0527 288.278 45.8184 287.985 45.6621C287.79 45.5645 287.507 45.4473 287.136 45.3105C286.218 44.959 285.759 44.4512 285.759 43.7871C285.759 43.0059 286.218 42.459 287.136 42.1465C288.054 41.8145 289.772 41.6484 292.292 41.6484C294.421 41.6484 295.915 41.8145 296.774 42.1465C297.634 42.459 298.063 42.9863 298.063 43.7285C298.063 44.5879 297.536 45.1836 296.481 45.5156C296.013 45.6523 295.661 45.7793 295.427 45.8965C294.489 46.3457 293.161 48.5625 291.442 52.5469C291.091 53.3867 290.817 54.0312 290.622 54.4805L289.391 57.293C284.763 67.8594 281.774 73.1426 280.427 73.1426ZM307.074 56.5312H306.664C305.531 56.5312 304.857 56.6191 304.642 56.7949C304.427 56.9707 304.32 57.4395 304.32 58.2012C304.32 60.7402 305.228 62.9277 307.045 64.7637C308.861 66.5801 311.068 67.4883 313.666 67.4883C314.779 67.4883 315.853 67.3223 316.888 66.9902C317.923 66.6582 318.929 66.1504 319.906 65.4668C320.179 65.2715 320.55 64.9883 321.019 64.6172C322.035 63.7773 322.826 63.3574 323.392 63.3574C323.841 63.3574 324.212 63.5039 324.505 63.7969C324.798 64.0898 324.945 64.4414 324.945 64.8516C324.945 65.3398 324.691 65.9453 324.183 66.668C323.675 67.3711 322.992 68.0645 322.132 68.748C320.355 70.2129 318.646 71.2676 317.005 71.9121C315.365 72.5371 313.578 72.8496 311.644 72.8496C307.308 72.8496 303.685 71.375 300.775 68.4258C297.884 65.457 296.439 61.7852 296.439 57.4102C296.439 52.6445 297.923 48.7285 300.892 45.6621C303.88 42.5762 307.699 41.0332 312.347 41.0332C316.273 41.0332 319.379 42.1562 321.664 44.4023C323.968 46.6289 325.121 49.6465 325.121 53.4551C325.121 54.7051 324.935 55.5352 324.564 55.9453C324.193 56.3359 323.246 56.5312 321.722 56.5312H307.074ZM306.459 53.0449H316.361C317.142 53.0449 317.66 52.9668 317.914 52.8105C318.168 52.6543 318.295 52.3516 318.295 51.9023C318.295 49.9297 317.63 48.2793 316.302 46.9512C314.994 45.6035 313.334 44.9297 311.322 44.9297C309.388 44.9297 307.787 45.6035 306.517 46.9512C305.248 48.2793 304.613 49.9297 304.613 51.9023C304.613 52.3516 304.73 52.6543 304.964 52.8105C305.199 52.9668 305.697 53.0449 306.459 53.0449Z" fill="#030047"/>
</svg>
